<mxfile host="app.diagrams.net" agent="Mozilla/5.0 (Macintosh; Intel Mac OS X 10_15_7) AppleWebKit/537.36 (KHTML, like Gecko) Chrome/129.0.0.0 Safari/537.36" version="24.8.2">
  <diagram id="oB_ZE0vXFGq1vP_G6aWp" name="Page-1">
    <mxGraphModel dx="934" dy="593" grid="1" gridSize="10" guides="1" tooltips="1" connect="1" arrows="1" fold="1" page="1" pageScale="1" pageWidth="827" pageHeight="1169" math="0" shadow="0">
      <root>
        <mxCell id="0" />
        <mxCell id="1" parent="0" />
        <mxCell id="-Fb17HKplbQbY4DAVAYo-14" style="edgeStyle=orthogonalEdgeStyle;rounded=0;orthogonalLoop=1;jettySize=auto;html=1;exitX=0.5;exitY=0;exitDx=0;exitDy=0;" edge="1" parent="1" source="-Fb17HKplbQbY4DAVAYo-10">
          <mxGeometry relative="1" as="geometry">
            <mxPoint x="205" y="240" as="targetPoint" />
          </mxGeometry>
        </mxCell>
        <mxCell id="-Fb17HKplbQbY4DAVAYo-10" value="" style="rounded=0;whiteSpace=wrap;html=1;container=1;" vertex="1" parent="1">
          <mxGeometry x="140" y="330" width="130" height="100" as="geometry" />
        </mxCell>
        <mxCell id="-Fb17HKplbQbY4DAVAYo-12" value="" style="verticalLabelPosition=bottom;html=1;verticalAlign=top;align=center;strokeColor=none;fillColor=#00BEF2;shape=mxgraph.azure.mobile;pointerEvents=1;" vertex="1" parent="-Fb17HKplbQbY4DAVAYo-10">
          <mxGeometry x="10" y="25" width="35" height="50" as="geometry" />
        </mxCell>
        <mxCell id="-Fb17HKplbQbY4DAVAYo-13" value="" style="fontColor=#0066CC;verticalAlign=top;verticalLabelPosition=bottom;labelPosition=center;align=center;html=1;outlineConnect=0;fillColor=#CCCCCC;strokeColor=#6881B3;gradientColor=none;gradientDirection=north;strokeWidth=2;shape=mxgraph.networks.pc;" vertex="1" parent="-Fb17HKplbQbY4DAVAYo-10">
          <mxGeometry x="80" y="25" width="40" height="50" as="geometry" />
        </mxCell>
        <mxCell id="-Fb17HKplbQbY4DAVAYo-25" style="edgeStyle=orthogonalEdgeStyle;rounded=0;orthogonalLoop=1;jettySize=auto;html=1;exitX=1;exitY=0.5;exitDx=0;exitDy=0;" edge="1" parent="1" source="-Fb17HKplbQbY4DAVAYo-18" target="-Fb17HKplbQbY4DAVAYo-26">
          <mxGeometry relative="1" as="geometry">
            <mxPoint x="370" y="180" as="targetPoint" />
          </mxGeometry>
        </mxCell>
        <mxCell id="-Fb17HKplbQbY4DAVAYo-18" value="" style="rounded=0;whiteSpace=wrap;html=1;" vertex="1" parent="1">
          <mxGeometry x="110" y="120" width="200" height="120" as="geometry" />
        </mxCell>
        <mxCell id="-Fb17HKplbQbY4DAVAYo-19" value="" style="sketch=0;points=[[0,0,0],[0.25,0,0],[0.5,0,0],[0.75,0,0],[1,0,0],[0,1,0],[0.25,1,0],[0.5,1,0],[0.75,1,0],[1,1,0],[0,0.25,0],[0,0.5,0],[0,0.75,0],[1,0.25,0],[1,0.5,0],[1,0.75,0]];outlineConnect=0;fontColor=#232F3E;fillColor=#DD344C;strokeColor=#ffffff;dashed=0;verticalLabelPosition=bottom;verticalAlign=top;align=center;html=1;fontSize=12;fontStyle=0;aspect=fixed;shape=mxgraph.aws4.resourceIcon;resIcon=mxgraph.aws4.amplify;" vertex="1" parent="1">
          <mxGeometry x="120" y="130" width="70" height="70" as="geometry" />
        </mxCell>
        <mxCell id="-Fb17HKplbQbY4DAVAYo-20" value="Amplify" style="text;html=1;align=center;verticalAlign=middle;resizable=0;points=[];autosize=1;strokeColor=none;fillColor=none;" vertex="1" parent="1">
          <mxGeometry x="125" y="200" width="60" height="30" as="geometry" />
        </mxCell>
        <mxCell id="-Fb17HKplbQbY4DAVAYo-21" value="" style="rounded=1;whiteSpace=wrap;html=1;" vertex="1" parent="1">
          <mxGeometry x="210.01" y="130" width="80" height="95" as="geometry" />
        </mxCell>
        <mxCell id="-Fb17HKplbQbY4DAVAYo-23" value="" style="shape=image;imageAspect=0;aspect=fixed;verticalLabelPosition=bottom;verticalAlign=top;image=data:image/png,iVBORw0KGgoAAAANSUhEUgAAAPEAAADRCAMAAAAquaQNAAAAUVBMVEX///9h2vtZ2ftQ1/to2/u+7v31/P/u+v627P3C7/3L8f3g9/7z/P993/yg5/z5/f/W9P6t6v2I4vze9v5y3fuR5Pzo+f7S8/6b5vx83/yp6f22NKMxAAAOIUlEQVR4nOVd2ZqrIAweQetWlzrVLu//oMdukkCQTZ0z438x37RVJBCSEJL49RWMMuvj6I2qzofwFgGGvK4+jcd9Vi7auBfSO+OMRRPY+LEvFmq86NXG7+lCjfvh2HPQIdCxvg1uu+0RtVPjvD8u0HNPZBS9735FWRPQcpNFM21ni1Hg2Kubrk/vjtUHz5YPtZbcV9O3kNH0RhrN9upFs0/PGgO9j5ajH1jNqalXL5pPzg2fjPQ+W96c5KNNt56z4Sa4CyPnfBr2XTK+iC07FkW8sp+OtOK2zbJ4ReoIXDHBjI+s+PhD6xNb1iZl/9jmp3X8/XVVCiW0cCoYr5KXoZW2WUcpUXa2McSGM3En413WvphkSCpENA/X+faAneIdJudCWSUWKjRTGXq0Ni7omqFDFy1K03znAEk8V3/PY6X3JhVKKHceU02Dltl2lggk+Ju8or3JNDM2x4Stshb4jb7+G5K8AC1WSETv+EV30bdCM79rW7wr197okRxxEdeyJJASW8TikfXMZRdZg7GK5uymki+MtQM5ohZXb6ShIF/NXylrGxZRMnuIZFVnWJ+AFbScsCjEGDNCtCAcOolduWqBFfIlncmaykUH5nhsOYAZMV9cSCJJsUZOmGDGLKxScLkXBY4opy5aaYdGmmbeo5976dfOZrcltCPfwg0EHmfnjMilWazAb5LM4nbC9+g26KHopk7eLO9IsdBm8WceG/kH2z3Hbbql86DAFUJs2I8v5l0WvZjjiIW0xO9zEHy2wUJOBUc5qIZE4uyHlhq8OPqJb7Gy1vcMXMTDXG4rscweJU6J5505ySAx7HO2yjIQDHV2uu+A94IswR/Pbi6Ns8fS8sVkfzD7ZfdCh2lEH1wFUD/1Yn0bZOo3c3ba1TqXDnfu9mnqxfrCWvCTycRUQWz6nwS7c2buubZ8IDjRw+ki29Avgj2OqVqxKNxvdsTUZy8Dr1VJ9nJXCUHvpDG8IB7lpQlLZe/vZRmn21HciEf5HfENEsV+x83CsuZrH0EFP6qJEcGxZyuhA2+PYIoxwb4k/yKKFS8881Ivv4fiTibY04bYkGLwKI/DvatKsN8B0mE7ydWEaKeTxuZyP2ROt6MY6GNnvYIsLnRm5mx1DT9igbj6ipHxwdExhLMZInzm6ztBxCQ57sUPaFYT7BZxPfEXfon1jyW8905QET9XLlrVjh3Pnd2L/hD7Y7c9HtRLb+kMJbejjso23B9f/bwPJ0jdx2MNvdVuDgbhiVk/NsLP+wCOQGHMCvRX6w9mCQR4Ypzh5X1IkZQSGrRB0sxBwYd4YlwhvA8OmhBJLajHB0/pJZTT+uEvqYdFC6WWZG1Aq8R+nRxDLD9nuA8vdOgp6w6KNGsXnxejeWPiUNslVM5PI2IAS9sr2dAAgWLSTj0h6UR1EC5yZrcvqDdUx19f94mCynzxl2R6UEv/6L6Up9QJpo8fWg6F20kminajVz506dpZcqILS6VkzGFwkpPlnNT64OS4lNOALasPhLB2ClKZ41jkDDI3WmwqqqG9Y15EPSSlLNv2UhR5niRJlmXj3zwvikvbliUcGPOZ5d3H7gvA1VZ0NSkODXgkL5HAgW48SQ0SWwiubWKscxNPpW1xunYxl2PAbcHGO+PuespbjaAQ62p9q/oBILokKZO2Sf2g9DlxXsQCsp+TP1JeJzLh5caCCw7xFKxybLPr+UVqIKUU5Zyfr1k76fJsY8EFNvJPIXO8nDpGZ0gsSzhn3enymG5h9dnZQOEA6jPpo9WJlclOxOf13QEvgAP6zYiFZIt/N8sNsU5KWhkbLeNj3of1E6nisKb6fPXM3CE7k1nBJhL5EyyKz7eq67r+hfG/6naOo8/PHi3zc7aihhpOsY9NwfKiLYejIfvnOJRtkfs0z+PTKkQfH7NrM+qPdLsz+MbpGA0dxt10eYEE0dnS7F1U5pzgp6XQn4ryAAxRVy8F2EWNJuShLE792YZuxqsFt8rp3fDEF63Z5WMNIq+G2/ku9BFNztL0Y9EZRvy+DHdfDNM7Co86xwY2mCjno2HA1xJ7lHk9kj3flSo8+Dg3CatY9VnoO22D+eEq5VghmWYq2dEBmVluEOEg0JXnHrMA+Vr1pB2M1g8LCLnW0juuW/G/EuwPsuyoxFUjQO6M6iBOoIWr7Z4fzbkmo3+ktm6B/0rev4CjJOZ3nA0Sc5UN8E08+KutdUVDWOQ+1N90oYBJ3YuJlNka9MnzUAieREpjJpj6Nf1ao4jFbmEqTU8tF2jdtIRb4Akotnw3cyet8BJMPfm+dUTz3kGGJHQFgxqKZXEFngZwp/+ZEBDIWHjdyO/Lmq7YYJtPdCBKVKgmjfBoIt69g+nx372CUwrkIgbJVpIXkzQK+c3K9izUWxmvlRUJ2BpIRrAEnXNlIICfGw5opjK1eDRRHIfZGEBXtehBRAp70TzgXmg+BNVuoo0YkN1O3ZWp6oWbPNqNGg0ca4YJSOtpfUNuDEu9yqjVUUqSWkWhqBh2nh35QZYAM2V5qMcDiTMrtoZxK1y0s3Y/1RQ1yDIUmhmbeY6ctsFmizGoLJbbiK3hdHv78McNl34vD9nlY06QC0lBIk+bfni+JYJnylk8ILTm55DRYldcYL/CuPHSMRHcKb/vFQ+cXzJysQ1d0KxEMLsZLCagKippCHTWVktYciym2SFVTJmKVojUvVIFGZrkARNsob6rCPWg0ShRAVUPvO6m9dhdkvtgCMxnEVLCM3VA1eCBP1vobsBlDwqvChtiHLU1vVhMPg20d0UjYHNUf5S0jiqxER9YJosiEtO5HeSXoUwdWUQuwavEMKAKUCqsuo07IYItXTU1HPVuXpIaytSRUUBAG/SQoyyjfnGWgrStQYvYOoYf3FWBKSajaOe9NfQogYhdngKpYevAw3kK+C7oYJ7T2BLEbdBFTfkB+vkp1pjhYK8NlqV98AcqzoBug/Pvcu5OniFQLHKhpTS6jeAMJZP1OTYO/g1IMlqrgOXcUlyobSllfBjpfYC4j8iBc8t+gUYGWDhwvbgV+arVHlE8YnWeRM3doE6yY62EhJQvYiRd/cupurek1qNJbL1ACS91/bs6zyjigA/YeVOrsB0VZy4b7BpQC+oo3+rs828I6kCFL+dNrVwYgIwpI3ifAmmbysmd7r4kUATos24E53iEGUgMS6YS2DG1xnLh5msMEDuez4oTUfEeQX9StRpKrDR2TK1ZU5hBfMonCjb5DFdYWSAcU0nlH1ouY41mxCdNPomZSvEln+wWAJStRmqOwm4Z6/ZEcJK9nP5K5kxgNRHIs/SQJdYUkywLV7Kfg1QOJAUuOp/mzNo8kOIAc+EN2SG4vzne3zren6zeoT7ej831mdHV7er7/2ZX72/vtL/98Q59IPvzc/1hXyYkDNk3u/NX7/BMYoFzJzCLv+HcaYdnixucHx/+s/Pj/cUIKKrgT8WBaGTxL4r1mXcM2Mb67DCe62/E7MmxmbMxe3Rcpsao+xtxmV/7i7390sVXK5zxd+Kr/1YMvW0ZznxneRJfO8yF+dpfvtMDe8tpe+A/z1vU5iOvkqsp8KdyUx/wyT++0OaDJaARo7qP1s4/fqDdWY75Az9fR+CS9VZ1BBYskLqzWhFP/EA9kLN9PZDz4vVAnthZzZc30fuq6/PCzmo3vWAb17E2tiqzt8MabD9bZ6//gTp7oiTp9rUUH+t2+1qKhDNg03qZwC2wDcH7q4lqrnv7/cfq3u6vtvH+6lcLntpJjfL91aHf37sGQt4nQcYi//fvk9jfO0P2914YIap38u6f/b3faX/v8Nrfe9r29y6+/b1vcX/v1Nzfe1PFrOzl3bhCE+7l/ccBG7Xf+Y7roPeYZ/RhhrVxKbDhe8z39676Y9ijiBw1L/3SeFj3ngik+EuNZvZyzv0iipVMLz/t8psobjDJsWcr21Ec/KhBmmM/Z2TwwDsgcC+uZJs6Gx9PpNvpY6WaiBvksgORZ+B5YNUWJ0w99fE+FJQJ4m5xoTAF95sdEeJ9WM7m8vLEeCLA+1DTBFunwgL4eWL8ILwPrrku2N7CH1z73ft5YryQefLTAVtbTKqOE7tZ6WJthQVT20AtC2SFEodJjIIe6ynGnER/WPElN4CUIweXgJQO/EwlHLCJ7ZKr800nW60EcZJpz1A4mYhFL3PtiBezJvGaAijV49x/d3TOTrU0ltbsxzBs5B9sJ2zKiNnkbBHkDtpZ1jJHw2PnyouzhVW9geBCKbE2j2s6KaMf866UPMc7m40BGHQvq9wVYFrMFxdSKBtXTlMlDnALp9liGaO6JyZD8yBNMGVDy7Y270yqGVRQW9/+eAAWWJi/MpOC9hi5Gx6kdEFmsrPB6LgnJ3oBZHrPjfFFeQuPJlSmqeQL4zm7AmQJbhET8QDMHdR27fum7P31cTlyOYuI37SzBzPmPAor+sEiREuhl83up1slVpffLIK/FqDFDigqjZBeeayWX6gM2T8yZ48tUymIOSR4C2X8BupYh8XRpacy+s2dI9wFjPd41QxY9i9K0zyQu4rxKnkRnbZZR6VDsbONx3JQvPfPhKYue4dZlwlOJQyozOCBq6xQ+Ct9j65gYMt9sjZ7Ez21jr/fJrZ6grbWlgJe2W/oUqIwhwZsK830wcGS4pnCQCSUsjzahj2ONsMwW0Ru6pZiRptxssquIMvUrYzUOBuM1z5HJA1RrkZuOfoBgsee3WY7NtLry3iHuyGR/7b6YZMGpGx9kxtlQbWbMl2pDxfZvwKOlLXxUKJ9uK5sezLTeWx7owxcDdI7Qx175lIulbxQ9GrjS1ZH8EWZ9dP+sarzZbNThryekiLiPlvAyfMP4tKzfzPV1pIAAAAASUVORK5CYII=;" vertex="1" parent="1">
          <mxGeometry x="226.36" y="156.99" width="47.29" height="41.01" as="geometry" />
        </mxCell>
        <mxCell id="-Fb17HKplbQbY4DAVAYo-31" value="" style="edgeStyle=orthogonalEdgeStyle;rounded=0;orthogonalLoop=1;jettySize=auto;html=1;" edge="1" parent="1" source="-Fb17HKplbQbY4DAVAYo-26" target="-Fb17HKplbQbY4DAVAYo-29">
          <mxGeometry relative="1" as="geometry" />
        </mxCell>
        <mxCell id="-Fb17HKplbQbY4DAVAYo-26" value="" style="rounded=0;whiteSpace=wrap;html=1;" vertex="1" parent="1">
          <mxGeometry x="380" y="122.5" width="200" height="115" as="geometry" />
        </mxCell>
        <mxCell id="-Fb17HKplbQbY4DAVAYo-27" value="AWS SAM" style="text;html=1;align=center;verticalAlign=middle;resizable=0;points=[];autosize=1;strokeColor=none;fillColor=none;" vertex="1" parent="1">
          <mxGeometry x="400" y="165" width="80" height="30" as="geometry" />
        </mxCell>
        <mxCell id="-Fb17HKplbQbY4DAVAYo-28" value="Amazon API Gateway" style="sketch=0;outlineConnect=0;fontColor=#232F3E;gradientColor=none;strokeColor=#ffffff;fillColor=#232F3E;dashed=0;verticalLabelPosition=middle;verticalAlign=bottom;align=center;html=1;whiteSpace=wrap;fontSize=10;fontStyle=1;spacing=3;shape=mxgraph.aws4.productIcon;prIcon=mxgraph.aws4.api_gateway;" vertex="1" parent="1">
          <mxGeometry x="490" y="130" width="70" height="100" as="geometry" />
        </mxCell>
        <mxCell id="-Fb17HKplbQbY4DAVAYo-36" style="edgeStyle=orthogonalEdgeStyle;rounded=0;orthogonalLoop=1;jettySize=auto;html=1;" edge="1" parent="1" source="-Fb17HKplbQbY4DAVAYo-29" target="-Fb17HKplbQbY4DAVAYo-35">
          <mxGeometry relative="1" as="geometry" />
        </mxCell>
        <mxCell id="-Fb17HKplbQbY4DAVAYo-45" style="edgeStyle=orthogonalEdgeStyle;rounded=0;orthogonalLoop=1;jettySize=auto;html=1;exitX=0.75;exitY=1;exitDx=0;exitDy=0;entryX=0.5;entryY=0;entryDx=0;entryDy=0;" edge="1" parent="1" source="-Fb17HKplbQbY4DAVAYo-29" target="-Fb17HKplbQbY4DAVAYo-38">
          <mxGeometry relative="1" as="geometry" />
        </mxCell>
        <mxCell id="-Fb17HKplbQbY4DAVAYo-50" style="edgeStyle=orthogonalEdgeStyle;rounded=0;orthogonalLoop=1;jettySize=auto;html=1;exitX=1;exitY=0.5;exitDx=0;exitDy=0;" edge="1" parent="1" source="-Fb17HKplbQbY4DAVAYo-29" target="-Fb17HKplbQbY4DAVAYo-48">
          <mxGeometry relative="1" as="geometry" />
        </mxCell>
        <mxCell id="-Fb17HKplbQbY4DAVAYo-29" value="" style="rounded=0;whiteSpace=wrap;html=1;" vertex="1" parent="1">
          <mxGeometry x="420" y="270" width="120" height="70" as="geometry" />
        </mxCell>
        <mxCell id="-Fb17HKplbQbY4DAVAYo-32" value="" style="sketch=0;points=[[0,0,0],[0.25,0,0],[0.5,0,0],[0.75,0,0],[1,0,0],[0,1,0],[0.25,1,0],[0.5,1,0],[0.75,1,0],[1,1,0],[0,0.25,0],[0,0.5,0],[0,0.75,0],[1,0.25,0],[1,0.5,0],[1,0.75,0]];outlineConnect=0;fontColor=#232F3E;fillColor=#ED7100;strokeColor=#ffffff;dashed=0;verticalLabelPosition=bottom;verticalAlign=top;align=center;html=1;fontSize=12;fontStyle=0;aspect=fixed;shape=mxgraph.aws4.resourceIcon;resIcon=mxgraph.aws4.lambda;" vertex="1" parent="1">
          <mxGeometry x="430" y="280" width="34" height="34" as="geometry" />
        </mxCell>
        <mxCell id="-Fb17HKplbQbY4DAVAYo-33" value="Lambdas" style="text;html=1;align=center;verticalAlign=middle;resizable=0;points=[];autosize=1;strokeColor=none;fillColor=none;" vertex="1" parent="1">
          <mxGeometry x="414" y="310" width="70" height="30" as="geometry" />
        </mxCell>
        <mxCell id="-Fb17HKplbQbY4DAVAYo-35" value="Amazon S3" style="sketch=0;outlineConnect=0;fontColor=#232F3E;gradientColor=none;strokeColor=#ffffff;fillColor=#232F3E;dashed=0;verticalLabelPosition=middle;verticalAlign=bottom;align=center;html=1;whiteSpace=wrap;fontSize=10;fontStyle=1;spacing=3;shape=mxgraph.aws4.productIcon;prIcon=mxgraph.aws4.s3;" vertex="1" parent="1">
          <mxGeometry x="310" y="386.79" width="60" height="90" as="geometry" />
        </mxCell>
        <mxCell id="-Fb17HKplbQbY4DAVAYo-37" value="Upload files for RAG" style="text;html=1;align=center;verticalAlign=middle;resizable=0;points=[];autosize=1;strokeColor=none;fillColor=none;" vertex="1" parent="1">
          <mxGeometry x="260" y="270" width="130" height="30" as="geometry" />
        </mxCell>
        <mxCell id="-Fb17HKplbQbY4DAVAYo-38" value="" style="rounded=0;whiteSpace=wrap;html=1;" vertex="1" parent="1">
          <mxGeometry x="420" y="370" width="140" height="130" as="geometry" />
        </mxCell>
        <mxCell id="-Fb17HKplbQbY4DAVAYo-41" style="edgeStyle=orthogonalEdgeStyle;rounded=0;orthogonalLoop=1;jettySize=auto;html=1;" edge="1" parent="1" source="-Fb17HKplbQbY4DAVAYo-39" target="-Fb17HKplbQbY4DAVAYo-35">
          <mxGeometry relative="1" as="geometry" />
        </mxCell>
        <mxCell id="-Fb17HKplbQbY4DAVAYo-39" value="" style="shape=image;imageAspect=0;aspect=fixed;verticalLabelPosition=bottom;verticalAlign=top;image=data:image/png,iVBORw0KGgoAAAANSUhEUgAABXgAAAMgCAMAAACu2PqlAAADAFBMVEWET918TN95Qdfe0+u4oOf18PdwQc1zRM+QbtPNu+tsP81wQMuCVN+DT9+EUOGFUeNhNb1dM7lgM7tYM7taN7NcMbcoeulNYONdZOlYYONiZ+3s3v3v5f37/Pv++f+lid2PatuVb9///P/h0/X9/P/9//95R9p/S9x0QtCnheyee+Z8UM5qPMxyQthwP8xuQMBpPcZpPcpxSsBzPM6YeNiEUdr+/+6Jacz5/Or6/P6cgs729/R2TNL79vTIsPT17v749/x4RtByQch1PtRwPthwRsxwRsZ3S8xuQMpsPNSaeN7Pt/jUwPjMuPDBq+iIYtqDXvB3SNaOV+yNXO6QWu58R9b7+P+khOV8S9t+UduCTeeFUOWFVOWJVeeHUeeIU+WNVed5RuN/TNl5SN/czfV1S8d+StpvQtKCT9h7Sdx9R+CASuJ7StCGW951RsyDWdiQZ+SHUd6HT+KATuB7R+zn3Pagf+CZceR1QtbQwuyBTd4meua1mfDi0vzx7P78//rJuOj6/fK8o+rCo+6TXPCHUuT68P///fv///39//3x6/NzUt9zRtV7WOn59P/FseWpktvYyvN9V81oQsNxQsN0QOWGWeaLVurs4/b///r5/Pj9/vYqfOo9c+rayurz6fri2vLTwvKLZ9K7p+BqNcZlNcw5cOUsd+f///97TNV2RdN1RNFyQtNyQs+dc+mEX9F3Rcd7Wb9uPd1uPstxPtNtPsluPM9tPsXcyPu/oPV6Usl0Qt3///P///f16f+ulOF/WNPm1vv+9f+gg9nGru3//f38+fmCXsuqjOWSdsv38vlzQ8t3QtNwQ8lwQM9zSc9qPsdvQMexlOvDp/N+UNV8SsuTcdm0nONrPMNsPcdnM8NmOrtqQLtiP71lOb9oO79rOcloPMVkOMVgOblfMr9jNcNoOtBuOMxnOsplOchoOcJmOsRpPsJkOMJjN8BjMMB9SOV2Sdl6Sdd7SdmQXvN3R914R9d5R9N3RtWDTNtuQs95Q913RdmGT+2DTeN+TNM1zXIeAAAACXBIWXMAAAsTAAALEwEAmpwYAAAgAElEQVR4nOzde1yT55ovfLBWWuXw354DhyoGorLsmlkjtoyuCh27tB4HFOScEFrkjARrLVuL2GKSLra2TguG7NWqfffsBFG7ph2XFVBUolZbXbXYzrwz+53916yZvfYfCIVAQXjv+3lyeM6HEHIHvX4JpxAoHj5fr17PfV93mB0CgUAgQU0Y6R8AAoFAnrQAvBAIBBLkALwQCAQS5AC8EAgEEuQAvBAIBBLkALwQCAQS5AC8EAgEEuQAvBAIBBLkALwQCAQS5AC8EAgEEuQAvBAIBBLkALwQCAQS5AC8EAgEEuQAvBAIBBLkALwQCAQS5AC8EAgEEuQAvBAIBBLkALwQCAQS5AC8EAgEEuQAvBAIBBLkALwQCAQS5AC8EAgEEuQAvBAIBBLkALwQCAQS5AC8EAgEEuQAvBAIBBLkALwQCAQS5AC8EAgEEuQAvBAIBBLkALwQCAQS5AC8EAgEEuQAvBAIBBLkALwQCAQS5AC8EAgEEuQAvBAIBBLkALwQCAQS5AC8EAgEEuQAvBAIBBLkALwQCAQS5AC8EAgEEuQAvBAIBBLkALwQCAQS5AC8EAgEEuQAvBAIBBLkALwQCAQS5AC8EAgEEuQAvBAIBBLkALwQCAQS5AC8EAgEEuQAvBAIBBLkALwQCAQS5AC8EAgEEuQAvBAIBBLkALwQCAQS5AC8EAgEEuQAvBAIBBLkALwQCAQS5AC8EAgEEuQAvBAIBBLkALwQCAQS5AC8EAgEEuQAvBAIBBLkALwQCAQS5AC8EAgEEuQAvBAIBBLkALwQCAQS5AC8EAgEEuQAvBAIBBLkALwQCAQS5AC8EAgEEuQAvBAIBBLkALwQCAQS5AC8EAgEEuQAvBAIBBLkALwQCAQS5AC8EAgEEuQAvBAIBBLkALwQCAQS5AC8EAgEEuQAvBAIBBLkALwQCAQS5AC8EAgEEuQAvBAIBBLkALxk8/d//z//K0RZ/oto/jsV8c8TzH+XS/B/pP/6P3/zm9/8Pem/+U94AF6y+ZO/hyjNbyCByp/+5jek/+Y/4QF4yeZP/uTP+PkTzsucyJ/O+EXmJvxgqOXP50j+lPTf/Cc8AC/Z/Nmf/frXrTI31XdC+W8ze/lvMjfxT82p/C33RiR//uek/+Y/4QF4yebXv36Y+bD1YSvzzrmhJ6jMkMxtOJeTYZRc5qN54XkNUvfGBk4io6Ia8xoZL1GRDayX6Gj0pOiGqIboyIYowbcNkZwbOzEx+QK3gsKCQm8KOCmUTZFM2tq5N3xnvJFNVvuO9izmK2527NixE71kud/iF5X50Y/8LcBLNgAv2fx6ZNSVPTqWmUnf0avsmafM34wHLmGc1KNQr8RjpG7ejxSnWFds1Bejm47zCZ1MivX+pJ31Jkttdu7MYt12vvsuulPxvJ39/Pi3f0v6b/4THoCXbEpGMl28ZLNvfsTAekE37p0d6on4LvYEXjCt0vCybnyIeeH5q9TdFqMOEavXIXZ11E3vfqujP0u/UO+36Iysm05f7Ktu0bfgFrwYc0x6kc79UsQ0V1Gysqi771WWnuWufid6/F38OfSaege5yH0RzU6/sQZ4yQbgJZvS5EzXGCvYXbbCQ64hnGxssOydYtdBaet7y5dX7GYYou5K4FVX8cqHXf5G10dzwtI2BsWjKY4O3XU0py1Gn6xIWvRJ93Oo5/Gi99yKfO96bx6S6Re+zEXtHlndd+4rPSUrLnSRtxSzOxGl6I3nZafnmTvRa/xUDPFOimf6g6x3qa8SvLnLZ3/4BXjJBuAlm4eZY52dnWOcZDNuY6PuDCkJ7tZSrxTF02LgfYLu9Gq9MVBP0/LTqCRRqsIFl5UYgRjRrQW9pYBF2LZQb3B9i6pfRLIO33WFhYUt3LAEpojlRK4HXKRvb9dTnVx0d1e1dGXrfS+LltXjMkUsviEvsZlulik/8Yf4E+6GBP0xlXeZL/y6l/E8gZtgdpD+m/+EB+Alm9bWTga8o36HBa+QxoLhXmTjJE/ruQlknLo1jovcuPAqJ1g1vL60uOtb/AZ9RHUddG5hC4XkZeIrBK+8vJwraXT03ndZ4max3vW2e5mdX0reLEYHWDJeeaWRFcqPpP/mP+EBeMmmNTOE4WXWvCJRXPEqL39nAC+XYT2W1+urMLw+emcOb/sO/qoGBrm8K3EeZ2lq3c4yPhKD1+Osm16+xABvqAfgJZsQh1ei4p0L8BqNLbrZh7eIpy0b3nbqRt+p92haOfB6leUUwJIVLx9ewbtXW+oO8IZAAF6yCXF453TFG4MvuRmZvkrDKxSVFa8gvCx5s9qzmPHK68OT/ZGkuu4iFyreuReAl2xCHN65XvFyfJ0deOUr3iyaX1/R2y4Lr9KKVyW8P3pKXoCXbABesglxeD01r+CKBv/glaU3gBUvcyGZOLxS9CqreCXodVe8vqKXW/XuZBisquKl1zj4AMYfCmsrJDLASzYAL9mEPrxUwTtX4VWYGVe84vJ6it0sVrcX33YIXGnzp+Jl+SsLL/R4QyMAL9mEPLw0vmUzXscr8BB5eH1P8RveonZpej1tBk+Dwd1maM8SyGxVvO7nQcUbQgF4yWZuwKsFeP0teX3dXU+tm8Xs8YrCG8iKF+ANvQC8ZDMn4M3N9WxxCxi8EvQGDl7sqttW4QYvx2e/4KXwFaeXfWGNbveyr69x8VVe8fIBloSX9WmAl2wAXrIBeGcVXq+rlKKzBy8tr9CYyCxmr4G6e6peaXglKl7mTmI1FS8T3h8BXrIBeMkG4A0OvMJFLwdeAXqVwtsutryBYaq70dve3u7rOojyCxXv4x2Al2wA3tmEl3q+21Tj7MLbXiTcbOCZSj8otJmCJa9kxcv8BFS8czIAL9nMMXh59IY6vNEeV6lZkcLwSjUblMFbJL6DTQReGXlnqeJlLisj/Tf/CQ/ASzYA76y2GjzyUtPSjVx3Awev9KoGHrzt7bK9BpmKV/BTshWvD16oeAkH4CUbAXhVADw0xIVXMIGC19/lZKIaB6XHi1mNoeltYXQb8MgcSXh9I3NmUvOKwCt4gW0nbxebnxUvu7iFijcEA/CSDR9e1mB0RXVu4EpgcXgFzBWMcnRl+JUBWD3EVJvX6Ct7xebzMoeVqZpWpue1ebPa+WdbShW87oI2S/E6XpGKl6csPztgEDrZALxkA/DOjF51pa9RP3vw6nHNq2fbmyUwoFekEObCy0gW5yZb8SqAF06gIByAl2xoeJn0qoGX9nUuwzvTmleVu5w2r9h8Xga9yuDVU3e65uX4qrj166PX23bwo+KlsYWKN/QD8JINwBvEipc6iG0W4PVWvDx6xQpeJfDSxa6yktdb8SqFFypewgF4yYYL79hYpyp4mRfYHjt4FeCrquJt4a9rkIRXIGLo0hVvm/RsXnl4fRfY/K14qVMofI9AxRuiAXjJBuANHryUvEafvqLzeVXDS6uL+G1X2m1QAK9QrSt5ye1dz2R0BfBCxUs4AC/ZeOD1YasWXlGPAwovV16xAb2K4eUw7C+9quANwIBeIXJ1vk5vm/xZQDLwMg32r+L1vC956jBUvIQD8JINwDv34fVVvKjkVdhsUOKu2orXyy1UvKEfgJdsWls7O9n0hii8nA0UYjsq/IFXBt9gwis7oFe44mU9TMEqx6+SitePfRRQ8c6VALxkA/DOfXi919f07tW8CuhV6K5/Fa+v6oWKN1QD8JINE16aXFl4lV5zCzy8DGnFxpX5C68Avb6HAgavj1+3o3x4mT4rgJd6CJe8bayHZUten64yCqssejkEi/oLFS/hALxkA/CShFeg4vUHXvcVNj29ltfdbigSGxSpEl4FBW8W11uvueINB4CXbABesuHCy1lcJgKvwp0Vcx1e1oMBhhepyh8TyRvQqwRenafJyyh6ZY4e5sA7GzUvVLyhHYCXbABeQvCi6MUG9KqF113x0q1e7wW2ItHh6CrhlW/x8kejQ8Ub4gF4ycZfeBXOzwk0vF5pxQb0Bhhe5sOBgpcW1ag36sUqXolmgxC8OrriZS9ukHaXC68UvX5Uu+960IWKN1QD8JLNnIPXre2chxfLa+Q1ev2F11Px+j7frqrVIAmvsoqX2eh917t9WPRgCoCXbABespGBlxtF2goCzNJWKcTD4vIqjSzBHlvF/JXpNTABViwxNbXBiMpeBryFYnMiWegKXG9zV7y6oiKhxWYS+NLaSsDrVpVb9iqsgRlNBqbJUPGGRABeshGG1xuXy8Va5qAeXt/DM4KXWwEHDl52gesvvOpLYHwsBdXn1QUAXk+5K0AvW1r26AY18PpqWt/HYgR7u7yi8O4EeMkG4CUbGXgxvSrgFRkTyfM1dOD1SSvec1BFr6qmg86oZ/QaxCajM0eji8GrEyx35Upe2VaDF15Wzaus8fuudz4vVLyhF4CXbABeovDqmGcPzwTeIs/VNZ6/bGp3BAxe6U1snopXDF6oeAkH4CUbWXjZTV9ZeCllH1d4leirCl6q4BUbDinQbBBLkU685J1RxUt5y4WX2/OVtncnVLyhGICXbABekvDi8y8RvHL0ysMrUfLOFryKTsN0X2CDijfkAvCSTeDhFdOYKezM4Q3knEgOvEGcE9mipN5VQO8sVrx4ORmn2aCw4mVNK3uXs5cCKl7CAXjJBuAlCm8LtXl45vD6Kl6ZHq8f8DKLX78qXqGtFFDxEg7ASzZ8eM+cORN4eDn4BgJeoTmR/sFLWyuo8azDK4MuY/uwNLwSJa/EgF518Iqe/w4V79wLwEs2AC9ZeKmCV1xfxfAqWNcgQO9M4IWKd04H4CUbQXjP8PCVhFexx1xvZwyvj1rRHW0K4RW0mB3GQ4GveHXC3V6vzzL4Sla8NL5CJa8gvDIIq6h4hQSGijc0AvCSDcBLFl42qf7Cy6x4hfmlS17eCcQzgFeq4s3igQsVb4gF4CUbgJckvL4dE1THQe5ECil4ZUpe4WYDVLxPbABesgkMvArpnfPwyg4r8x9eHTUxRwZeMXqLJFfy+vq8CiteBR1f6fPXsvjqQsUbWgF4ySZQ8Ko6DmgW4fVzTqRieGWrXpXw0vTq6DGR/AG9nifKwcuoeNXMbJgBvNLhfR4q3hALwEs2ovCy6Q0MvKL0+g+vx9ngwxuIAb2MgWR4UBn/SAql8PoqXlF6VcErS69sxZvFcRcq3tAKwEs2ra1cZ+Xh5TIrAS93+7C/8HIR5o7nFZ/SG9LwxjDn4hh1Rqa5OvQ5nUdeQXh9I3OYF9bEG70zh3cnbxcbVLxzNAAv2bR2qYY3AAN6mQZjU2Ul9jwmVgEHcniDR1dhfqNk4PUXYje+KAx4CwVX+LK4lV7mwIZX+uBhvskiDQb5ipcXbsW7E+AlHICXbHzweqQFeInAS+vLhFenCyS8enRvxzeRilctvOz6Vu5sIG7FC/CSDsBLNgrhZUqrBl6RAb1zCN6Z0us3vJS8Inva+M2GNs9dVyQMr7vobdNzat4dauBlDuhVVfEyCQZ4QyEAL9kAvKEMr9jsMj68MhUvrneL9G3cire9XazgVQCvu9hVWfECvKERgJdsWruWLVMF79iY/DIHrrCPLbwK8FUFbwwXXmF3xTZSFLnrXbGKV1+kvMsrAq/vApu/FS89GR3gJRyAl2wA3scDXp+51FshdHHV28Yref2H11PyKjn/nV31ArzkA/CSDYYXx6etCLw+a9XCK+qxCng9EYdX6XxexfByGPaXXnXwikArR28Rs9Er1eOla94Zwcsg2M+Kdyc+kgLgJRuAl2wA3scBXre6vnf45LZRbd4i6cHoKuFVWfEyO71Q8RIOwEs2Hnh99IrC69E2ROEVms/r946KKDLzeeXh9T1FEF2xi2t0udtG9RsCVvFm+V3x7oSda6QD8JINwPs4wMvr9Ap3GdyhZZXxVxm8Kiteb5MXKl7SAXjJxgcvj14+vG5x5eBVes0t8PAypJ3ZuDI+vAL0Bn5MJINfN6V8eJk+M66m+cpe9sU15gd6usfrxldaXp+uMgr7U/HCrAbiAXjJBuANKXhpWVXCK9Dq5cPLKYIpd4va2wIAr4KKlz8YHSpewgF4yaa166w6eDlX2kTgVbizQjG8Hl9FBSYDL+vBQMDLmJkj1mpgwuumt03H2LRGvcuCl2Wu3ttuUFHxys5GV1nx7gR4SQfgJRuAN2ThNbYYjcrgZTV5+RWv+yOWv3SXV2JtmRp4FVS83CmRAC/hALxk09q17OzZs4L0zgxehfNzAg2vwIDeWYU3sGMiW6gBve7+ghGfSSEMr1CX17tpjQ+vYLtBst7lj4mUoldtxbsT1vESD8BLNgBvqMKL3EUVL7fNKwAvU902wYpX5z6jgiVvAOFVVPFmseCFipdwAF6yYV5c4+DrMVYQYia8KhaWuV0VApilLQ9iL7q+j0XllZqLzo8yhqMEBqFzI3GJzQ2wQonpVWPGFvagnMLCQuEWsK/RUCQ7NYdFr7LJDfKlruqqF1Y1EA/ASzbk4fU9PCN4hRxmASsGsSJ0Zw6vXyUw0lfvlVcEXl2hInh1RexjiAXn87ZnCYwrUwovo6zlfsxvNUDFSzgAL9lIwMudmiPabFC1mUICXga9fHg5n5FYWRZYeH3SivccVNmrCl58Epuv2SBW8RbqfBsnxCteofPY+PN5+fJK9RiyvPCyal65ChgqXuIBeMkG4A1tePXMQ99F4G1h+ipR8TLYFZ3Pq67ilYQXKt5QDsBLNnx4ec0GGXh9UQQvpax6eLmfEb7ERhxeBfiqgTcGL2ww6jzrHHRiy3x1Yt5KV7xUu2EmPV63t1x4ZXu+UPESD8BLNgBvaMNLRVhbTpdX2l6BHq9eyeKGGcALFW8oB+AlGyF4WfqKwsucE6mSXmGNmcKKwyuyzmwW4eWsapgpvargpVwVWM7Lo1fsUApGxctfyqtXNJ9XBl68mIzZd4CKd04E4CUbgDe04dW1eBsN4uxSbV7eaEgOvDpmxUu9o2/DgyJla15ZeJnFL1S8cyQAL9mIwsufE+ldXsall7/AbMb4hha8tLWCGgej4pWS1/OUFtGD2EQrXkpdBe0G5fCKnv8OFW/IBeAlG4A3tOGVq3cpeAvRXSdzhU2o4i1SdBaQv/BCxRvKAXjJBuANHLxKpkSqrngRqDp3M0GI4BlUvEXMUWVQ8T5hAXjJRgJeLr28Hq8HXG7PlyeqmgUPUmGA6/sgSPAKWsyBN/ADepmdXJ0QvZ5n6XDNWygFr6fi9axw8Fa8cvjydJVd2gsVb+gH4CUbgDe04S1kwys8razF/TSdeNXrq3h1rDav50SKWYAXKt5QDsBLNnx4xYaVSU8rk4FX3SgHOXhzc4fZDocGvJwBvYGA17djAqMqMiayhS55dYUSDYcib53rq3+L/K54lawxg4o3pAPwks1chDf3SYK3sNCzbQ3PbdCLVLw6qubViTd6PQ1e/mGY/lS8ihb3QsUbygF4yUYQXuFDKWTh9dArCG8g6OXAK0UvMXgDO6DXN5FMZ9TjSWUiFS9d82J9xeH1HEThq4BZW9kUnEXBgFfBhjaoeEM5AC/Z7N6tGl4Jid3CcpkNMLzD3mUPMvAy5/KKzuf1MKreYf/gVUUvaxKk0Whkw1uIIPbJW0jvtpCseL1TdIpEEzB4oeIN5QC8ZLP7p7Oc3oLoJTZJeJltBtljiHnQShrsc1bYYMllZSyJBeEVjSy6IvzKwutH5UvxStvrO4iN0Ydgb7Ngait6mU2RvELzeeUH9PIqXo7E7+qzoOIlHICXbADeOQMvhS8TXp3ODS/d4W3xntYWOHiRuzv8hZcRrsRw5hrxALxkQ8PLpFcUXu60Mk6rwSetGnhpX2cOryy9swavv/QGAl6dt+LVUewW8mtelrnq4VVZ8dLgut/ztXi5EkOPl3gAXrIBeOc0vDp3xet+pePXvDOseFHBq/5ICl6Xl1vxZr2bBfCSDcBLNlx4BaMKXveGChU7iAMDrwy+ZOCVwNcveGO48Lq7vdQiXsaVN8Hra37BKxBJeD0bKATgZVS80OMlHYCXbADexwFeHa1vi6/zIJwiovAymg9Q8ZIOwEs2Hnhl6GXhK7aczF94RT1WDa8EvQLremcIL4dhtfRiRtXz2yIQ9wJeVskrv3l41uDl9B2g4g3JALxkA/DOfXg9vV0WveRaDXx3+RWvHlY1EA7ASzY+eBXTK7uBYq7AK9N9UAGvDL4S8KptOgi6S28XLqTe8T1FhF5ZeN30igOsvOIVW18GqxqIB+AlG4D3MYCXVpcueKXgVVbxemteMXpVuyswJxJ6vIQD8JINE17FF9lE4XWLKwev0mtuKuBlPKIKXgl6VcIruIVYgl4fvP41HNyOtjBWk+HKl+0zi9w2pfDS+Coe3iBjMVS8oRiAl2wA3rkPL72awT2qQQJexRWvu+otahc+FshfeKHHG0IBeMmGC68AvWJjIqXHlUm2GhTvrFABL+uxUIFXYmSOf/D6RuageBaW+XZRcCteAXpVVbyCVS+PVkX9B6h4QyoAL9kAvHMMXra8HnqpkpfaNhw4eOl6V4BeP+FljYmEHi/hALxkowheEXpnBq/C+Tkq4JWkVxReUXpl4aWfgZ7IM1YQXo69THhF6UUVLPocVcdiRaPpOZE6D7t6o7fkLXS/ZXYjZgKvu+ZV0mpQPycSKl7iAXjJBuD1H15qhi9lr/sx0adGifIrl5gWeuaue+R5CxtePKBX56bXvY0ikPCqqXjl4WVWvNDjJR2Al2z48LLwxb6KXmJTDC/P2UwqEtpyH2JCLCyxHLys0ei5gTiiIiomOjc72xBWX56dPVxRWVIyMclOcvIEJ6UyqUhORnf0ZaWVlVVVlaUTE5WPsrIeTTUa9br6cW1Be3shJrjFWwKzUthSyO5E8PDFngovMhP0WOTimrzE3DKX80DWu+/uaCf9N/8JD8BLNuThzUaRhJdbAfsJr5DDM4FXG1UYOeTKLq+vn66uNkQiodpqVKSNuvEexImMjKxpw6mJrKjMb9/xaEpbr9fXG4bzd2TpmE2JFiM1rkznbjgUFgYYXn07unHwFRqNrhLerJ3v7mxvI/03/wkPwEs2wvCelZoTyWs2iBDso5fXdmDCO5Y9ls3zdebwytE784pXa3A4DGExLfXTtdV1e84tn4Ws2NMQXpX/KL/KiOAdH6561N4Sw0qLzsuujqZXCF6GvSrg1RcVtenbeDWvygG9AG9oBuAlG/LwsiveOQSvobraEVVYVNDgSDm/6f53m7cEOpu3blu+Z8CVW1Bc0NKC5C2rKi7iwouHlRm98LYEEl5MLy55OfSqHNAL8IZmAF6ykYVXKDx42Y2HMTa8viiqeClhAwGvNL4BgPdBykB0cf5guGH7pgObD8bGCeRtzk34Ob4X1lNOnHjtuxXnX3fFFBcXRGF4G4uLuasefMdfKoNXNIIVr75IwcwcuctqAG8oBuAlG/LwciveOQNveUpKeXT+YEl4zYoDW2KPmKxWs5UVs5n7u23mxP0Y88X7CbOlw/bexS9XXUqJLG4vaGzR14+PGzkFL5a3hdFqEI8f8NL66gHexzIAL9mIwqtiTiT3YtsYt9nAW1wmXfGKxB94xekNALzl5amNgyXdkecod3tW93Dk5TIrH/YXWns7Lm+58kIfgje/0kjBK7DQV2n8qHjRrU1JySsNL6/zAPCGQABespkNeHldXkl4+RXvHIF3PDU1tXKie7Jm+ear15C7L65usjQFNvEJsYeeWxxZjC+v6err6408eWcRXk+/QX5JGcA79wLwks1swHtGDt7Mx6LibUxNbawsrRhYcuDi5URz7+rVzZYZB1lLxfOx/cjSw5vqph49mjLWBxVe/LG+TU+9DxXvYxiAl2wk4FU9oJcHL2tALwPfzMei4kWfqqoKz6vb9M5BBK+1qSNeM9MkJXnfdf/55MRt3jUQ/uhRsXEcwcvfWizrrdQmNrmK1315TZZegHfuBeAlG/LwztmKV6utHKwKTz1/vT/2SKLZkpaWxHU0UW3sdsZX2hPtTuuNIxd3DYzkP3pkHE+tN05Fx3DXk80KvHjVmdvcIl+vQfGAXoA39APwko0kvLL40uByjyHmdXq5rYcxTsU7qmo+rzJ4fR/MWquhCiV84OZf98deS7QnJaUl8R1VGSeKyeRE79Ffb7KtuXbw1truR4+yjOWp9TFTU1x4ff7SfgrBG6MEX4a6vvf1Pn1Fh0QKwCtBMcAbIgF4ySYE4B2dq/BGTU1VVQxc+uv+yxS8SUlOTlSvajCZrCar1WQ2019vNzV74dWlInjz8yXgxTe+vH7Cq8NVr77N0+Z1txtELrQBvHMvAC/ZyMLLp/csd1gZp+0gqK9cxatiPq9SeJkfzgq8YVFTVaWOS1/1X04wY3gtYsvD/IgpPj7eZLY2rzlycdfaCQxvfWpkviS8KEa9kSsvryWhAF5246HdB6/yIynE6AV4QyQAL9mEALyjcxTe8YHy6IL8vJRVCF5EZZPF4tv84HesJpOTfoNitth+ieB1lDx6VNxSn5qX/+hRAX8prxdexK6eV/L6C6+OLnqLOBWvojmRAG/oB+AlG//gZdPLu9QmS69Qxat4Pq9yeKXoDcSW4enookeFfateunytt6fH1mRJmnHwErIk9MeSRH8vs/XGui3L8wYRuPU0vKIFr1teMXhVHD7M/Jhd+qqpeEXoBXhDJAAv2cwKvOIAC8CLow5e8aiFlzkKXXQkuii81dNhLcWFkZteQhVvrw3DixeEWWy9vVYzqnqt+LXamK3oG8WnJVHfKslujr+9ZXkDgneqPjU1ShreFhpeHW71BgJeuuLl0qusxysDL3qBebxkA/CSzU/y8Ao7y7vExlhOJgQvawsFF1oWxEIDeiUlFqyAlS4rYyksCK+YxNpcQ3lYVVXkipfibljNqFR1JiZoNGm21atX9zoT7daeHrPqP45Ea8/qF5s70vF6Mnx1zZz2y493DQ4WFBjDUiML8vIaXtIAACAASURBVAsKBN31ympEdwpfStgWsfm8LUxtJSHmLO8VOHhY3Xxe34BegJdsAF6yCUF4x3DXN7jwevBVBW9juLa8vNIDL6pOaXibelY33zhy5Nq1GzduJOS4k5CQhpLDSdoNTo4eOYLcbu5I0yQ6TSaTM8lOwVtiNLaElUcWFE9NScBL64vKXl1LQODV0ct5GWvL6MnoLGMFhkTKw5uFp+aQ/pv/hAfgJRuF8LLoFYOXPa2M12pg0MsZ3cCreNEjbF9nDq8sverhRRXvuA9evAYsMTEpyWI1pV+Ojb18OS7uE7m8x8mJ2LijpqYmVDsnmqwmUzwTXlTxFiiB11vx4iiYzysir6/zwCl62/SyR1JIwOsb0Ev6b/4THoCXbEIR3rE5Ci/e+pCUlJb2yclT/e98993hw/3cvMROf/82T/Bnjx1757vNB98+qsE7MUy9vTaTanhbjDrkrjEQ8Oq8Cxu89S5e2NvOmxOpqtUA8IZIAF6yUQ2vYFTBy4h4xcsRNhDwyuA7c3jNGN60tLdPHnp/1enFp194YfEetdl0pX9pXE6aRkPBa/Gn4qUiwi0fXtEIV7x6RSdgSsLrGdBL+m/+Ex6Al2xCEV7e7IY5Aq/VasIF79sffLrq+E+7f/q7D7u6feEeOEzlI066Hd//8MEJD7y96uFtaaEK3kDAy6l43fuH9W38khfgnYMBeMlGMbwqxkSKDuj1eMu91iZX8YrED3gl7BVY16sKXrwS7AaeL5a+tH9FTengYN6AAWWcvtEp07Lu2qr8/Kqqqil38qcmMhcf+CBOk2RPdFqtGN4kPypefGlNXl7FYyI5PV4lA3pl4MX2AryEA/CSTSjCq3BaWQjCixfg2jVXX1reVrJ3b35LfWpYKp16OmHs1BupeClsqUzec+DgOrvdbKd2G6elqYXX840URL7XwKl42zxTImda8WbBqgbyAXjJRgW8qsdEim+g4F5tC9GKV6T7INlqsGB4V9R0l5Row6ZkEx0dbWSkKurcl1eP2s00vBb18MbQw3Kk6FU8JlJgKS+emaPgAEwFFa8e4CUbgJdsQhHekKl4VcJrxrsomiyaN/r31c+bmJgupwZHUnH3ErhpHB9vjGKksf7cO1fTrb303IckfyteyZJXIbz0Gl82u741ZVDxzvUAvGSjCl5ZfGXhdXvL7T1wK94xVXMiFcHLeEQVvAL0iq/jtcR3NDV1nDy2r2aiUlteV877Ek7yytkpK3/z8FPvNTc3x2ssTmeSxp+Kl9VLEDCY/TwFFa+ONaDXy68KePkPQcVLOgAv2YQivKNzFd7EtI6OZhsFb2XVeF3fADfIYtadG0f5pvlPvffii83xafjsn0T1y8n4Y8j8hNdX8TLgZYzn9YyJbPMHXqh4iQfgJRvV8ArQyx0TKQOvwNU2Xo93TAm9KuFlPTY78GrSmmw0vKWV2oHjKT5yMcJ95ampiNtUz708NaoBJ6ohMgrfGqIa61egiren2ZbmOXRNdcXr2zJB8cmbz8uBV2JoDqPiFTqSTU2rgfcgrGogHYCXbEIRXrUDekMH3qQkCt7+FW0lg5UDKQPl5QPUzZ1UTsKipyh5G6aiqdvUlG7FOyef7m1qwseu2Z1O8wzhFZjPqxReVsWrY49sYMGrYD4vD16oeIkH4CWbwMArQq8svB56BStexXMiFcMrSa8ovDx6JSrepKamJryOd8fevYN5A+MNDdQTUVFLJZq3qoFmF5nbEI1vVQXn3ln6tNVi0SQkJDpNVisHXu90smg6gvB66dVJHUnhazZ49wyzIPYtZ2BArLDmFYSX+zDpv/lPeABesglFeEfnMLwWDO9LGN69eeUN+fnUWgavs5xFDVP09/GtaqiaOnd46dNmSxKCN8Fk7eXCO8XVln/cOwNefCKFWKtBqMtLaVpczCl4Aw4vequHebykA/CSzU8/LaAiSGwEzjJJfbGvopfYFLUZMKGKnGVpy32ICbGgxFyI+c2GMoHw2gzMIHgNNLzpCN4ks8lkwUdIUDvXSvbm55U3yi3jjWKlEcH75vylt8241YDnk1ktFLxVlcaCgqi8hoKC6EZDXlQMtrWwuLiouBAVykZOmMYaMbxGdiWr44JrjI7BqBY/evToxx9/RK+LxVsPAvTK72MT8Hinvr2I9N/8JzwAL9nIwxsR8vByK2A/4RVymFcC8+ANZ8Jrwuf15Fzt31c3WTU1MDAexS5oo7gVLjdVMQjedASvxW53mq3uWQ3hGN7oRgRvlGFgIC+SchcJWVjYIAkvHouO7aWjpwtgTgWsa4mOitYV6T3w/qgcXrx5WF/EHVcmNBidAy9+B47+IRyAl2z8hddDryS8kvTy4VWzhmzm8MrRO1N4GwIP71RUWGRkJF4KMRWD28PoK6YK5GIslk50Q3SLTo9TX19vRLcW4UGRAgUvppd/KIXgbHROB0IP8BIOwEs2kvDS9ErCi5n1D14mvSrgHRUf0Bta8HorXoa0nu6w3/DWt7VFNmq1jQ0NjWVlhvLU+hjebjhuiumbN/mF+b57cX5+TDTuNej1NTV1xy8dv3nzfL0SeL07KVDFq7TXwCh4oeIlHYCXbGTgxfTKwCsYVfD6ogze0QDBK41vCMJbEDUeRn95dEyLERWoqanR+AJbJOOlsBD3gH0vMS0tBUaqp1CMb7pCblC9itNWGJk6MDBQd75GuNMgXPHqi9pwp4FDL1S8oR+Al2wA3jkFb5krWxuNFyRQzQFdfWpYZHQkvntfYrg3dktXR5/E5k1kIe4WFD9yl8eFWFHlPV7qtcJ6FyrekArASzYA75yCd7xsPBoVr1GNUUYkoXHc0BjNTUw90tb3gm710fX1Le6bDi8n837UUl8Yg4dWRsdM5ec/evS3O3aIXlsTrHipSZFq4aVSBPCSDcBLNrLwSkSSXia+ogh7wOXO5/Uv/sArPa1shvAaGtnSMsbj+AVvTFSYERetMVWVlZV44llVVQP3W/AgdnNsxGt3jcYW7rrf6OkHKeWp9ZHRhe07fvxxR3FVQ4zii2ueXWwq4YVVDSEQgJdsggIv/T7AO3N4o3XFLXipQn4+QhcXqTGN42FKUu9JNMfp+vHxsHpjTHRDDJI3q6jeYFABr/s8IPUVL/R4SQfgJZuZwKuYXs97Hm/PcOnltB4eP3hpaxsbOQ+oh7e4ABW6BZgxpO+jHTt1YakiwipN+7vvZrU/Kp5qiI6mLtelikxv4Iirc6PLqHkVjumFHm8oBOAlG4B3TsEbVVCMBzZER0dHRkU14OtpU9yegsQAHdaWYfee44Ksd9vx9yyMjGzUjkcXZWUVCcsrUvG2MU8DkqYXKt4QCsBLNnx41SqsgF7f+yIX2XiX27imqprPqwxe30NBglcgquFtnMovLtKFOapT+uq2b99+vq9mx0zz7rt7ampq8NnyNZHRxT/++GN7jAy8nkEOvlPY3FWvTMkLFW8IBeAlG4B3bsFbld/e3laXcvz897vuz5//w5X5X84077zzzuHDh9/57ssDy8/twYvDZJeTcapfxpxI3i42qHhDNQAv2QjCq7LxwNX2LGdYmXtgr4J5ZRLwqpjPqxRe5oNzBd7B/MK2mrqbz1yfv/lgbFxcbNwnM83ly/jVustxV7d8t/zNuurs6CJBepnwes4gZoWueCWqXqh4QygAL9kAvHMK3qn8/IbUusX7fuhfGncNn0RspmK3028873DC+hPnfdKJH0TfKuHy1c3zN51Pkd0yzOn4cipecXphHW8IBeAlG2F41dkrAC+bXs/Hys+kEIJX8Xxe5fBK0RuC8EZHFTwqHp7uW/Hlxdj0HE3P6hdX25JmGg0eItyMz3nLORp38Z3rp2sKBK+useH11Lysqrdd0l1YxxtKAXjJJijw+t538yq+sS0g8ArFP3iZc3l5EufmlhsqELz91CD0QMDbIAgvNY83Og/DW/wof3/f9/O3XE5ERWrP6tWrbRaUNByLO1LI8j6NP9RYELwoVrM94fLFbdf35AtuXuPD6/6I326AHm/oB+AlGw+8vqgQVwBfoTGR/A3EQvCyugwqlpXRgIo8zHVWQmKxZWVshVnwDpcbkivyNlHwIinZ8FaJwuuDlvdxNIbX3hRvseOTf2h4l1MnUESmRhbEoIp3sHv7+2+dvJ1gt/ZaTVZrE5WOjg78xtbba7XIBVW4FMHU63g8ut2cpEmLjzeZEbxH3vj4CobXNyld9FQ2gYoXy8u9usabz0tXvNBqIByAl2wAXkXwCvYevPCemGV4B91H/9DwLtl28r0mjbO3x4QItaDq2ELBazFZe202k9PulAx1jKbdnohf2Z0a3N412zU5OYlOBG9iwtMnP31TKbzcipeeis6dE5nVvoNX9+r1AC/hALxkEyh4WfSKwSvTamDQq2orhQS8Pl/lew9y9AYMXh+1vI/l4DUW55e8eezk05YkZ29vPIKXulZGVbJOZ6JTk6ZJlAkyln4OPl0okTphyGLHGlMX4RJvn9imEF4du+J1X2Jr07fJDImEi2shEYCXbADeuQZv/oqtJ9LRfw3Di56AAHX/USJGExIS8E8hmRs3OA/YMLxJVOWLS96t5wbVVrw6D72empdzIgUfXqh4SQfgJZvAwysYVfAyogherGwg4JXRlyi8RuqU4Sijcapw+alP4il4catBk0BXsHZ0wzH19kimF1+RYz1is1lxyWxG8KJfhCZ987nBAr96vPTmYYGSF+ANwQC8ZAPwzil4w+qjELy3480UvE4Mb8K1hES6e+tE1S+C1yYVCl6mvM0eeK1Wq8mJ5N2iGF5Pxcvq8uITMOXXNsCqBtIBeMkmcPCqGBMpupzM4y33WptfYQurFF4VU3P8h5c/J1IZvNHj4+ORHnh7TPakJKrOdTpxB+FGmkaTlhYv12qIj++IN1nRF6TjN+i1FcNrsuJLc/GJ9gTF8OoElzVQzV6oeEM+AC/ZALxzC95yA4L36RteePFVNVyt2mzNHfHUgl4N4lfipqGeg0rltJw09Dr9KAPe5huJiTlqK15fk9c3q0xKXqh4QyIAL9kEEl7F9HKvtfHpFVhhNkN8QwxeGlvuAxx4zUn2HGod7xQFb0xB1Hh5eeStU093WJMoeO30SjIrVa7abE22jngFe9XS6NfUmzRU8ZrNmngPvJr0rX5WvDpPuesteYX5hYo3JALwkg3AO4fgnaLhfQvBq3HD27FmDYYXu9mL8W2S3rrm3qzG2MqWZsHreGl4babEhNuK4RVq8nqKXjeyQvRCxRsSAXjJJrDwyuIrC6/bW27vgSeqmoMxhcP1lvFQkODlRysBb3kUhjc1tebWW++twfD2uiveJnoKjnsWjtCQHNGROWbqkprFnqShLq5ZTYlOxfD6ljXovAN6i5gDekVKXqh4QyIAL9kAvHMK3rD6+rblp57usHjhbbIkaY5+Ehd3+fK6devefvtpBbmNn/j2uttPv/fee0/fuBHvhRePKlNR8XoKXZ3w8RR0ycvDFyrekAjASzaBh1eAXs6YSDl4Ba62CcCrakexMniZj4UYvNGp5ZEUvMY26uIa3rlmSrRbOppNOeveOHVo69bNW7ceOnbo0KFnpYOfsHXr1v6t+OnHnv3g6icdFrtdo3GaKXg1aipeT5/BV/96+rweeAXGlUHFGxIBeMkG4J2L8KbRGygwvGtMR2K3/nB9367lu1ZsWrXq+r59KyTv+zbt24WeuWnFrl37Vq167sDmq2usGF67Wnh90rJbvqyKV0BeqHhDIgAv2QQJXhF6ZeH10CsIL/th9yaKIc5mCprTWYB3nAS8UdTOtXVp3p1rlnjnkYPvXD99vmbnu/qamu179Hp0l0hNHT5fjTplbfv580uWf3dwTRP+i5DojMe/CM1RdRVvkafiFRpXJniBDSrekAjASzaPD7xqa14heFkPC8JL20v5m0sA3sYwDrz2RDuCd0mKqyr/UX7VVGFxPkpBgei9uKqiUddePFVVVawbn56uOfflRTe8phsm9ItQW/HqvCWvwLgyieVkUPESDsBLNgsXLlrEBpcLcUDmRHI05sIrCDG9rIzWVdBZ3wNjo8nJ+8eGEIWuiDu1GRkuQ9lwcrZHaNfY12Nj2WKhrS0r835IJ3u4jBNteHhFcvLkvOyybFd2dDR6nwmvRoPgdXLgdRfHCshlbKA4ardYnImsebxT0dGpA3kx0VHjYY0YXveWYWqyrvnIwS/fNMyrmpqaGkSv8qvy0X3Km3x2pqoqG2MK0FOqoo1TVRUt5748eBtPXXdaTPEWp91uouBt8R4G77a3xcetwIlsQpfWGEsbhFoNUPESDsBLNgsXfvPNokUY31mFV2Rxgyy8Hm5lClwE78T+/cNa7XDGnZdrazOqMbwo2fNQvqbCA9flYn5kMPCeYOAkNzy8dKS7e3J4PPuOK6awYnIyQPBy5vFy4d2F4Y0qH0iNRvCOY3ifdsObaMfw3r763bmpSmN9fXTBVENUdAwn0awbTn19QXEBel38aLDw3HdL0812u8VkbbIggO2mNc9ieKOjMbxY35nB207NK+PbC/CSDsBLNh54FwUaXg+9kvB6qFUIryi9Y6OT+/d3DucOD3V2DhlQRer6+m/W75+cmJicnDdv//79kyj7Ofn6a/oFfy55Ui7zRkdbWx+GD+bnFxe3GJZl5DWM7h8NMXjrBeFlKxwdUxATieAtjklVBa+HXg68YhfWqFCLeoVXlAG8pAPwko0PXg+wAYYXK+sfvEx65fawjXV2dXaODiGBKxpiGipGu+52de1PrggPD6fas3kNDbncHm8miqepi5/D7fnyerz3XlkbWVjYvmNHe6Mrw+FwjQUKXs50Mn/gbRCvePnxp+Jl1rxqWg14Vpm+je3ujnaAl3gAXrJ5bOA90+lyjXWOVeAW58j+uwvurV2bV1eDUofieSuUmrqa7TXUEyRvNXUpr6Pv2TrSkD/VmO1yDDiQ2YY5CG9hdMDgLZKCl56LXsRjFyrekAjASzZBgFcwquD1RbzL63K5Ms50TpYODpaOPMxc2/fCM898v2nTvn2bNq1ahd/ONLv2ff/C+fOXfvX7u6iSLjMYypG8cxLeGKrV4D+8nGJXruJF/PJXNsCZa8QD8JKNF95FcxnesdGhIYerNqIzubKke/3utXV7dn167NihZ9966y16v9ZbAcihbYev7Du/4Zu7kxXhjVpHdUbmXIQ3eqYVr5C+Yj1ePDFHz19VBhUv+QC8ZLNw47ffLmKVvAGDV8WAXtF1vR5wZSaVjY3m5joy7iwYqwgfefVn3/QtWb75xC9v374R0KQfuXx18/3Fx+8NV4RXal137ozlBmU5mUp45eQtiPSv4hWgV7LV4Ok3UI1eqHhDLQAv2Tw28FYMdSJ4w8OTF/7dpe/vb441scZwzTzUdztydfNzL2xwJJdWTmkzUMU7F+H19+KacM0r3mrQedjV8+CFipd8AF6yWbhx47cbURZ5lQ0gvKoH9Hq8PcOll9N64MObPDI5tuyOSxs++srrL9zaGnstgToUx/PLpA8zlwj1FHa4T7H2mq5dvvjDV8cHJrtLiosbHcNDgWo1ePQNCLw4ks0GlRVvi2czBZ/eNtmKt02w5oWKl3gAXrJ5PODNHJ1cOTl65o6rbMi14eb1/qvX7HanxWmK9x00Fu+UCxde7ud7Vq/uTbj87Psv9I12lzwqjipLnpvwqq14JeCVajUwznznLeWFipd4AF6y8cDrlfduQOGVxVcYXl7DgXe5jVvyrlyZPJRRmzE0lpFy+sqWuBtmq7WpqYk6V5c+msFmnVks1tUvvrjalLB0/qrzmRjexuHkgF1c80QbKHgl6FXf46W/TgJfnrnCFDMq3iyAl3AAXrJ5XODdvzJ5uLo2I3vZmYHv5x88auu1WproYDWbZuyuG16rPW7rvvOdpYP5U2VDcxNe9T1eKXgFe7zUIzr3kRR67oDeIujxhkAAXrIJArx8es+KDegVgZd/sY3XbJicHHagije7q8ux5PDB2809TrPZbLFY3MfdeN9hx8KI3IE5Zlvz6h4E75bnbkaUDg5WlQ0FbudaUOFV2+PlwCu0uoEHr++xNiwup+Itgh4v8QC8ZPO4wJucPFT9WW22duXK3De/vJqO4GX9MkWWOCQm+W6yv1XU8WaJly/euvlN+GBlhcExFGR4YwIBb3ThDCte5fDqfCcPM+EtatdDxUs8AC/ZeOHduOj5oMErOqBXFl4vvdxVDRW5rtrPPiubmlhZuufLqzm2XrPnV+ipdsV/D+iKV/a3Ki0tzWJPOHL1ym9/Hz44kVxeHvBVDRLwhpXjsZCNyuGVoNe/ileiyysEr/doIKEuL1S8xAPwks3ChRvpZbweePkhAa+4xCLwDjtcGXdqsxtKu8MRvAkmJK2TLnqRh1SPVuLAcyq8R/E5kuhzTRjlJI3dnpSWlkTBe3xhbmVydrlhaGiAAS+eg86Et8Ex7S+8TU3sebwTYdHR4wPlkdFTjXx4rTS80Z7pZHLwInKjZeA1thjd8MYUFBbOCF6By2tQ8YZCAF6yWbjw+UXPu0M7u4gzu4G3vmxm+FKeil1ik4SX1Wbg8DtWXT062Xnv3trJkbwlh6/maMxm7KAdrwozWXttPb1N4vAKp+nFF9HXWGzNtiaLRpOgsSdZ8IEPTz91pW59hbZi2OEYQrROeE+gwPAyTqCoDHdUe+DlRYTdxvCGN+e/lm5G5KN/MMwUvLc/WF45UR41hXsNUVNT4+OR+JRhN7zoB7JYby9F8JZGh6XWT01FMeAVs9dYH1mQXxAtPhayyojjhbewRSAsc2UlFqh4C0n/zX/CA/CSDYL3eS68MpPRQxLejIzJkYdrX3mltSL1ewRvmt1sZcNrVQ1vczMNb7PNoknI0TjNZgShHcEb+Q/JZWXDa9dmYngr81YEHt4OH7xHX1teOa88Kn+qfGAAvebBa3bDG0XB2ygPrxHBm08S3iKANwQC8JLNwoWfP8+k964HXvHJ6P7By6JXDF6vtMKtBoa8nItsNLz37jHgpVYiUDsfzII9Xu9yBbtZOFZ8kJrZarPZLEmaHOyuB971GF5H8OBNRvA2lA+UC1W8fsE784qXRS9UvHMvAC/ZPGbw3vPCSylJC5qYkHP06NEc9UFflZ7eQcGrMfVanyB4ozzwtgQeXqh4QyEAL9kgeKn47J11eAWjCl5GxOBFAGosFosVla3mhCNxsbFxl9UmDn1VbOzba/AKiSSNtQdfnws+vOkf0K0GDG/YVFWwK14Er04aXqFAxRvyAXjJ5vGFF6/+slh7rSbnkdiLmzdvPiWQLRI59dbWzZtfOvXUe79EqiZZent6n0h4dbpAwwsVbygE4CUbD7w+ejd+u9G9rEFkTqS/8KoYEym6nMwLLmdOpDC8SRS81+Je659/SzBX8O0KesvPrSvvv48+8emzJ582+wfvdLWjjDy8PH7l4R2cQl+E4TUaC8ThlaIXKt6QD8BLNk8CvFe3Xll1+vz289tPc27nt+O7SE6/8MLp089c//SpT9BvE/WdAN6AwAsVbygE4CUbQXil50T6D6/qMZHiGyg4V9uEerweeI9e7X/u9KW1BkOegfWSZyjH93KUPP4tb+DSb1P6+lb98AGGV6Mx2dReXMPw4vgPrznJHn/bA++A3/Cymw4zh1d2TCRUvKEfgJdsngB4r13t33R84+6JiWRWJt1JFs6I67PPlmWuXXzfDW9afBPAGxB4oeINhQC8ZOOD10Ovd3YDzexd3vCGmcAri68svG5vub0HgeVkGrzt14bhfWlf38IvJuftZ2UeiuftpEDQt1zZPbLn/kUMbyKS1+InvAL0+gfvQKP/8ProVQVvS0txsQC8OFL4QsUb8gF4yeZxhddsteKKt6nJakqIfWlX3e6usWz2eoivUfBbl2tsLFswwyUlpQjetxGCuOZ1ArwBgRcq3lAIwEs2THhpfGcdXgF7xcZEKp8TyYO31xaP4O3owPBu3lXT2uqSCB9dl8vhqKDhvYxwM9vxWULE4a0iAK9Qq4EJr5C9UPGGfABesnlc4bX29CB40yh4r1LwOtSmeqhkEMH7wdt2a6/VDvAGCl6oeEMhAC/ZhAq8IvTKwuuhVwBekyYpKS3easq5unXX9tbWIXa4k9R5cW1YGz74awTvJ+h79ZqdJlaPV1vmGZLT4IHX6oF3KYZ3kAEvj15ReKdmD14PvYrgjXLDa9QV60XgZdALFe/cC8BLNlx4P/+cOxh97sKLp9VarE1UBbp7JWfVgtD1NEaSk12fbagI//Xi+x+819uzusccHx/vg7dCXcWrHF7BireUILxGvViPF+Cd0wF4yWbhwn+k4oN3kTvuOZF3F9CbKXziBkhiJrTMZgNLX4+ughB7NlLQGyhGu1vvvfJKlwdeW6/Tnui0NFHrePfVndnPXS/GPzyIHVdtBLJ88RUMb0+v0xlvwhA68Tze7vyqMZchz5CrDS8Jz9vUH5djMps1eItyU1OTJeFq/6a+rvAGg0N0y7BY66GCgteO5/HiQehmVLLf/mBXqWcDBYa3MZIxCJ2G96ob3jAEb6MEvJ7U1yN4Y1JTdY8GI8+9Q8NrsVpNeHC8F17sKn4ppin1GFvoHZrDajaw50TKLjIDeIkH4CUbPrysYWU4nvm8swqvyOIGWXjde9d48FqaLBjeeJsb3q+/9hEr3GtwtyCG3ckd+np/NwXvJ9beXqs9McGEO72mp5de6Zt4lL8sojEmDLlbEj6wqj/umhPBm5OWhs+TtyZcfWnT8VdyG7S5YhvXxOFtXILhtTDgTXdXvNEseO3K4BVMZGp9TIEX3u8E4Y12wxvTUqjTGfU+eQvFppUBvHMrAC/Z8OFlyvu8D95FcwxeCwWvzW94h4ezh0tLH+INFNRk3sTEG802jd25bumV4+sfDT7/cm6kYWiyu/vhpVX9lxPQU5yatI6O5p4ea0IsDW/u4wKv3mjUG3UA72MVgJdsb4TqQAAAIABJREFUBODl1ryzBC+TXlF4PdSK9HyZO9eUV7w0siLweuk1lJdXVeUtwTvXqHHpmo41HRq7/ejBKylfDFY+/7Ijz9G5f+X6tRS8qCg22y0dtp4em5XasPFKbrjwprXZhjcq8PCiireF2WwQhJdJL8Ab+gF4yQbgFYPXMT1dUTrs3jKML5rFd3Qk2ZPWHbxy/Iv8qoxaRx6qeCdXrj3urnjNdnxoBeILwbvi/L28hscGXp0RsQvwPl4BeMlGCF6WvkGAVzCq4B1TCS9mVgbeXMeDB2OTrYtvnYqz0/Bamprc8J7NL5ieNjRERoaHh+f1reqPvZZot+fkJCQmJiZcu3bk4HcrzlfnNTQqZTew8FJRDq/wxTU2vDS9chHhFuANyQC8ZAPwisFb/dlnZ1oRvFvi8N4Jau4DBe9r7x+/WzU17cjNzcvLrUDwbnrnYNzlI0fWXcYnVrxx9erBzfeX9GWUNWoVF7whDi9lqqfJKw4wwDuXAvCSjSi8XnoXffvtIpa8AVzYK0kvE1/Rdb3+wisUFr1UxfswczHeuWa2oDQ1r7a54f28QjvtevhwyJWZPJLX9/39zRcPXkXgbtm8deuhY/3f3d+3fcPZUaH1u2LNh4DDK0UvDa8xNbVFCbxYzBZFFa8svQBvCAXgJRuAV6zmdVRXJ49Q8JqtvdampuYXX2xOoi6uHf/HefNcQyMjQ46h5JGHa/uW0CdY3Lq1a9e+69f37VuyfaB22aiQs3MT3hbq0poCeQHeuROAl2wUwUttZPPtoggcvKoH9PLg9e1cmzm8TH3xxTVDhXs5WW9Pby9y98UeO4b3/vnP989zDZeU5Bq04aWTP71y/PzN36Jc6tu+/fz5m+e31w24znQm461o3KpXZHRDsOENQ/BGY3hLlMErw67MqDKANxQD8JINwCsC79CQowyv471Cw2u1Na/u6U04ui52y63zy+YlZ+cODuY6tFVVIyt/irj3q5//3e//4i93r5zs6jrbidBOnkzWNkQ9NvC2SNML8M7BALxkIwGvm143vN4jKXidhmAO6BWAl8ZXDt4zX49lqqN3aGh0YqR1+xW8jtdqppKwLnbpqW37+vZXaA3hewdHXbkN+VWlIxW5jqGHpeGDJSXdKCOVVQ0N4eHYUd6kBpHRDYGEV5behqjUsGi18LJcFZJXCb4AbwgF4CUbgFcU3tHJEXrLsN1OrRJbFxd7cev896+fdsyr1BpyS0pbO4fDp6rCS0tLKypKBvP37i0pGRwsQbephgbt8NDocC7AC/CGaABespGEl7J30cbZhldwWpk6eDsVwOs+kFh5xZtMbRl+bZ098dqRy3GxBy9u/vLWqhdupnROVJZVr324stM1lBseXlGRnJxcUVqK6KUyOBjeEK4dat29u3WI21sICrw+egXxVQ2vb5Mw7vbKwytKL8AbQgF4yQbglYQ39/sfXvvkxu3Yg1s2f3fg1vJzNZd+8XrnREll2Yba1lYEL7X+YRTVtojfCgMSbWqqoWI412Bw3Ptpd+awGLxcehnw/iAC71QIwItF9U5tAHjndABespGDF8/n5QzoVQ1vRESEW1P0riC43Gto1JRI7oMseOn3u7ro49cUtRrGVNLryhwZcTxz5eMTn7zxVv8Pz606fT6y8OEr9xxVe/dWZb/++tqHmdm4IYEPCjIYDNnZruqU6fJxw1DnGZdjwLE282F4rkfYMi2NLRfeRgF4l2J4k1jw7p9G8Kb2lY8rhFeSXn/gpenF63n1eFSZMLyyzQaAN4QC8JKNB96N3mBsmRJjctXAiz+8y3rQ/bSIM2d3311wNuLOnTvc7xDBDXrOHd6DKDS/6C2ytnPZGZcLvcLvRtRmTHZn3nultmuEglfDgJcaTL5MPbyZmZMPHYt3vbN587Yr+xafT/nVt190r9zdWpGfn1+VvWHD2oe42h0acjgc09MD09PT1Q8ePEBvXBkZ1dUIXkdentZgKBvGS9PKMK1a1iKHMgP6QgOn7C0bWDL/taN2CxWT2Z6UFL/m412lk8jUvIGB1Ib8qnEtOXixqEheo3uZA8A7lwPwko0HXvFspGaiM+bzLuBsIRZYXnZ34QV3dYtePf/5Tz8t3Pj7jRGtK3cvXLig9vUPP/yGmzsKU0sFoTyZnJvx8p3y8ojn73YOOWq/+ebeZPdkRm3t/pE8Cl6z1ey0J1niqePdccXbJecs79Hh4eTcvD3nli9fvmJxHZK0M/Phw5UrJ0fwxbRhR/XaoZHSiorcXOp4turqaUwves08ta28fMDh6jzTOZrb0JA/FV6aiyCurBxEqQo3OB68/iCbEhc9imIYb4yavvT9gYvr7HgsRFOTxYz+fDpe/HhfeGV9fXnKg+mG/EdV42W+QehmPEGCPoEifCQqFcHbwCRXFbzcEyiiPGe0Fet0MT5YjS3IXaOvp9BSKDYnkqUtl2C9vhDgJRuAl2yUwMsZjL7IMxldFN4uDC8qTNG7CN7PcTn9DQXv+ldfbc2s/fDbRQsWsaKkW8FK6+TIaMS3L0+Xu87ePTOW8fLvfiUDb4Qf8I6ODRla2nfuaI8a6lzWOZpc8TATNzYyMlyO3NzwCqQu3lmMC16KWQNdAQ/lorgnSxoGHA7XmTOuoVxU8A6PDiFitdrK8PCqcK3BUb2heshd/GJ5DYbx8enjqw5cvGw2N3U0dyB4nWYK3srBFgTvJQcutQ0GDO8NMvAievELPhGI1hfgnbMBeMlGAbzMOZHUUUCeqTli8N7dfffu3bMRZ84ueH7BWcTv5xvv3MtAVWrXF+u7uwcH91+48MXKL1hZuV9lJrtXfrHw+QXLRnMr9n+xLOLlb+UqXil4hcdEjo6OITId5ZGReUOoah3KrRjJ7Kyt/ez111/fUJ0bvnfvoCElpbqaKnZxS2E4ubSkpJRKZSVV11ZWDJeVaQ3Zrgz0pAcPPvvMhatbXBpPDxi04VWDg+F0Y0A7joL1NdSs+PLgOmtPc/OajjSLubfXEr/m430lJVPRYQMpefn5gxWq4eXROyN4qUPbdMyit0VsMjqTXoA35ALwks1swEt1G1BZuuB5DC/292xGxp2XX37+ApK3pKT71VfXq81KTrq7u362sLXrZ3fDq0bWf3E3orZ2NuDtOhOBqluHK+NM56i2MXfI5crYsOHBgwfVjuGKksFKA3qPgteAytjKCToY3hIcBO/EREVVVUOjIRu7i+CtzjZQDQlMdXhV/t78qgYUd1d23JCdXVF47suDR6w9q5vXpKUlmXt6LGlrPt5V8lHVVFRqeWRhQ0W2QUscXna3AeCdmwF4yUYRvIwNxMhSWXixtxGduNRdQMF798Jf/dW3//RPP//dP/8//+//+B+vvnrh3/8gl59xcoGT3St3/+yn4db/+I+RwZKVXywz5K19pXUG8FL08loNw6OjmfjamcPlyhwObygfQIVqBSpmSyuGXUjS6uyK5Ox58+ZNoMcQtB99tP7CH1Axj9K1n7qtR//MDA7m51dVVWq1jeON49Poi6azkymeK3JR9dtQVRUeXqGlroaFGQyGyZE9Xx68Zu/taYrXaOxmm82sufHB8r0fDQ5W5aVGFkYZsg1lquHl6DtzeBVG5BIbwBsSAXjJZjbg3bjxm4gznajSXXj37tkzEWe/WP/qH/7pX/71F5cupXz24a82pBxPSUm5lLKB8aI6fXV9KQN1a//iP3ePlJSu7yqbDXhzc4dzDcN4XQJeqBsePpCC6tTBvSiDFdUPfvHbBxN7kbdI0cnJyZHSqvz8PPQLPN7XV0cHvRM5FY13DyOrq6rw3gpUIk8PV1SW7N1bUpo8PJ0yrcXuVtDyho2Pj0/ur1n+0tJPbpvQn0yS00TB+xoF76A2LzImqtwQAvDGGFuM8uwCvKEdgJdsFMPro3fRtxsXsc4d5sH77Te11KW1BXd3409/8Q//cOH//Mu//vb0qn2bVq1a9dVXq2acTSveXHz65uv/6//74+7B/JV/eP7sK/dau0dnAK+wxsPuy2Sjw8nJyZ3Lls2bmBikmreo4r1UjQD96KPuL372n3/8v7/a0FezZ8mq69f37bpFZ9eu5/a9uWdxXco3f/HH//z3V7u7uz/6aMItcFUVXlpmmDY0UvCWVoTjxWS40duYenrV+4cOHkF/Mub4G/Emc84vP3bDa8iLjkwt9xdeL71RM4dXmbtS9AK8xAPwko0f8G5UAu+9iLPPL7iLP7lx40/ru4f7bn51/Yd3Xnqpv//Yp59+uo2TY3K3ftbt2LH+796Z//71r1649ItXcsP3/+EPn38zG/AieXEdjORF7k52ffHF/snJ5IoK3IJwORxDpYMNhW0128/fvHnzha+uv//D4WOHtm49tWXLxYsXt2w5derU1v75V9DPePO3N2/W1dRE5k52l+wdHGyIikotLy/H6xsaGxu0FW54tYbx8dT6+vIHr99cdeBibHqO5sYNTWJSOt3jzc9vyM1tjAoReGfcbAB4iQfgJRv/4GVuIRaGN+Lsgs+pBu/n//iPv//jvT3L5x869drBq0uXnnzjxMk3TnLyhtpcPXhw6WunDm177oVf/GrB3f0VZffcrYYuBO/8gME7OjrW2Tk2Opyrza1IHnU5DAbD8NDYmd13L1x49dW7r186v2TXgcPo341jhw699fEHT+FfyIm4uMuX4+LiYt9Av8qnPn7r2UPUvxNf3t/3/em1r7766u5leIPFtGO4ohIhjDjNDQ8Pb8ATJA3lqamp5dkuV9/p5z79IC4R/ekkWda8+PH15Imp4kcF6EfQls8NeGW3UgC8xAPwks2swbtg4cK7rZ0Ri9A3+NUvXrh/Me5aQsLRo+tu5+D/qiZHg5LgfSWQBPadlaSknCPXEu0J1y5vuXLzF/9r43BBjOOVrkDDi9u+Y51dXZ2jw6ggzR0eGBgoHxhwONbeu7d2oK+m5vRXf/3Xnz57MO7ItWs5OenpNzrW3EavNfTvq0aD3l/T3NyRnoBy7Ujsa4c+ff+r833n+47jFvfazIcVJYOD4QbHcG4uXtqgLRs2GJCr41NVpSt/unT6yubYdTmaRApe19dh+qyiBlQbG/zu8QK8EFYAXrKRh5cxxoEFr0feu7w9xBu/vRNx9vPPF+5uHYvY+M///Pmlr94/FXfNbjebLWlJdnxk78x/blNvr9VsT4zdev23//qrseTJCNUVr9z+4aHhXNxoGKMKXq1hyLU2Ze3aMz/99NMra/sWr7j15XfPvvXxxydPHE2gf6AkfCwbejHjXycK/rDJasUf4yR88gYqfw/1v3N/16bFdY7WrtbWkdKKzA0ZnZlDuRS8ZcOooG6cmsofLB15mLd43+G3TqDfM2vzU9czlpUbs4qiwkv9gZc7JzIw8Lr5xYgKwsvyGeANwQC8ZDN78C5c2JU5dvbb33179pn3n3oPSdhr67VaEBVpaWlJM42lt2d1c3Ov+Whs/1e/eD3iiwsLZgFeT3JzDQ5Hdca9tSiOgb7t3z83f+vFy0hFTKwVBymLfyjBYH6t6Gm2NWts9oQjVy9+d2DFm9tr8lAGUjZsqK11DYc3NOCh6dnI3fyqqqniR/nhDweeee7Y0iM5GtNTz2X8VfV4kS6qsVI7rr7VMAvw+lylGQV452AAXrJRBa97TqQcvIs23olY8PnPLnRldi743T+97Np07L011t7m5p5eVPIidGfuLoK3+cUXV/dY7Udfe//mpXv79/tT8UrSOzSKu7uj9KIGV0bthtqfXl0ZuWfFrQP9Wz9YemIdXeiarXioAsUuruORvWl0NPhBTRrNcZrFguTtsVnt9sRrl2MPbtn6zv0VS7b3DfSlpGyozXDl4iZvbpnBoK2srNRGxeQPlqzsSjl9/Ydn3ziasPRW9l89mK6PjmqsagzzC17mYwGGF4/NEZtWxngA4A25ALxkMzvwLoi4u5CCd+Pvfl6buuutNc1WfEivzZKWnq5RAqvcj22Jx4dPNtvs9rhtq47XJld2BhzesTPL8HU1lEz0fatTUhx5e1YceOli7LVE5K3V5HRaLGZLR0dHPPUPiUajScStXdzuTc/J0WioD9AbxG9OWhoe/2W9gX71+KdPvBZ3cPPhXZsWL1m8vS8lA49yCM9FdbVhODt7uKyxsaGytHu/K+X8zev9B+MuLtf+zYPpsLAwBGhqaojBi+XV81aXAbyhH4CXbGYD3ucXnT2z+8KFC/szI37385+n1Nw/tSbebLN1dJgSkUsa0w2T0+504iGE9BunH9HEdzQjeM32dVtu3fyneZVjfsHLode9iYJ6PYyeQTccRr9edsZlaNSv+KF/68XYI1Spi5u4iFr0DwBKk4mOMzExEcuLgxhOdJrirSb6iZYkC/oSW3OzjepN2xOPxB489da2++f21ExnZIwOa8PxwJ2y6ZQUAx7LOzzkcjhyw0vaVnz61tbl+RPT48awVK123I9VDbw5kQGFF8/n5U9GZz4F4A3NALxkoxpePBmdPRidD+/zZzu7ELxdCN7/+2HKngNb3s7B55blIIxQbvzyhtPsD7aMIOCSmhBjZvORgwdu/ssXE/5VvFI175B788TQmMs1ULPn3eUvnXj66ZwEuxN9a4u7xk2yU03eXjqmRHac+BO4BYzMRb/ViRrb6tXN2F70o9nR501xmw8sP7enbsCQi+FFxqdcOo6PmahEAg+kRu/du/fXX70//9yjqrB6Y325QWuYnlY9q2F24aXlBXjnXgBeslEAL5ffjYvoDRSLvHMiPUe/e6+u3e3afff5BXci7l74y9+lLD7wwdNp2J0cDYXmjRs3TGZcIdps6P/Yrfg9KzcmVqwmXDTi2eAmb3GJZ9Z2NFmtR64eOP/HC2MRtfu7M++xN1AkoedQ8L60r+6nLq6ybHjHRisq0DfJWOsYnpwYSR52baieNpQlj4x0P2xd2/fMc/P7T53o6cHFqtliQd+ZWrdgslhoeN0/NP2PArWoAb9D/eRWs4k6oxiXwyZbj82GXjDH6DvZE0+8dqr/wK4lNQ3hpaXJw9mulEuXpisGB/OjU6dTph2De/c+PP7Mm/r8qrCwqLBxrdZQbnAPQqfgNWkCCa9VGF6Go3x4W+hBZcxLbHhkjiS8eGROURHASzgAL9n85V/+szdKCWYOK8MFLi6BF3n0pTarLby7++43L3/47d31r/7lpWfmf7wm3m5PSou3mD2S4uD/8cZvbvDY5TuclqahrlM1UWsE0AN2iw2VaPHW3tsHD2z/2cLa2oz91NE/+91H/5gx1gheqwfeu9QJQWNidS6Gt3XRNxuqHcnd3d2l2ukNr1dnZ1eUlpbm1T2z6odjT723uqenpxcZiitdDQ2u1f3TeFY1cH9qjC2yzNuHSEygyuAe6juhrzCtfnHNiddeur9iT1tDeK4huzolJcWVXDn4qLi+vPrBBkdDTIOBdUiFVjuubdjlOYEiniq5OfByneVFEF6nyXcCxZuVXnijo4XR5fKrNzLgFZlW5oMX09vSQvpv/hMegJdsZgYvRa8QvBcQvL/68Hdf/MP6//DCGx9vMqOaFZnlNJvMeNp3Byr8TNTD3Jg4iacfppDD5pkxvOhb0vBeWHhnpvDiBm8nHgI5nNnVtb+iUTvk+vrrTpejbvumW4cPPXViTQ/VNTC7m7sWVICjdzGoFqfFvaxBg34pFhNV8KJfJrprkLtJGvQrRI/T3QXcgDBRHQjcrrD0rO6xHI29+N39FYu3pw5MV1ND1Om5DQaDYWBgQFsxMTlsEIHXFALw4lAHsXkOAwJ450YAXrLxB97P5eEVqHgtWFizCf//rN29JgxzpcHFrMjuNV88zQhKNQ+8rIq3loa3KznPP3jHMjZkjFZUViZ31n5W69AODpZ0d947fnPVc9u24D1kmvSjOdTlQGprRHwaXYLjB+itdNSvJCcnzfM+CvWMJEt8Bwq9gs5iprrTuA1BLd3QpN+OT9LkHIk9te3K9cXbBwbCB/c2lA9UP8hwVU4VF4dNVzs458CPjzc27HqLc+aaALwS9AYe3hZ8gc23qExsPm8Ls9kA8BIOwEs2QYH3KR+8Zt5PoGgfG4WtmfpyXHPOBry1n2UMV5aUJLs2vP569VDJ3r0PB86veu7Tt05+QoGbczTHTncZcBCraTS++EFKUafTIvBLMVuasLy4Yk9La7LZTNTKh0T05YhhS066BsnZe+O9kx/3/7Br8faGvXvDB1IePHiQXZX/qGC8+oEgvM++dyOk4KXcNQK8cyoAL9n4BS9rdIMieE0eeNF/Mgnj6fsJlG0gNjPNxu+bAg5vbcbkxMREsqN6w4bazu69g3WL9x3efPWTG809PVZnYkJCop1aKuZeaYw5TUeeen96k8kk9FNb8BYLnI60tI7mZnxRDfuNl/Zakd+Jzt7VKL+8HXvxu1ub9jzaG1794PUH04Yqam3DtIEHrxbD22GeKbxTCN6Y/ABVvKyra+JhXmIDeAkH4CWbIMJrcsOryUm//bQnt72vJHN73SefrKNyNCchcVbg7Tzz9bz9+0eHc4ddEXcicgv37JvffzH2mt3as3q1zWSiFingZci42I2Pb7I1Nzd32KjFCXRMN26joJ/1PRTqZ759O/2GxuwOphd9CXrdEa+xaPCWiqYm5CfeCbJ6tdWecPngqW23zrXVpWzYUF0e1qgdTq5oxEPLJODVhAi8eG2DD15RggHeEArASzb+w+uld5EyeO0Wd6chLf29N5566qmTJ5/Cr72vpLIU5bXXDh48uPRq7Lqc2YB3bHRycnK0M8I1FF46ufuVDeeX3D/22tW3j2rsePUFXn9BjeVxJtoTc9LT16yxIY57bHhZmJn6fUy8du3pEyeXLn3qqY+p4J/55Bsn3qOnsbn3FlOF75o1HUhc3K+Ix8s8mte8+OKLPVZz4rV1cW9svb9iSd/aziFtXrkhO1ubn1/FgVfLhFdiVYMEvQ2NCN4pDG9LICvelhb5krcF4A2ZALxkEyR44+1Un5ZSKv7ppVu3fYozf/78w4fnz6fekcqn8+mnHp5/+Nipq+sSzZZZgHeitGI4405E68jISGvf6ecOf/DG7XQ7Hr8QjypVW4+tp4faDmEyxaenp3f0UkvCrKYbT7934sQb6H516cfPbkM/4Q8oV9AL+nG3HXv2rQ+WvoE+ewLVwOmo4Ee/CU2YcWqJRBOC12q1/RLlBvpZ0b8mN0580H9/0/a83IdDjoFyQxUP3nHPqgYEr80WnxMq8LYoYhfgDaEAvGQTJHjTNPQeL0uSXRP/3qn7+/DxPYxwDvZh3zZt+p56FD3rr9/f9trbCeYmi/jFtXJ/1/FWVpaNLbvw6vqR3Lrvnzu09JNf2kxOcxKet4BUwgWutRcvPbbZepss7gt9CevikLeHjh3r79/26Q+3VqxYgX5WKuiHXrHvuSs/zH+nv//QoWff+vhk3LpreFWv2dqLvheqlm1NGqcJFdJOk8mJe8cm9O1/+cnVLQeW78lrbR3KqzdO4UMyuU1ebcNyajmZyWa7IQ2vCL5seN8MTMXbIlnxxvAH9AK8hAPwkg0BeDtO9J+rSdmQkjLgcAzk5Q0MOAZ4cTBu+J5yKaWvr+/Spd9+dWVLXILZZg00vJmjQ8Nlw/u/+PdXW+uW7Dr87BvXkJBWetEu3hiMKlybCde+yMwesx03BmJjry49tfXTK89dX7VvHwZ3e01NTST+BQ0MlKdGRkbWbF+8eMmbK1bsu379/R+2bb148OobcbhR0ku1KfACBxMughHHyN00C56b6bwWd/GlW2/W5OU2NEQ1lmWX8eBtRPDeDjV4ZUpegDf0AvCSjR/wcgf0qoQ3Z83Jw28aan/37cazu+92tY51nl1w9kxnayu6u1/QjZ2vz7zyyiutmZ0b/+4XN5/bHJtgFYR3pafVMH/pUT8urlVvqB5d/+qru+uW3O9feuKoCW9Lw4PNTSZqBzDeD5GTZqOqVbP9WtzBi5tfOnz4yq1Vz5w+31dXV1M34DA0Nmq1uVTw7HSttrKyIaYwsqau7/zp7/fdOvDld/2nXotdl2g39/Yid52Jic5EvK5XQ69rtsR3xFudOXEHtx5YsacwfGTS9aCav6rBA698j1eEXje8UeXlMQGCN8anrpdVnrwcfAFewgF4yYYMvHtcH/7b//nfn1/433+4cPfC55zNcDh/xc7zFy68un79+p/98d8u7XsJw9sbeHg3fFZ7ZuXK3O375p9645rTTLVgLU02er+a005v5MCV7y+fPvHGxc1fHli+6fvFi7f3Oe61rlzZ3b1y/fr987LnjY4m44zOG0UfdH+EUtK9sqsrYrpu+55zm64/90P/qaWxl49cu5ZAbSGmDjWyOPGuDLwDIx79p0y3Yw++dOBcW25n7YOUackNFKEDr4dUakIvwDsHAvCSzUxaDZ4xkQrgTccXj6y9TRY7XfFO/+Jff/5t7Z1FdyJqa++8/O3LMrlzBuE2MfnF59/e3EVVvL3mgMNb+9k3EWvrFu/6bkvcbZO1t6MD/SNhwdfVcMfBnIhHPeLzJ83XTix9dtuVXSvO7enD3ZKHD0dGRkpKSka6uyczql2u7Gmc7GyXq3q0ZC9OCaJ3/9hQXmTN+ZsvPLPqufn9F69ePoLhTaDmRzrx4RzoV2NP0jgtSHbbjXVXtxxYUZfyICWl3O91vBLwlqcGGF7flglsKn9MJG9AL8BLPAAv2QQH3nQaXvT/13a7Zs3JbW+m/OJfP3w5I2PRgoh7tbXfvPwNJzx4M1xnuuZN/M3ZO+cxvL3NtsDDu791QW3fqvubr15OpA7q6cBjGOI7bDarGXlo1+Qgm+LT337j4ksHdm3aXldX54h4/m7X/skJpG5J6Ujy6Kgrw4XgddCZnnYNJZeWllYOok9PIHonJ0drP/vs9ePnF6+4/+XmD9745HZCojMeDzizYnhtTWZqkCVePWFOiNvyzq4ldakGbo93fLwid9+h99ZYaHj9q3hnE156bgO85WmWAAAgAElEQVTAG/IBeMlmxvDi+bwy8B5emp6G4EW8dNDwHn6z+uf/9rsFna0XLuzu2r1g48YFP7Fzl5OztZ99uGjZvL/J+IyGdzUP3s88F9dG/IPXNdr90foNp99/K/ZojoYar9ARHx/vNFGT2vH/0tvNvatXrzn51uH7K97c05Y3UP3ggWt03rx5E5WVlRXDrozqDQ+qR5NHh3xHtVUMVW/YsGFtZubDCpTkh+g/Ul3tyIssbNuz5Pr7xz4+cdtMD+zFTRg8HtNqsiQlNTXZent6b8Qd/O7+nvyJCd90skbcQS4bTx7G8DZZ6FZDmncsZGNqedjUFBF46cE4OlpURQN6AV7iAXjJhgmvQn4pbRn+0lPRGfAuouH9kAUvHnPThKpIuyb95OEla//u337//7N3N05Nnvve6I3VxILaPwACGEMSpdFW8SUVgSAIKMiT2SeY0HX22iQKBGKgxZfIiDF0Su548lB14TreZKYqPXsmr4WliJQkCGiQcvNSEGV1TudZq/vMrL3W7npmINl5UVJzrusOCASQYG1j6f3tUiAkvGQxH39c93X9fs9MpuzW4mfFz55FPCsOimluzPCDYSwWN7PpKFzjXajiNQUqXt/oujVddfQl4fV6PPhQNTcv8KbbIl7/5N7Za3YEUfTA5gqKnp4eOz5GTaWCA3vsay/eOPvFpSd5QlJhocsLqlc+s4jvlEhKmUUewO7jx1LGrEgkJGdm+3FIr16PX29zuL18PrOsYFysGbrSlHjps5unru3rwXtQqPHuvTb4LeEdHUDR2911eOTL9SRJkQjaW1Ulgi+rqp4yXHFjn1+j2hGbzQ47PtgD8Io3rtq1aj67PxneUOSdDe+C7hLwvnkh4A1v3n//m6CEanBgDEUWeCXQFH26P+8gOXL49uAgOQ3Cy85+r33dmmN1dDUo7WC7RxTB4c08+E/yIODVTI4kmwfxIRZ4ZQtCgTEHBcNAIY1hMln50dxrPWjwPt7bGIXCYhlBTIYEAG++GjoyG96IOfCCcGUyzKyZmJjgGTReULoeyHh4qOby9R58wwEcTwmPB6unjk8g4JmqbXt0rvdQXPnoxISLwXB7uFyHc7q+dTjg6gIvUDy/mE0s0EvhzfBO+DQLh9fglpAqSRK3IWk0L27rlnPJm6NjdDoUpebH0GhqIK4N/HuhVinAk0VLicoZS1x/1af3+0VVwEkAu+h5wTskiGV1Nw38ywJ7HMfTkb7Nn5ypHP/Xd1aBsnguvtDZef7ObCdbFF54N0guPpY48OLl8kJbp0z9GPz36ccfv8D3dwv1iSTgDXsIeMObV4d3RuDIOY3RB8kDw5Ez8H4TgBexalG8V/g0vN9QBlsHjZQ0OAp+cKpUNi8Kr9nMlpOH02QUCC/4SLq5J9cgvCAGg8k8dAXCq1oQ3hfxBODFKBoekFdjYvWvLmn64Eh1nQ61AmfVsJEPDcAbHw8b2+zW9vRFd+Wc+/L/OLFLHyiTQfT4aDZHIDi0gSlt7qm3IbZT04Om45Z7nQKmSOQARbaT+bzgX7bW5G6OTlWhEHl7PIQXVtfgy4aD2WKuvfXF1v8hlEr9zHc+3OB//NgvqnxeOV5YWPnlo64UUCFTqdRpeEnj//phVZFEtGvXMuBdZB/vl2UbVq1atTEwDH5DKPAGO/zxxzPyEvC+mSHgDW9eA7x35raJXAReUMTNhTcDVLjLgNckJ6ctAa9xGt7qpeA1wIUGj4eLDVB4JBK79a9p/k29D451xOhQ2JYBh9euosLej1Sb1Wrru5G75uimE7tKpFyj181gOB1uUOM6ZuDFpZ1aLp4Fb1AAzAF4eV6eQ1C18UTek/tjb18DRS+i6oGdIxXAXbirF3zdiI5We/1Y8paKJLO87P/8WMTnP924ys/jkQoK1sedfhBFQ7T7Lu5TT8ErmCx4ziySFJUsBu8Mvb8QvDPG/p6A9w0MAW9481rgvf1LwGt6nfB6PD6fS6AfqB/WlI1bBu+2PxnJiartptm1SvBxA03LURXsd66zU9deO7vmdJ4+KeFxpkxmAO5KALyeV4HX7Xbiq71waUIk3CVMSmrfc//I5pRUOqpVqKYnaEJ4FbATJa026nBvnsMy/uGGIsl4wf+967HMKPjd79aPXrmf25Fv3XtxH3gA0nPqkzMTlrIqJpNZVFJCwEsklBDwhjevY6lhbpvIbWGDF8gbOrzyWxaSvnn7XZZ43KI5vqf3cFQdnYYg2gbcXVDpqtQqrdWK6mgpxx7ErutM4lGa6zHM6HXCLQpuL4DXHQSvYy68L8vUnjONRpPQlHjp7VPdOuA8XLSFRTY+XE5LhRt96049OH3C5RKLJeMnf/yw5PFjj7Nkl8gw0NR7+bpNubcBQA3gfXRmgl1V9RTQ+0bA+04QvPMPVBDwhj0EvOHNbxZe9q1bLn1z/fBOuVh84sm93Kg6fKiQQqEIuNugiFdZYYfyrpxzZ0afRRj1XHiQwx1w1+0BeRV48XeKQNkr0uulXpfYpXmW+fB+zbHovp6eaXjxXr3anp4Ymh3Zf+PB0TzhhKXw5MmCspIEv0jk9/Pl2by8sctrtTbYSh3A++CMw1e1YdWGKgJeIiGGgDe8eX3wztCbtXx450P7SvCyTMXLgNfnkcqwna2G8jMjN0/VqeDxMYUCHwQH3NXagMO2/Tc+X3O04n9evcXmPn7MNXgcAhKJhBe8IMFLDaHCKxAwQXEq0nscG56LLZaJifJ1sV9cvt6N/x8Sz0lNbaAqUIV2//4eFarq2wzknbgK3S0SlexaVSKV8iUWV9KTsbf6EEQB4b1x5JBAsvHTjzaUMUWiReGdpvcXgHeusQS8b2IIeMOb3yy8GjbbJHfyPay0K0/O5UTnI3jLRwW+0ECHPRpsqD3/+uYjsY36W1evniT5H0udQMyAuxDe+Wu8IcILPkwVPAzhdItWffRUAsdqPmtvBDV3bTddrdNRG/Y1NCjwRr09KpUK6Tt1obei4OTJcaDqho0bSvx+UWXBeHHCkyOn6KhWTQdFcc0hoeTT37+Z8C4YAt6wh4A3vFkp8JqfAXcBvIOLwmucA6+Bx9OY2JMSvrR93aWbUfk6NYRXocB/049X41ONu6Nyvtp6YiI93SdhFvG5fAFJANcZfD5c1wXhdczKIvA68QnuMAKnR1qy8cPxwlu32Pq42CPHOmKoiE5N3bdPqQWfvqdHZaepUOv+G7lbKsavikkbNpRVMZ9+tEtU9eE4e6L86OHzPVaUhux/q2aTXvLpp6uq4GmLl8AbuIWAl4iOgDfc+Y3CC+hNSjKxLWJR3rpLF07Vgd/wQZGrVscH4EXsdntPXxcO3i22B55KWz05KRBAdeVyecDdV4IXP1iBh0mqFLAw/65dJZLCwpOWic7EsZxTF1MDs4a0+IE2ux2fhbn/2uGRCqFY/Px5VVHRqt9/WiJaVVlYWFgxknMRwtv31ppNesY7H5UUAXgXX+Ml4CUyKwS84c3r2U42l97wwEs2U17AW7cQvDAzG3m5mZnmlvQJ4aF7b5/qUyEcDlWBIoENXXBwMK076tgnvXniW1cLmQk7vvsubfLkuNPJYLhxd6cWa4PgdTqCsgi78J7gNSaJWerkNjc/Hl1fcPLqVVLept4jn1+rpcFmQlo0MMlep0NhI8pTub0VJIu49KmoiPl849OSEtH4yZP/o2LNW/tRHdK3uWaTg7FxlahIwny62Mm1mfwi8E7zu8j4YQLesIeAN7xZKfBSlg3vcRmluFgYN5IbnQp+r+ekctS4u/i4dlp3bVTuuTN5E9m3CjfuugLgHS79scDNc7vxTg9wi67DO29Xw9LwipxTXRvcboZEIin7saD/u+92PCz/CDh68nfryxO/ONtVG4NvrlDrILzqeB1sAbwPrjaILYxdu0ROBvNpib/kOXjA+sTPrvXpdHUQXl8VQLm0atUbAe9M3btwX3QC3vCHgDe8eb3wTvWJXCa8gR4NvzC8suZmbCgp7mhyVwzsEUbl0OPp4I8aVpm02uhqUGOKJzQms5H7GITrdhWKHbA5A8QWwus2GJYPrx4vefGTFLCPTtmPP5Y+3rHjTwkllUDeQstE3v2x3OqOGB2ihiOH1FR8cxtVa7X2nUreul7j3fVRlftA/9NdJSWVBSfHeY29cHW6ruvRGQGA92nV841vBrzzT0wQ8L5pIeANb36r8BpYGCa70tj7qDoFlpSwty0dVL3xCAonrUe1PeqNm7jlEvkz67cPG4s+/NfnvmKDYxpXJyx4XwXeF/1ynIH+ZeMFH340+ri5WVpSWVZomSxcn3eoN7mtoxtu6KVzqA0NWq2anp/aoERrq2sOderXb6zymvuLNkBfJQ5p+ZlzOefzU7qSvxT4mE8BpxufLrHGGw54P57frYyAN+wh4A1vVhC8GMVoAvC2B+BF7FPw2ru7cgG82wLuwr+8XoORYljdjzUdelCdQlfAa1l2mi6ek0+HS6ra/RePPTjdOFTc4tX7pTJW/+rS8XHShMbAw3uQwXbnoPR1B5rlTGsbKryOqXVeCWCXRJJIyiqrivgev0gkcjIk4PP8Du5uuE6DPYDpKgU8Omen53NUOtr1y2OJ68cLHXo/31n6/MOPSx43P97145ePbqw9D+CVsIuefvTx8yq9nvlGwDtD78cff/z7efIS8IY9BLzhzeuH9/bt4bDAazZTWEtWvNNFr9Hom3T6n4y0nY9XN+yD0yaAdWoqeJhNue/aW5/dazz+jXRUyjXAqe+lk2w22yVxcLm4u1yuJ3Bh7VUqXkdgPxkJplTC83hdhePjZUw4MKik5On4yUJn4/3Pjl3v1k1Ngrfa4KBjGo3Wd+3sWMXJW0b/iY+ck+MFn/p37Dhe8uN/j5y9cQ1WvAF4i7ieNw3e3y/gLgFv+EPAG968//57U1kA3lfkNzR4YQNeIxYivGQyDi8WgBeZDy+GmU1mCsU8CPvxbq5To1YbDq/WauuufnRmFJSvBhm4k5zhlNXXcxmFlsHOTWtyztOBtMp9VLvdHh/fsE9ptaF9p95ec3qTsDjC45cavD4Ar8QnN2kmJIDcwGk1fH1WInEkZUqT4DmKF0cnAhQ7XzRDF4vhSCBgrX42zIENZSTwP6fD42WIIbygkPXjexWuWkbzYj9pi+qmwQGYatSGqqlUqkplV/WdyunN03id76wvYpSWfbzr8Y5m/sn/3jp2trr68Fa9ScJc9dFHT/lFzHnS/vLwBjJV8eL/zbrABk0m4A17CHjDm/ff+/6HH374HmSG3kVL4BAJxuEdnNsIfR68d8mDrYMsDNzXvAC8c5s3GCkYNlhMwYYHKCcAvKppeOMBF4EJFFgzZmKbMjIGiuEEis11HHS3VUWnU7XW3dqUtnMVIjbbZ5AdHB60kCqPf/eddPzkrT/sGWmLjkGtVqtWa9cBeDkN+/butuqiD2+p+F2l2OVz8+ZOB4KlLt8JNRW7XABefSacLyHV60VwuAQ+xgJueeC5p92dhLPYJni8pKQkvR64655XAguCQhofLxSTKrZ+khPdjaAKOGCCzgn8e2DP7+g6cr9JKK7csIHJL1q1qsQv4wr/WLH1q5y25NPtFHFp1apdHy04hGK6+J0zgWKqEfqXCzZCB/BuCMgLxd24QJblLyh653ZGJ+ANewh4w5tfDbzkJeBtNrE1GQNz4c3naK3WfVHJR8t5crbPKDuImSxigWz7DunkVcvD+7lQN+CuikoH8HJgz3Pr/ms5IxXrLRbLiyGY0zPavIHFXbyMdU2A2z1JSQaD0cCDpSwwlcl0aOB2CS8PgO3gO/gQaYnEOeEA9Ho8C649CKa29c7Q+39BeU+crjkWTYPyqukA3gatzaZV02I6jn2ReEJQVbWxyulkblgl8nBH16+v2PLo8Cf3rxjGy6p27Vq1oeyNgxfa+/G/EfC+YSHgDW9+NfAut+K1WhFOaqrWqr14bM2hUaNJDuAd8rh98mIKKFNbskfvH2nryEdQAA5sPk6jUhsUCqT72tmxQyeEPp8BlLdB8zC905MsGW63wSjDjK5CiwVU0j4GA0BY9dFHIoMRbwPhkUqlfvjHrx8F5bDT7YUee/R42fuSmpcpcGgmKitJDmnj6QfVtTRE20CFu8rUKKpVKmi07qjLI5t2lQgry0olRaJdJaN6p0CYt/XcJyOJV5wFBVVPS0qYi680vIBX+EvD++nv525sIOB9A0LAG96sVHgRG6qG8Gqppz5LbJJhLJPGaPToHd6WVjbJSbmT9qRmc3Q+HQ6ahBevALxKJRyrfvPek84kjdwoO54ZDC++hDB1Nc3Dlck8peNQXp/PB6phvt8/Kgqs4gbkBXmckAD+9njxZV2nXu9Z4CjbXHg9siRhpUBuluYdfXQsOhV8i3hjdDVsnGPXxXRH5/bGNY2SxsdL4ZSfEhGDMSGMOx17et0oqaCgUlQieiPhfSfo+hoB7xsQAt7w5v1vvv8+wO7sC2y/fnjVCgVs7qjsqTt26WE7Fmkmmw1ensNjKG4pPOnKqm+PvZlSR4cnFdT4aTU6dfdumy6l7dyTzqFitomSGQyv1+1zueDCb2CwpR+Us8wy2KjMwfdAhmXNMj6oVknwYBqf75FyudBe+A6uXwQYqxLwDN758M7FV5+ZMCp0+tg+YcXRmpvXIIl0Tjxsm7OvAaHF0PK7PjndOCooHB/H4RVIXD59edy6dU2jlQBepmgZ8G4owS+uLQhv1WuueD8N3tdAwBv2EPCGNysV3ng4wUzb0HM+Kjlxx93InVgaWcNgGCgUjeXkScs37V9/dkqHTLsbH29X4Zfhqr/aWl6cnc3WDGVmzoMXuDsxwQusGejxBVs+CBy7zvdwWSwzq98XuKgGqmI3fBe/qIiPF79+v6ioSCKedC0Jb0KC3+9glBYWCssPjV2+roP/IsB6d18DeLFPi6a0rUnsFBSeLCCJSkpGBaWFYsZoZ1NTJ+wUSRIIhS/Z0xA+eN+Z3t0wzS4Bb/hDwBve/DzwZrW2bgPw3m1Nz/7++KvAG5zlwwu3ktm0MVFtI41/+HYni5s2wCP5BiMx3vjJk7e+2XPv84soMuUuh6NGbVqrra86eUuFkM1m+7wGbvAar9fNgPBqNPhCrlfu88kNXClfVAKMYjoZPt/kpLx1W4tJLpfDVV8JSGlZWVnV0xK/9LEMY8knx0+OOxdpWTYNr6hkVCr1MAsKToo1TYlHurrhGEwqXGjgqNX79u219kTlxjYKxeMFlSWjfr9zHHI7Oto5KiKRSGKSEGRxeatm4K2E8JYsutTwAt4NL7aT/SR457UrI+ANewh4w5uVDa+qu7rmSWfEf+5kPcYGeGL57TuYs+Dk1fTO2JvX99sAvJzAvAmFzapVpWw+cjRP6LK4fDwPzwtXbufCOwGj4cFdDj6fBQTeg893ezXAWtd4wY/rO690do6OCkdFDrdXbmqRT5aWwk6+fE9/vxzAO74EvE5n1cYqPlcq2gi+xuyhptgHXSl2RKXVNjTA7wfudkO7q4+cziMVjgN4pVzf+I8/FpCc+lERUyBxiUmVBLxEQgwBb3gzF94F8f0VwpvPwfvr2mK6c+5f0ftatsmkMoqXIb8dKdOTLNkTm2q68lWBLpDAXbhfy6qt68q91Ng5IRYzeB6PA8jqC9rHq9FoeLyJCXh6QiwuhBGLffKWd//+j7+/b5r43b/895eHQDZtissr70yQDXz/v98zMeQHDsh9ElD5lpVKGHD3w8vhLSt4XuSRSkVV44UWR/mTo0du9CAIOjUXg9pgtdro0TdHzqwXuATCUT/XVwDgLSPBhV2nmwHhBQS/RN5AP9458C5wgGIK3g24uwS8KzQEvOHNioYXrYuq2XNXI5azZLJMrkneMmjk8jTZEXnnqmthNxzcXbWaCu5p64tK7t3TnlHsYni4XL1AfHUevAaK0cCbkEgCJyjEhS422+cUlpfnNcbFHdq65dxXjx48OHLkk5o1I71HTyc+aWxsbOpMoAxmp189CXysdHJlXOe8ie/B8BZUiaRSqQN8Eomw/MTpCxd7dKgWfquwPTuqtSF1UYdH4jopPFGJyOMr+9cPn0PVN25wGtykykrh3F4NBLxEFgsBb3gzc2R4JcELlxqoDTak42bvw29bfAy+DON6zK0tXoeHkvVN5umcjlQEOoPDq8CnPVxvG3ly5WCWiWHAmmV6ZuF8eI0YhctzAnhdPh9bMzFR/MNfDpZvguAmHz6ck9PWVr0ZpLr6WFtbzuHDycnJa2LX7bmS0Zp99eTJHwuq/M07mp2SueDOHKkI0Fs6Pl4m8kulHodAIhAIBZvG3lqrQ1TwucNnD4N/Iagp1clbmzKGHMINDmBtFRNgDXuccR2VBZWCpeAFIYlKnv7S8M7w+/vfT7foDfdP/m88BLzhzUqFVwfgVcVsHmuUtraaikSyNCOPfMfkFDgi/7lj3ZEoGlVBpUN48XYIiC6/bvMnZ8ozswZNfG5amkxfVTofXrh1181g+Nim4mcZmZntVx7uSYxdc7gtqqOjtm/t2v0gPT3dMLW1HR3R0R1db49duv8kbz2psNDl8zw+fvzxUvBKCksrq0R6fWCuEGPyROIXm2vBc2fVUmHPSrVCYUNpHW3nnrRn8irfITmL+H49KQCvVP+8oIyAl0iIIeANb34d8JIHlg+vGu2uPftBu8PSetszKssyes23DUUSd9aOh7E3U3QNDVQ6DdwJVJM21B6Tciq394Q+yWz08vu3YTI+k+TyzWWX5/ZI/XqHT84ufvebP+zY8ac/fT2Wm3vzWFR0X49WuRdkt1Vrs6lUKjstJia/rhboe23z5dxHI1vjyofe+68/Nyc0lQQvMcw9RgzbqzsFpMrKSqFQzzUaGON/jItNjqpDUKtSmZrK0SGwOtfVRiXHNiVMVBaUFfGlj6WCgpPj7wB4RRBev//pEu5uCAnep0+rfiZ4Ab0fE/CGPwS84c3KhVeH9N0Y23PXN9mSJsukDJqMFBm/yCePbL9/4RodCcBLp9qsVisa09319qU4p4/ndbtXr+7v7/fC42fB8Eqlfr7Tx04vzjrevufrDz4AxSiodbtVqM26G48VDQSBAQKr6Pl156Pacmti1z08fpBStLEyeIk3GF5PptRJGh8fJwlHpVwPY7xAGNd7OIoG4W2ASw1qIC9Cq60+cihPMF5QxvQ/Pv6YWXCysHJXQkLJhwWlTv/oUvCGVvH+fPCC/NvH/0bAG+4Q8IY3wfB+//08eV8R3uH67a8ZXtnL4E0DpWjGQIZp+uJavg65ePaDh3ey01dL67dnaIrNXL3enZ492HTvWJ3NplDT43X2Hq0Vh7e2bezrTp/PyfCtXj1ZWsrolzUfz3QzYCcc3vSCg5fL5fJXT1osbF55XG/N259fS+nu7o6h2REEhRsPQNTTQeE0IatNHc/JT117/dSxByNnTkxevXqVISoqmi5uZ9r3voDXmXn8uJ5UePWqGMg7qneWFrKFm2o2d6PW3UobQk2l4ksjCD3q8JYKQeE4hLe9XQjgFZQkPAbwFhaVlIRU8VaVlVWVlGwMCd6F84rw/v7jf4P/ERVv2EPAG94sAG9w1fttUF4HvAnLhBeu8ZIXr3hhP14TWzOUMTAoH32yZnMqR92D6G5c2tO+rfUA31//54wJE5nr1xvefXf0dG4HarWq1SoVgFep3G21qVKqv0psz5D7nE7fah+Ad7IfA/ByYdHr8/m8bh6ubz+33wtqYWHeod6anOramMAUYBh8UxocC4+/gl+vA/BqtWo1PkpIR+uoTj735Y9XLRPgA8E9ZQ495FYicc6Dtx2H1yIW7ioZdUost9jlp5Oj6vDhRKmpqWoEfN0IUtv1aOv6wquFRf6E9gRhwfgkgDeh5HlZKXPXrpAq3rDBG+gRCeH9MIw/9EQIeMOd4EbokN6XHqcIYUTF3bt3IiJuD2/H4f1hDryKaXjrZ8FrHiQHZ568eCP04cUaob+LyYbMgz6Gcfivg/pNa26k0tHdNtrND3bIWP39Hg/LrNGYWFypdOh//6Xxk6791t1WNb2nx263a5V7QcEblbw1L4EC57a7vfDYmdtr4HoydxyXOl2WW7fYPL3f73CDYni1zzzQvufSZ8dOXU/pjtHBVQU1nR5Dp8EeYlqtCg6H5+Rz6PR4O77awEmNx3GOSemIqj7cG9c5lPGsmG1h8KWPH0v1ksLCoGttTr1U7xS4XC6GQCASiQROhsVFqthyOMpuszakpsIJ9Kg6n2rTrv08dv3Jq5Z+f/moXsSEvcpKRKIqJpMJ2GUGsji8wmVdXFtM3tkAhywxXvP+Htj7KQFvmEPAG97Mn0Ax3a1s/ppDqPB+e/fbd1tfDq80AK+ZvAx4I4en4Q0e/fP39zHKUNZtX5nh7n9FTFTUvLUfwKvseNT0H2aPlMs64PNpWKx+FtD5nzti22qtu3cr1fT9PXaaTqFU2vI7craUe7j47GEY+MLNYMh27MiUFF4F8HqkCVIewzU5OalPePj1pbMX8Y0QMTEqBapW0/Pz4WQeuwo29lXbIbwcILparQbfaSp4lW6np+5T6XQpx76439iZpGFbJBDex37J+Enx/A29szc5wH0Ok5UVIzm1VFtDXyo8jIfa8+HU4WtHKv7n1fR+/66nRSABaqdfLg2v8PXBu+wS+NNAy5x33gnzD/5vPQS84c3spYZfL7x3IikUAG+psf77Z8IzNW/toyPWfV3nOv9h9sgwVr9cbjKbWSwsMuN400h1nXb3bq1abbPZaXSq0oqmgF/cR8Hdpua+T3U+ZxgP1nMZ4kKXj8eVyTCDeHxyJ5bQGHvk84upCoUCgeMo8U4PcCIakAu12ZRAcS2MLfBCq6UqFNQGFarVwh1r52/kjmyNE4onS5l4yesUz6t4p+re2fD6BOWnj3T1IQoqJ17doLCp6KD8tV68ueWPFouzpOSnwLuxQBwSvCHhu8xFBwLeMIeAN7xZKfCSyVnbfC5j/Q4NXqUAACAASURBVLBmPQ6vDrmWe/pKhMGQlgbhhR+Dxfr2YNPR5KhuFby2pkYQUJ6CX9t7TuUejZOm1WOw1p2GF8hrYLG8DAYD772LkU3iMkfmlXX3Dkd160Alm6pCUAUd7jOIDzyPCIKgyn1KLX61DgQgrLRqbbDPghZeZwNg6mgdcGq80FU4Xur0cLm8CcEiB9lmwev0OUYbY3NPwYUNqLhWBS/m2fqik7dOSJgikahorrcEvERCCgFveAOPDAet8i7VNeeNhHcgK2sb20WpH+BNw3tjbE/mM55h+C7L65ODD2A2mb4/+OSrto4YFYqAUhVBdPSGBpSacnlsXSe3Pgher1cuZ/ucDlDtcrkeg0bjY2Q+TKy5HJ0PnjQOh4PYlHuVcCMDEBeWvfFqu53a0KCY2lGmmCp5tYoGIG9AYhtCT2mrOVTuKxwfL+V7PEkLTaQIhlfg9mQ+fDJ2rFZnsyob1NSeHvAJqT2pddW9nQKJs6ho+fAKSkqWC28ISw4EvL+uEPCGNysF3qysLLLch0F4N62B8NI//2BHRvGE4e6fWW4IL3DX9E17b1tHt33qrHC8TtGgReq6jiS2Z7LSmufBa5mc5HOb09JkPDhH2DPaeP9BV60OQVE1eN5Uyr17lXBVASirhkMs6PisiDlRa5VaNYdKhfLuBne3ITTwyZo04pMnx8VuT1KSfpFmZbPhdXiGEppOgzodfAilWt2jtKGg5Oborh95Uu5jMAl4ibxSCHjDm+AmOb9eeMlmuRzCK9w09tZ+u672wp7vstgT3rQ7LAbDR8EoXrYpo2lNVHcPBMYOl2dh40jd+cv3GgfI/bJmrlcze5XX6yssnPTImtMwA0MiEYwmwF/4a3XwLIMC+rQfuAsrW6VSCbuHceLjOXQdXPgFgbDD1xv2KXRqupqqRkG5qrRqad2bv/i63Ww5efJkqZPHBfIuAa9ToNfrk5JG4861pdhweBXg06npdflI3+XevJbJMuZy4WUG4IXbyUK9uDbdQp2AdwWFgDe8WSnwRm4zG+XytO1pScI4CG9M1Jo//X8RAF6Kud8nYVDSuG6TpjMxt8Outdl1NDuqxvuXqbqrjxxKeL+13/OYawiCVyx2c5ubZeAVl7O88Uls7nmaDq4w7NWicBiPFgW84vCCyhfSy4G7G+j5cJdD4LmlNzRQp4prBEGp2p6OrgeX9hzPkheOF5SBUjYpaamK1wnHDAlIrvVbH53q2b3bqtYh1r1KOD4Z7bn+4Ekx43nVK1a8BLy/8RDwhjfT8M7QG/TmfHzfTHjJFKP8QNr2eu5o3Jq3tEhKW+yf/lc2W+7lGuU+iVOWJvMUJ+WNtHWju7V2GoBXweEoAtMt84ZaW/o9Uq5BbjDMotctcXJBHSwqHS9MN3Qmjt2MoiEKxbS0DT0qiCyHStXCC2o2GAQ8n4g98LzC42yolkql0gMjLsA7kLquB71f/2nHsElc9pwkcPK83qXh9STpSWWFpIresxfhULgpeOGEuPy200mSV6t4hYEDFAS8v+EQ8IY3Kw5eI4D3BqqLerSp/f3sdJPB4zGxGQBejEtO2JocFWPbbX0BL6pL2bwmMUHTko7Da5gDL08vzWyW8asKxgs1Cevu3eygoXDcOly53bsbVs30mHxY3qoRdGongzamJ7WvLzUmhk4HkGnBd6zqScVnR8DKlxYTnXu08eHxgwMGp4AJVeWFAG8S10MqKHQJE7+4sV+LwpJ7t1IVT1ft3o1GrckTuiSvUvEKlzy5RsC70kPAG97MwDtt7Sxyf0XwbgvAW19v1FfUnEJ0m3vzEorTswcper2pxceQ1Q9nDDT1tnWorLCFwhS8iC765tGmZyaf3Gic5W7AXm5m5mOpxyEpLCQJ42IvRNFse5VUdTyd0wDhhZCqemBrSfBa6trr12BOnbpx48apU6fAqxev9/WoEETVo0Jt2r17lYguZu2xkQq9VCaT4dMyBQLGhG8xd19cXNPrjQYAryWp8d7n11UIna5DrVp1fDy6e7f1Wu7W8mI5k/nKFe/GAlco8G6YGZRJwLtiQsAb3syHd15+JfBiLPkBrH7YKKh4FKXrvpmYoGenZ0dgEF62D6u/O3B8XU1UNwq+DnW8Dq7xxqtpMV01T0YH5Qwvi2WcB+/B41K9w2eSu09sGsm90Yfu3quM19Hp+Q2wvwMC3IUNFOy0mNqOqOqc3OTk5Aef4QEvLlw4e7krqqM7pqdHZcN3NKhotTc+O1TJ9oISXK+XeoDoEtfS8Ir0HoOkoHDSeOX+g6huXQwdlLwKUEQj1t27L7ady7vDWi68VQS8RHQEvOHOSoGXTMawAwdkzWkmEoA3P/qzdUM8Njv7NiaF8Mqx+j9nPIzN7aDB3V/xAF473Mmb33GzN0+TLXcaKCaT3GCcAy+l/rhewDC9iyUcGsnpSlFpd+/VwrMT+VSF1tazry8G4GfVpl6Prm5L/mpky9Yvtx5KfJH7sSOPktuqoztqY1AIrxbpjrrwQZP4ls8Nr5d5PF63UzKx6Ay2F/AKhTw5o6xUYkx4cq6tIybGTofNzzjxatSqvBiV/GTAyHz1NV4C3t9wCHjDm/ff+/6HXz+870di2Cx4u85vHmska9hsU2SajCtPTz+Apd1JWgePIQQGrel0NPhXyuaaQ6PsdK9URjGx2UHwGgeGnCSf+W57472c6G64JxdFdKlr+/LpwKm+ixc5AN79F29cznl0bsuXFeuFJJI+oT0zM3MI/Em40hT35ZZzXx1u6+pI1YIKGY2Jzrm3J6F00ud2ikROt9vHcDocvCX38VYJnXKfpOqpNCHvaHJXbQ9Kp8M5FKBmV2nXduScTvC8wsW1UdFy4Z2h9/W0KyPgDXsIeMMbCO/UEeGF4X1Zf943CF6KDItsOcB9jJlI//1V9amzl5rIJrZFk3HwIEVuSW9Ja942evrBKXjsK55DVSN2Gl2t0117O7aJbbEYMo9naCxz4TUYNJoJ1wSbcnxPbG5UjA7RNlBpNB113/4e2I4sdd8+q7bv2ltvf3Ev9lDcCaHb1NLSYjIVt/7tb9nZ6ektxQZ9+YmKTVtHHt08dbHBhiIpbV89aR9iOr0Gh1MgcYE49VLpkvAKBQyfz/l0l1SWVAFK3il44UU+ump/7bGRE8Ii5/J6NbwivEtWvQS8v64Q8IY3s+FdkN7vv/81wItRuFjkzhfwvvXZB03mlnTXxNDBesxnSd+JNVNO9OZc74EFL6ehAVXR7Op42o0vvk7ItliMzQcPzofXTRJb0rOTmu5/sjlFh2obGjj5cPqZVRWTD4petW33xa7DRy4l7rmSkKTRGIxGrtQhcbGB43Duu8/rkfqlQ0l5p+9deOuiStfdlXz0hMZQ4udyPQ5SqRiHNyFhyQMUDodr0scv2SXFyMIth6P22+x4A0plQ36MTrV/8ydffurk/yIV75I1LwHvrysEvOFNCPAGLzl8G5xXgDez/s/kwYhBM8A0EiO/Erxw4IMKta0NwGs0mAa3Yc3NLRZh3Cebz15aN2pqLXZNaDIGMI/b1LqTmxRX09VntcJB6dQGKpWusqrqbl56ONQql8N+kRo224jDqzHh7Pb3exwTAN7RJ198fr0HjpfgcOj4gDYVqHhVOl33tbNfbdka13l8IOuZyQTuz+XyJZM+i2WysLBUzJADilnZxUlNjffHcruiqpO35E2wfXq/lMuDs9tdLoYTvDF3AsUC8E5MMBhej79ExNfoN507tlZlt6u0sPMOh65T9VzL2ZLX7ysrkzCFo/oiZlkVUyRaCt+58ApfG7zLopeAN+wh4A1vZl9cm5MZeX+YkjmEzugBeGEj9NtZdwG8EcHwvhj9s/2f5Ijbt8mRd+8OR0Zug5lj7jyJg+CNx3smxCOoFcL7Dwhvegu2Y8fd9KujX3/xVu5WoaO4uFgzoTEOyTJlWGSru/P+g6h8q1VJjdepqT0cum33/ujkQ0NDLJaMxfJOaJ49o2g0Gq9GDtIPI2vmMlzsptizF7XgUWp1PDz4a4NHjXWIDaVF5Y58+S9/FPIA1zwgpYPf3++dmdAWEJXBEIy2P1zX+9Xhr7ZUjHolDIcDf5dzar6wY+bOU9oGA+xyCfRSqZRf9pwkzAPfQQwN0cIOEPCrQe3nN69p3DZZMC4W7krIdJSNjwv8/iWbN8xcXHu+CLyTsydQzNrHG5xX5xc25A33T/5vPAS84c0Kgjf94I7v7t6C8H7+oMLFG2wtBpICeGWygchsZ96lm+ftAN4GAK+CCuHd13UuL8LMlclYB3wuDTkDh1c+C16ZjyQ8VHOqx2ZVKuDXrtLaYK2tViPo9beOjJz5Y6HYZzKZvA6nABiK95KEhrp58CVQk8HwObn124/nfbllS0WJWU6SwHc5Z01ac8PHvBReMbBU6uGXFZSNXlm3prqWHoAXPpOori76QiIXh7ecgJfIskLAG96sFHgpRjZbtmPH8K2rwq+/OFtTITC0traaNEYKBZNhA5Gtwrg1l1NUNqUSDoxUKFQ61Hrxcm9T1qCRy2Wx3AwNBboLMgWvxwNE5q2vGDkc3QPb98KDv/kcO/iUiKonpvvY2NeJcSdITo3RZIDeuvkgcBTxrJrX6fb5HJ607dvbm+Lyyrnb5CTSTDEcYsUrkQj0fj+fX/q8VH9l3VhORwyCwmFu8RyOCkXyz+ceLWGWAXhHE6QO0ngpAS+REEPAG96sFHgxlhzCm3Xr6vp1Y5/dq5gw3r4dMWhkmYG8WFZky/qtD7rqVDZtAxW6a0N1iOrGZ4kJ7w8apFLWTh+Ad8igMQTkNRiAuxDepIoth+Gj4CU5tZqTT6fH61ClNjX62Jp17Vc69W6NwWgILDB4F4SXISgC8tZngqqVYmaUvQK8pCl4yySe9j2xyV11EF4b+Fo4cLm8rm2kYpVEXMqchneUgJdISCHgDW+WhnfJbmVvBrwUuVy2oz4r/er6xEtjsScmKLfv3DZTzBDegWHMdGLLzagYYBZstkDVAkrtoGrdc/zvgx6/lDUoh/DCQ8NGvFGDwQvhNQ8lbDrX1kFHbXDvrxpUvbDho3Lv/r5jazaVJw3JjLCdmRdiCx4B5HW458ThZEgqNzI9FIzicTjcPhKAlzcH3il5F7nAFrDYCeD1AHjF3syHiefaUhB4gQ+hB+DN73r05Xq3i0Qa9UudOLyjS46kCBHeWbwS8K7AEPCGNysGXrNGLms+SM6++sdDsfcTAbzDd7IAvBSj0YwNyxwV546dp6E2FYceT8fhjal9+4P2gXdNbo+H1SJnGDIAvEbjFLwGD5dLISc19R7uCGhNj1doAwPW9l+89vlY3EShpZhshvfmwVVd8Ij++fCCipdUWSlwy+U+hkQgkTAYQRVvKPDqYcXrLCsT82Tt63oPR1O1OLywxQ9it0cf3pI3JAdlMRCXVCom4CUSYgh4w5uVAu8AZpJTZAPk7Ft/PHP/g0ahJmN4eIBCobAMBjN5OHP0TE1XCoAXhXZStVYb2h394OsdWdkat4fLavExKAMyrtHIMsIJw3AShdFIIXduqmmrxZcnOHQ1qlWAz0pPTb34+RfrEtgnT1pgvcvDdzTg8Hr57uAYDG4BiQTElUCAvSyj27FMePGGvMDSsoJSt6y9aWvyqdT9Vthtgk6HE4aQ6LZzcRkmMYC35Gllqdg5uvQQtlCXGqpeHd4l+SW2k4U9BLzhzYqBd8AoN8oynmXf+t2ZJ3uuTLApAwOYjMsyeuUm8sH28qPJ0fn2KXhVEN7a6nN7/vCM7eMZKGYThBfjGimswJKtwciiUDIy8npzou02K4A3H8Brg5t5VfkdXTXrjhffKoTjh728KT69Bu8C8Hq5FKPBLZFIxADeKpExkrJseB0OngfAyywrKHNyMzsrzl1eux9v8wN3NdhQOCH5yfFnEom+ZNeqKgnDoSfgJRJSCHjDm2XCuyC+bwi8GiNGMWenr6+Ie5jAZlNkGIS33ydviTzYnrcl57wKdiYD7qpVNqsN6cjpvfK9yTUB3WUzJijDmBHCi18qM7DAF5CR+eRRVC1qtdo4nHw6+HwKrXKvrTvq8OmECIvFwvYxHHCZwQn35sK9ZHyvN1heaaYMY3l9DJ+P4RTpZWmy4KWGmbcWOUkB4OXxi4okZc/LBB6uPm/k5vU+VQBeNYS3Lio58TjF5XKW7NpVJXG59a9lqYH5VCSafWJi+fAusejw8ccEvGEOAW94s3LgpWiMZrOpuFhYkdc+xGYbKTIZ3KK72gfgvRJ37lg++BK0OLwQYHvXo03t77HFExRsm8nnmqCkYVwKZp6CF34BmVdi22rt1t1W8BgOgFelUO7du/96Tu+J9FsWl4li5DlwF3lufC8ufz68jtEEoL/BzXDLDV69X5rJfRV43UWwC0NlpYBnNAiPPjiVYrfhHRtwePM7cmKvDE3DyyDgJRJiCHjDmxDgDc4bCe/wAMVgAvAOFotOlGdSTABe2LAMwMtuyTr48NBX1eBL0GoVOLwoitCOjeTJ3mW7eJThLJNPzKDUN3NZAF4DLF+NFDPZnNA41kVHrbuVAXhpdlS7e+/aG2vyLFevWrxcGUbhQXfhgrAXh5fvDaLXMToq5XL1AqYTtnLwj/r18y6uBWcBed1OQZGziEkC8JqcZ45s7qChoAan48OFkJjatnsPkyZckqcQXp9br38d28lweIGsc08KLxfel9D78ccbN4b7J/83HgLe8GZFwdtiMg2SPcJRI5zljsO7E4d3x57TyVG6WfAiuvybp6UZ2WyLBgPwulw+WXMzqE7NLAPcG2akUIyGvPsXonU2q7JBAX+vR2iwU8P+t75YN3QLwivNHMgA9wXuwq0NbkeRcwF4RaNSqUcvrHIaKJhMOjq6fHj1Tocb9srhF4mK3IYWX8XIzegY1AZHX+Dw0rq7ap50TlhewCsi4CUSSgh4w5sVA+8wxQjhJQ/I9HqDyTQl70641DCwY0/s4egX8MIDEfSUB08wcwubbcQORmpcFrmsWSaDFbLBy4PuGniOuHuXUwC8+Jg1NYLYaQiC1F74oN2YfvXqpEOfmZFh4PF4sC+ZwetwFhXh8M6h1+HwwHETIpHTwzJTjB69Y9nwgsc6QMXs9jr0IofhwOoTR3OjulW2/Q12+AQAeGOiHpw+4bKUMkvgUoNT9PrgrQrujfMa4YXvDPMP/m89BLzhzcqBFzMWA3ix4TTM4JabTRoNgDdt54HJyRbs+Nf32jp06Ay8uvzomqa/mtjpLRTZQcqEi90iy8zE4TV6NRozcFdA2pp8DR51o3LocAcBaqfpdLXVl/60nXXgwGqJwJE0NGT0Anl5cKlhYXjd3hfOemBhPM3xMuElkZxeA96hbPXk+ic11d0qq3I/hFdBtdNo0Td7KwC8Rf6SKiYBL5FQQ8Ab3iwb3vn9eX9BeGWLwHsHGxgeMLdkp2uw7duHjQwfy8TWGGXNOLxsWfvXYxBerTIALygU606NPfyrzwXgzWyWMSbTW7HHj7kyCK9BYyo2G4Sksi1tqT1arU0F3YVX4wC8N2qeJAyn7eTymRKXZigDwOuc6o7jLHIG3J1Fr9fNgGcmvHA3r0AADxC/ErxOAK+BIvXvKimaLBU23WurBfBq1eAJoAJ4dR1t5wC8kiK/qIopcQpfG7zM1wDvovSC91SG+yf/Nx4C3vDmFeCdV/KGv+KdhrfFgNVvH2YBeItNJiOAdGf/5OQBWfsHNV0pKlSr1ari4+kKG0q7fuxSO4S3lZKZyXX7WvCXMhmceWmkmFkG/fo/nuvS9SitNgSeVdBabSoare5CYqfejGGP/UUSF7t4SAPhdcK9ZG4g5kLwiiUSt8FodAuqQDnKWODkWijwMkHFy5WOAnhLS/VXYnNSeqxWLZxgTKXSabqU6q/OTLAlTj4odp0CAl4ioYWAN7z5+7xG6EsR/P0PMzfOK37x3H3vm3cjbgN4/xyR/bf/ON64UCP07f+MhPCmAXgHsm5ve5EpZoMlJpMHB8GdBwLwIrA5o0oV/6IR+p3ISHC/wcFis3kgkmw2GFhmCniTQsFY/f0HMq/cz41ObUBVKhWdHh+vVVrt0TmnE/5qkpvMFK7MaDCYB8FLECObLWdh3H65sXPTkWidDcCLxtPzVTarFqV3R9XsyUzS8AyYzK93s8FdvTz3S4NbixfEsOSdgndmBdgxZ83XEQzxNL7w4hoPPxohkUjb7x/uyAf/hCjUdrudzolH6qKSDw2ZxKDk9ftFTIlEsBi80xEIRkXMsjLmaEnlovCKZm0n27hxWQLPhXcxe4mLa+EOAW948yrwLtWu7L33vp2B94eF4I2bgheD8GaFAu+21lYA7zDlxAt4qdT4F6N/vk2bKpRfjKzAsMiIZxqNDGOxdkofXrpc16NU0WJiYjgcjnKvFYl6dEb/n2YKhQVDoVCMRhaGyWQatoXNam7mHxjsvP/2eQivFaXn51NtViVK72jrfXhwyCWeeIZJpR7f5KRv3qLuopmy9CXvmmlXtlj1C5PZfj85qg4BtTtqp9Hi4aTk6NxD7cXiUghvCbN0ctGKNxhe/2hI8G5cJrwLlsDBIU6uhT0EvOHN32dBGsB0yUWHnwHe28H0viZ4hzIwrpHlb7p0LAbVQnhBxctpUFp1XTVx+lZzwF0AL4vyAl45hNf0rCn2bAoOLxKAF1S80YdP/+kPAF7fICb1z8C7HHp/Mrzc9sRHXSkAXtsseE+3awC8IgBvUankdcP7YvTPq9JLwPtGhoA3vHkFeJds0Bs+eM1z4S2G8Pb3jzaObaZNwQtnXSpttGP3mjytrFmB8GIQXh+3udljGIobOzYNL77UYEPyq8+t27G92CL2mY1SvQHA6w4DvI+ffFV9HsCLIi/gPXy0kxeA1y+SvH54NxDwrsQQ8IY3wfCGcJltzs2vC97bs/F9LfCSI4qLKRlwkbf8yZrNOhReHoNLvPEKJUq/ef8Kd5A1J+AhmCkAL9eQdKimC/xGD+HV0elwVwOScvPowx3/LLa4XAauX8r1TZa6DcuAFwf1p8PbvO5cWzQdFrx0ELUa4ZzP6W2aIJUy8Yr3NcJb+eIARQjwvgRfAt43MgS84c0KhvcZDi/GMpZvqjk1G14t2v32uuOUIHihvGa2jwHh5Xaezo3Oh/DaAvCiKl30kSft278xAXg1Hr3U6JWEA14DN683JyqfCgreKXjpKW0jecIAvCJALgEvkVBCwBveTMP7Unrn8hsCvN+8++4dCO+72X/736HDO3vB4afDiz0r1mgysEgzq/zQEQCvVkWn0e1qNYAXqXuw5y6FFRxsgKwJwCvt7L1cF4PDq6LT7agNOHdqTePxg1kal8vldug9FANDMg1vyPQu5nHo8HoNeUeTu+pweGOm4T23qVwgqSri4/LOgzfY4dDhrQqC99XoDexyIOB9w0LAG96sYHiLTXBXQ1qkOQCvlRpD1yH4YHRd7ZGH/yQHsdvfj6WRTT43gBeTNt2rptEAvPiv9BBeet2xe00HB575ALwMCK+RwfD+8vC65eWHHlWDpxOxwwVrNYC3tvqTQydEkiomn6/XCwSvDd4qAt6VHALe8Obv0+4uRe+Ms0v2iXzv+/dmwbujcSwM8JLTMOCuZggbjiSXn34QBSpeKuyqi6g5akSXcuThD3PhpRghvJEmHoA3DctsGovS6RD84FoA3pjrZ2M7KUOaCZfPx3A4ALxuBmxMZvjJ+C4LXt/k+k01x6bgpYF/RhBVXVfy1rxRZyUoefl60ULwzr0pRHhnHaCompNXg3fuogMBb9hDwBverFR4MQAvG8IbGUnJO5obDeDtyc+fgpfWUdP0D3MQvF4fJW2gWDMF75prAF6FFlWB3+jtNhuSf+3C6VGDx+vzsX1untvAMrrdYYB3cnJ93FjbDLwKFMK7JU/vBvA6+foFejUQ8BJZIAS84c3KhtcE4MWMeb250QioeFMBvCiHE4/ERNeU/zUYXp+PcnDgGYA3Lc2c1PjF9SB4b3xxSOjlGQwmkxwyazR4eeGAt7Aq795cePOjDvfGJfEqK5lOR3jgrSLg/fWFgDe8AfD+1w8/hIDvLHiD8/rgnUPvT4e3uHhIRqYkxY3knEcDSw2ogsqJ13VHnSt/lxUEr3w1Dq/XmBZp1OPwqgG89il4694ae8KUe4xmM8uIe2vweAxTWZTekDReFrzicWbTvctz4I2JyhmJyzRUljGdbv0CU4aLiubSGwK8klnwVgW5uwC9s256Kbwz9BLwhj0EvOHNyob3GQXAq9800gbgVcDJaYBf8Ni6rnMnWlnmufCuXi07eJBs9Boxs3x0Cl4FosPh1SK1n1+KE8gNFAyj4PDyeGGBt3Rc0HTpcl3+bHijc0Yajxsrn5dJCHiJhBoC3vAmGN4F6A0+qPazwjsL358KrwHAm5ERCeA913beFoBX1QDh7esaOZE9H15W/UGyCcDLYgjjjlyEn0Kh1sXk01VWK1J7NjZPIDfCAZoeg8lkcDs8xhDgDYHeZcLrhP3JUgGTAF71DLyUyoLnpW7PAjPXlgvvhU2WF/CCu4cAb9CkCgLeX0MIeMObnxPev4QTXkzmZWdHZAxkTcOrhvBSG6g6HZKyeWR9NouyALwDxQajUS5eH4C3oQGHF4Xwvn2/3HmAhWGZfo+BZTZMOAzhgdfRfv9mSqrNhsOrotrQmOi2NXt2YJUFBSS3x0/ASySkEPCGNz8d3vmd0XF43//z9r/816vBO2XvT4NXxnUDeMkDd3B418L5wgF443X268d6dy0CL0VjMPpIc+C14/Be+ADAi8HRaXqDedDkmAWvYbETbCFddVvmGq8Xh1drU9EAvFSqzTYXXv+i8E7f/DPBuyi9s+GdppeAN+wh4A1vlgXvgpl5RzC8218Kb1bEu7e34fACaPEG6ovACxMZOQteVXA/3n/Mh5dCoZifRURkkG9j/kNfVQN41fQYu4oK13jtF8/G7pq31ODzYfX1mNEtZ4GKd9ORMKjM/QAAIABJREFUiwgOb3x+vgrAq6u9kNjp6JfJZFyPwy1vMTn0MpnB+1rhhZkHbxDA4lJ3JoC3waZS2Wk0NYcKvLx+eWxdpqbyOUnC4On1RYK50hYtG94zk4LZ8M7P8uCdV/++Q4x3fwNCwBvezJxcWyCLXmmb4/D8kjiUNd6/ZEW8fyfyzp//PBw55e6sZM29xDa4bWD49hx443WISh0/PYHiP95Li3xRHE+FRc76ZjhjyPSfWMLpT7rWwuE99J4eFarm6HTXLtwXZuN3mooRxOce2F4vc0hW72zxvYBXweFMw/v1Fb2BK6OYzWzxZLqcL21uNnqDzq4FQ8vDM/UGHySY25dK7JwqgWeXxJJS18Tps2upCD0G0BvPoaoR9OLnY3ECcaXI42VIHA5BUOZtL4PwVsFG6KOV45aXT6BgzoZ3cWfn5SXwzggc7p/833gIeMObFQuvifzNH+5mGEytOLx9NpsNhxfB4f0scQF4NQPbt1MczNU7W9nw4loAXvULeD9oAvAaKYOt7MJC9qvA6+XP0/VV4HWdfnsGXk68zgbgrSAVVvplHonEScBLJKQQ8IY3bya8QdvKXgneway7w0HwxsxUvKPZU4XxC3o1AN6DFHfR6p07fcLpNV4Irzpwce2DJoeJQjGaB30kMVvukDZjRm/QpbXgq2zBFS+4Za6vy4eXCSpeCC8Nh1cNx87h8IKKl8sPGV58qcG/PHhnqF10yWE59BLwhjcEvOHNyoeXlXDok64UFJ0F78WF4JXLM+oPUrzO/p07p/fxQnjpnAC8Zy81Ok0Uo9dodpMkPq/Tgy0XXu9rgZcB4W2YgdcegNdVpSfgJRJ6CHjDm9cA75wjxK9pqWHuaQryK8BrJmcNA3jlEN6arhQEtangr+cBeN++P/q3ufCyWCZTxsGDFAOfi+3sD5xcUzUotWo1XYfD+/m9OAHbaOAZzAYnQ+51eFlTR9i887N4xRsk7LLhdRZBeC8CeGkAXh14RukqCK/YItBL+SSSwLkMeKt+PniXxpeAN7wh4A1vVjy8LRDezQBedBa8ZxeEl3Iwg2Ls5zbvZEmb1kRPwws+lVWJdt84coiUbtI4eGZQ6BoNDre837A8eL0/C7z5qouX10zBW0XASyTEEPCGN280vC/ojczKWia8g4MA3oMZGnmLMeHQms0pOgS10yEvAFLdxc9jR/82aJ5Lr6mFIst4ZjZwmzEWt2nsGlxqUGrh/REtgPda7tH17GKNk2cyGymwKaRP7g06QDHvLMUSFe8iCQleHYSXDgrefGTtsXMVLguJLxVVkpa11LBceKeofdnGstDpJeANbwh4w5uVD2+//8nYsfOz4UXWAnj/PRhecwtlaOhZMUvW3IzJrtzrotPUCu0LeGNSLveuL44wOd0mM2zY4Ga4fMuEd17F+2rwCufCS58Db4jbyQh4f/Mh4A1vXje8U0cq3gR4IweGB0zyA4aEF/DS7FPwHrs3+u/bZrb84hkcpMgAvGYAr0yWEHusOwaBQy7BZ1EDf2Pyq0fKI755NuHWsCC8XsakTx58aDj4BPHPUfEKhEfPAnjtAF58gtxseEkCcKcl4XW8OrwBbIPfJuD9FYaAN7xZwfAODAxnUQC80nX3Ll+fDS/at/le5zx4zYMZsqHiYjPW3MxlZZ4+3JEP4bVBeFEtSqdF1+Qd/Ms3vAmNwSjDMKPPt1x4X0vFyxes7z27T4lOw6ujIdcvjwTg5RPwEgk1BLzhzeuANzg/Hd5Zp4dfEV7yIDlj4A9Z5gC8N3F4aQF41WjfqbHOv849ZAzgNWOyIdMUvEOHHkXV6SC8VDp4AFBJ1/Fg3Y7/958al8/n5cowioYtN8zJC3hn6A2ueL3L6hO5ELwOvuBE7+f7tLPgtV+/icMrAvBKeD8/vAskGNyXtokk4H0jQsAb3qx8eI2ZjZfOzoU3NWpN+Tx4WRBeNtuE1Tf3y41xI20pOvBFa6kcuhqUvihSd/P0n777p8bicvGShjCKWb5ceN2vBV7hH0cu71PaZuBVXTvbm+eyVIqkDgkBL5EQQ8Ab3rzx8OL4vtJSwxS8/bLG2LPRc+CNif6k/K+Dg3PkhXOJM0wA3rT6Zq/clHf0JniMzToFr1aL5LeN7NkB4LW4JnhDMsxsCoJ3rsELVrzL6xO5ELx8D4D32D6l1j51cU1H67n2dmyeBcDL9UgYoS41lJYW+f3Mnw/eObcR8L6BIeANb34b8L59bQ68tI6F4N35Al6+JX300IOo2fAq0Ziow/f/tF1zy2KB8A5gRs0y4XW/Hngrzm3er1SqpuGl99y4cL+cjcPrJOAlEmIIeMOb1w8v/r7XC+/trOFlLzVsw+E1ydNZzXvuz4f3xH8OTstLmVpqwAYGiiG825uLJtP1T468gBc8VqnU0mrb7v1phyb91i0LLwnAa/AtLq/hJRVvyH0i58MrcPKlwn/B4Y2B8IInVBez763P7penW56LuFz3xJLwPv2l4F2qTSQBb3hDwBverGR4M4azBk0HDmBN9y/g8Npn4H2QN6viheu74G8MC8BbjzEm03l5Y5vpdtQaGJGphfDGdBz5uh3Am87WwKtrxsXZXRhe90+G1+n0etZXfLVZqVRSA/CqkZ61b32R2BmoeN0Ovf5NqXiXqnkJeMMbAt7w5h+Ls7sQwdOyvoRg/Ka/zjRCP964BsCL2rQAXrpCC+FdMwXv+1kQ3qysee4G85s1PHy7NXJeI3Rg6FQj9OEBkEgYqC8geNs2MiUD3EZukcvLD312DQG2qNQw8YhN1/1gz18izXBbGNdgHpS7DZS04UgWRqZoNEYsDeuXy527tuSkxCBaLdzVoNy7F/xuj649G9ukyU5ny/tZBkfSwADFYMSz4DIDJHSes3MkXkjboJvcXoMbSIoDDN/Nkx84sfXBjX1KBYdOt9sRtcKq7Ns81qhnSKoEbjcoiKULnhmeFcH8AxTw5wCZ3QgdH+/ODAHexaANDgHvGxcC3vDmH//x88D797/++bvA6J/j62bBS3198FKp8fGgTusLwAvlzYKJhPDiPc2eZWQc3D7cYrGs3/TFDfyoF6CaEx+PqnQxb3/93YA5STYw4OENtsqdfNnw9jQzy4w35gUPp3gkpV8+OlWHaBtU4FPt3bvXZo+xKW8c2aTPlq/m9x/oL9IfrP9p8C7UGH1e8waDwQ3xDMDr5nnT00+MnL2xr0HN4eTTwXdv2703pa233CESCQUMSZH/8Xx452dJeItCgfdlFS4B7xsfAt7wJkR459C71KJDOOCNHMgawNnFA9unDz6jQHgH2Zb1cWM4vPD8LwdUySod7ezXO7AWg2x4mMszt8jdXiytPtI81RGdZSZTPO7JipHLHTpUQaXT1crdVgAvor2e09s5aFpdVsTayaLIZEbjAvDOpje4ac4ceL3BJyoWh9cJ3hF4b3p6xbnL15QNajUoeVWoCt2tTGnb0ukJwCsA8DokL1fX6XT+TPAuj14C3vCGgDe8WTHwRkYCd7fBVd6pxd7BwWcZB+uHB+XpwrixzbpZ8NoQ2ucftBtbDOS7d2Ue1qDJAMe24+u8AFEjfMXgdefdvxBFQ20NPXQ7PDqsitHp6rqOJCZQ2GWlrOG7kTy3gfVT4OUHnyFeCF7wWFDC4iu9+Iqv3Hfmq80XtQq1Oh7Ca0etyvM5AF6+SITDK5XOa9bwc8E7y1kC3l9fCHjDm2XDC5wNBd6/hgDv33F47w6HBm8EDm/5wvDCtd3b27YFJhJDd4GeEN6DA6wD6frGe5/nQ3gBWBz8ALDurUtNvHQT+dtvMC4FVLqD2/o9RvMgDi8uL4sl71y3pjpGZVXuo+oQwJKdBuxOuXlpjyzbImel1ZPlPsPLK96ZhFbxuheAF944NXsYR9PHOPOoqw/F4bWrULXaui/68NFOLr+IKZCISSK/PzAb842Ddx6+BLzhDQFvePMK8C6xxhseeMmDgxERg2Yz4BO+NBoxMoB3AMKbbWi6dLaPpkMhvPHxapsV1Z364ok+XT5451tMJsNkwGxvkddMnlXymllJD2NzOmKsSqUKPE0IgujodHxo0JWI1lasWWY8kG76SfDOq3gXgzdwI17JOt36rcnRqahCodbR8KuFtn1RyVtHuXyHSCAWk4r8ficBL5EQQsAb3oQM7xKby4Ka5MBdDdPwNi4A7/HvAvB+C+FdzN158P75Lvkl8LZGRJhNEN7b8CVGfvaMPHAwg9XSSrly/8L1GAivVgF7jSltANDTwmy2aTASwAvovXPbR3JDeKG8RiO+UJHRnvgoKh/8Lq8An01nRxA6R4303TiSmHDnH5Fcv3P1YvDO7hMZRO/LK94FMmOxE0fTkwC796AKqhpuAdOqwVfU9WhrST+El0QqlfD504PgXw7vnO1k8OfgVeCdlnYhi5ekl4A3vCHgDW9WErytrXBrLoR30EjBIiMinmUclBlNreT2xCOn6ubAe/1yr/BvxSaTGcOm4BUH4MU3NoCSd9s2ckbjvcvXEZtVQafToExUjgK11x5bs679LuYpYa4+wPpJ8M6veF8GLzwY4WS4pVdic1I4aEPDFLzxupRjNWdKVhPwElleCHjDm7DB+79eJ7zvzYKXDOAlA1ABvBEZGQDe/9yWmbimOkWH2qzga4BtzW26uq6Rzn8v1mg0FCgvgJftclOmjlME5CUPPutMPLK5DnwKO1xkAN9Ag0Kho3VcHlvXLhv0ru5nBe9qCO4SOQ9e3itUvNPugrjlXunDe2219Cl4tTi8l0c2Va3m8yG84hDgFRDwEtER8IY7y4A3pJNsUxMoQoD3zrvLhDdr+GXwFkN54Wk0fD9ZJJaGV7wZMi6rNSJz3VjbeXgA2Arg1QF4kfzoNZ3/iCiemDBHYrLjsuHbcoucNUteQO9gcVLTpbejUxEEwEu3o1qrVkHV6eqiz46tw9d5520nMwbXvMG7HHjLrnin/Q0cYpPLE9atqe5WKRoa6LDghfBG5/ZWVDGWBa/+tcEbsHZBjQl43+wQ8IY3Pz+8O34ReAcBvIMREcBcCkhkVtoUvJlcY+ttWWNvTjQNQQPwKpRWhH7+SOMP3zybmCi+PTBw/PjANvY0vGSzObC1gWUaak9cs7kWlJb0fACvcvduLSc+3p566uzYpqTb/09zM/cnwRtSxTuVgLteubzp/mddMQDeVBxeVB1Pj3pwOq9yEsDLBPAy3kx4F+oSScAb3hDwhjfLgvel+M6B993Z8I79dHi//XYWvIoF1ni3DRabBwdv34k0U7jcIWxgGMD7DK94jaA4bTqdfIoegJdOV2itqK4u90n9P7/RsIsjsgaOZ2JkExvAC3s2kMlmFq6o0UjJaDqaGwWeJACvWgHhBY+m7lt7LedcXObd5sfB8M5b6Z23zyGo4nWDW0IsePElB7k879LZaJpCweHg8+NQhFNXXfPkRGWpky8SAXidfI/D+XJ6nQzH64V3QYuD4F2gQS8Bb3hDwBve/FrgvbskvLBavfPtHUw6OqqXDdQDeLOfPRvIyDTu3DbQlFizOV8H4aXT6SqbDYh1ObZ9xz+L2dkRERBes4ltMlPwU2tAXrzk/f/Zu/egps+8f/jrKaGwu/c+f0MAY4KpEFBk0ZRUSAxHDwzzGyJ05/ndDydTEGNnqjY6Yhr63OQbNz9UGu8xyUxVuDuTwzc3FJJACUFOCUhMMIoCT52qe++ynrbDYUhYyCzPdX0DCgEEW2ms/b5nt0CAECLz4sPne12fS0skEvrDNzYlhqqAtwBeUbwSvEZSkLghTbfDIyNLl9m5tlp4XauFF1oK6l2Xy1O8eeOWVtV8eBObrld/fKSkGIO3GIcXzyqDw+vfvDa8S9A7d6OXXQDv9ltRL4fkLAPvA0PUkx0GCO/QquA1RDW8Al5nQyCEd2jIyZ/547H+0hQA7xSPN5Vi52sdxqCqAPAYILxKrF0LxKJu2Vgd+90UJz2dl8yvs9tQFMKrweT1Xl+j2Wjo2LGTXe2JoOTFTrxUilUqqkQhtHSE7OsJP6ZeZufaUgQvW/Gu5kwKrOCFe9iKP93WdSIREQrh9gm5GXwbSWf3h1WpIbzq/Jzi4rEZ9dj42Et7l8DXH/D6DOjF4X0LgsPr37wT8D4echoadERi0NBgI7//6NE/QnjZPADvlyk2/k6jIbL6+sVKbFkDN3QW3uB9J7/5Lo3D4dCJcIObDnVgla5Wh+17o9F0bJnNMyGtDTt1WYzAfRdCEslqFVMlJAmCWE4czDgq+InwrmYwOmQUQgo/cmxryUfvH7hc6YWXLPbCu6+zCB0ZKcmeUecUR4zBnWs4vHhWDg6vf+M3eL9/w/AaHFqiHdxbKoD3WGSRjG3D4AXyRv99KLW251oiFTErSVwuBq9ccrapp/t+Gqe+no4mp8ggvNFeeL3LeXUOZ4yt4FJ66o2aDQlKkoQqkVDJ1gQFFRJsVl49n3GMg64W3hf0LlXxvpLe8XHvJF7XpGZy/NMj//v9/SGVErjzeQ7ekANxsXoA72EAb844hPfFLN+l6YXwqosxeIt/Vnh96MXh9W9weP2bNwuvN4ODWI835v4cvBcXzeNdXcWbNpsGA/igQEPjoBODlzR/Hm8vNgjdGQQHkzkA0Mn9mZvv1aba2ey0qanAWwYbTW808KtOdl1OggdKcBkUAKdZLqkMLt91f6q+noPybWx2EGEKVLpErZY4By8BVLwFl4ZvNX9w/sQmCyIBlS6AN4lCkUgk1iunBsJzF8O7fNN3CXhhVoB3bEzNnPRMFI+5WSyNayz3t5+cKetNMiuVsMcrN8uFSGLZt/eKaNPTxdig3fFxtXr8NeEtXwTvZgjv4TWFF9Lr5x/8X3tweP2bv7w+vAv0XWpA7+Dgo8c7djy/f//5S3gRDN7ZEyhezmqYhXcIZAG5C29IMzQ2NhjBx9oJbQBeK3YChRwBVagZDkKv/eEZ22ZzDhn1vORbt5jhJzvv5fJSZI1fOtMMRj1dgEbz74YPXNwE4FUwGKBiVbaYEeu58zeK6PXpO9l1dTadbioNekskzjuDzd43akqPStl14Vpwhwr8fS9ELKHcSqsZUSWWnfmsPwtd5OxS8C7YQrFihTsfXTgeJ7Woz5SXN8avu1vqyurPPLQnmGJuaVEyuBR4ACcJObvv/U+OlRI1EcXr1nnXivlmUa/hBbylOQDezUvAu/5wPjy2wgvv3IuVDX6Vs4vzqZ9/8H/tweH1b9YS3gfPdqw5vPDon9q/PmXb2I2DRg5KvLWdGR420HlMmiyLAfA26Dl0OhrEZteGvXeZPB9eccKpC22jAN66ujqaFp1KTl549qUu2Z7Mk3LSd6RWXz8A5AXOmRFyKJckF/du+SKjzaj/eeCVAngn6+7edbuYVffONCXCbSBmBsULLzX42//3/zl210YcW7duXXHxEu6+nfCexuH1d3B4/ZsfC+98epeH9/FrwLuA3teD929PnUFpjY1GDs++Pa1/8/WasGN9yU6n004gOFCBQGdoHKzq/PxEqLxFCOGVAHgtiHjDxvDRdD3NBuDVSIm+8NIIzltpU1Kpjt8ccL2pFcDb0iK3kCkIknTifGd3ykPjXq3WR9qlWw3z6PUZ3bASvQDe1NGCvAkNv3TGJWW2nbzTXglXI5stZJVEqZQzGGVnPvljJJ+vGcfgHV9wYW0ZetcM3pfULttyeCnvv3B4/RscXv/mXYHX2TjY6NBPObentX12put2Zl9yQ1paMpHggJNwDINPm+/VbKkQm73wys1yiwq5fGBb2zCA12ajoWjyUvA6baxJWvT25vCN165YQaXZYpYjKu6J9zp3xT5/uNejIa45vExmzroJAY2v3upBmZk9+0K4WMWLqDB4uYnXDn3MSuVrXTmAXczdXwa8eMXr9+Dw+jc/Hd7F8Qe8jeCOHCiAN7ntsy/2lwf0EaOiAqeIcG2YlmYY/K9U8ChayXKlgkSlwuVkZBVytul25o4pAO9OGs1BsBMWwqsj2O12Pl+r1w/z+jMGLl5BEGV8fLyZnHhx4MY39wdpJesmibTXgXdeVgWvy+WFN0tnYx0+YkKZ4RubKkJh5Q3hRZRKhHv28wxWEJ/vHgfwRrjGxtVq9RLdhoX6vg3w4hWv34PD69+8O/DGyAhoQ+Ot5LbNd5q64qr6jBi80UFBRF2Q4e+s7s6u4A7EDI8rk4vFFjJiTgq5c68oOToaugvKY194ddio3p16Tj0nPTIAsM21tsS3mBPLyuOaYx4ETW7dOqlba3hdUmlOjjbI5l43YpIeO7knOJQsVyhh3Q3hVVVeHQiwNfDdYzk5wN2ssfxfCrx4xev34PD6Nz8e3uXpHXz66PHj7XPwFq0a3nnWvia8z7zw8tIAvP33vii71lnLNAZO8XiEtCGn3RYUrdc03ygvq7CYRSKhUC4mAcBarGf3hVUlG6IdWq3DMOT0hZfIZ5WybDv3mi6Z0u3NNzY2hXTAE4CC9x3KnDIYiO7167VE2uz5mLPaLrecbM5b32ttKzYbALyj+SxY8I6YRjN7rrWSyWIIr4RqAY9FtenUhVoaDbqb45rUuMfy85eF9wW942sI7+I5kXjF+7YGh9e/eVfgdTbGxAQ50hoNPGb1wfbCgYD+9MApVKpLaxx0soMcekFKd8/+kFC5SAQvSnG5AF4lt6w8oHl7AzqpIRiGFlW8RBaLRaPtXT89TY96FNt97/a+4MpK7pVrPZn09HTUzdq5U6ddc3jp9FF1Kl99eiRv4rfb7rRXqLzwUigAXgs5uOZG1eTkWM7WnPFJVAvg7f+FwItXvH4PDq9/81PgXY7ehfDG7lo9vC+0fd1WA9tul8U4HWnOQLRvV03wiYMnj/GmeFIpSmiEU3ga9PpbzSf3BXdgHVIJgJcib2mhBB8I635uQF2TurQ0m2+ngcii7dQLpkum9UODsqK2/syefe0hwYUb743W15si3PzGRp0Wk/cFvb6LHBbTu8QKs1fHMzqmLi3N/7RgYiLzNvjFgagsoGIXMigSBKF0lF3ojhyPGMfg1Wqz1Pn9M36G14vtkhrjFe9bFRxe/+ZdgTcIwNsYHWR3QHhPtF68nekIDJR6pDrnYIzTCeB9FBv+bVOixfwSXjOS2F4eEGtHBQBewvy9E154iTv/nm4qKXE779+XlY6lpx/tubPvwMa4yOH6S3nr3HUymW3t4Z2YGCstndn66YT0WMaddq4YwCuRyyUYvNzWfR/E9uUU50B4XZpJ2Gkodf8i4MUrXr8Hh9e/+WnwLo3vC3i/f314Z8V9bXht9piYxoZoG08K4a08UR7ubLzFo3s0QY0ymTNaz3mSknl7X0goXAUroYSGWuRKM6DrwAdFKQ5U12DQYUdcLry4Fm3kmKYj+LL79+tYnvp6aW1GT09ctx3AO1Li5tfVEb3uLqZ3Mbyz3vr2HhZB63NTREEBgFc9Xkxnwg4vBTx7EokckVAAvKrK4Dv3UrTj4/A4tpwx15gawMvSjPnsopi3wuxngndJi/GK9y0LDq9/867AG5QGKt4GAlFPZ1bXnLAkHohLiXkaxTEJdPaUOjZBwHnsbNt2pyxRjG0/oIjlZniRraNwYFdkMiFtyKATaHzhJTj0HM5emq0uNlbG1l+6NPxlc2Z4berQMOdSnkdrS+UTaWsP77qxUveYxyNti6vZUqmSA3LlQgn4L1UFD+zMlArGXJPY0e8A1vz8Me0vBF684vV3cHj9m58O72J6fyq8vlfaVrFl2BkN4HU2OHTpnNHqmqtyysXO5ljw5U0eIlwVRhTQjWl94bf3h1jNEF6y2GyGgx7EJ7pOZvYZtg8G6QToInh1UtT49wbb3cg62eDfLx2nP0jJzVXzDdF7BXS90WC3vSa8S1xtWwLehTcWR2Sx3C66gFl94b3LVpWEwiUJhQqGBLhLDv785NG8CRe4O1fO1q2Yt+AN3x0UC0fmjL8l8J7G4fVzcHj9m7cH3u0/Cd7AQKeMHe1wAHjDaza0qNoHqpsfPBmuN6FEuBwXFegJaVUnu672YhUv2dzSIpGAV680ncmIdD4ftKGcRfDqdFqiYbDRps53R//Xw4h/sRoJnoLpm7a6OpvDGBUVmKZbe3hdWW71mIdDP3by4IZNSoTK4JJICgCvSkXp2HKh+tPjeWMa7Tx4J12/DHjxitffweH1b9YG3mdP3nDFOzjYYAT/8Y6FVC4Bb1RgSgrw0DicPrq5ZsNuJPhORrfs1nB9vZ5gr2OzHXqU9yw2AOglEpnJZJU5Pp7BaIlv6Q3Z936u/YGTKJiFl+i9yIYdv2azy2QyO1FgMgn20urqYlN0pkum9XWxMTIbSucEBupoOt2S9K4I7xy9i+DNmpx8+S7spTp/awHHc7Tn2hVri5IKj4xTKEgAXm7vqQ9ip4+PHIaHyI/n5IxluVwRIL7X1MZ8B/SOvw3w4hWvv4PD69+8PfBu9615fSrewFdWvDui7Hy+LrphOD0Hg7d1f091UeAwh6NvYLPZzgajTve3B93XT11OSFBayBRlvAjCG2/tKPv2k9QYp1bA0S8qeIMaY2RFfFp6ev10cansfmyRllMP4b0fY5NOmHhTbx5e722T829Q565bZ1r339+WdbTsFkmoCIIIIbzkyivnb9yvPz6SO6aBWyfGXV54Fy1meDvhxStefweH17/5y1/+4ZOfhi82JvL5bKvh6fwtw2a5ikIRy1+cQHFrx5PHhtnDLm/5ZiG8QOZbQ87GwaHotKqTcBC6RALhVUlISvOmstu1Pzx1NsKdZ0HOxiiO+l7NBoXFerkmYCo9PZpt22nUO4LSnCkp/3iWmnFwS69SKSclkczKJKuyJV5JDt53qDbWqdtroqOohkaIdjhQFHWkpdmTibo0u51P1DnSOYJJFjtGxtfqOYKb/DoZm69xSdGXnQZffOd0XRLi+W0GX361Nn724eJiWLl6QCYmPNnZ+TnrRo++vy+kJX53AoViFSOSpCQSoqq8fP5GCudSXq6rLZoOAAAgAElEQVTa7VZnHwYfH1FcnKXVjM1Ru+TAnB8D79blsnpxF/GLV7z+Dg6vf7Mm8D7a/vjxw8HF8JLJ8+Dd/tgLr3MV8KZF7WiMiRl86Eir6nzvcqhqDl6F0twL4P3bU1CbTukdzsbGQCkzYOMWLtm8+1QcvT49JraOxqnnEJxfxsY+ejx87H14ec1MSkqiUqwA3hal5Gz7wbhvUhr2TtN5Ug0xqKHBgQrgoe8pyb4Le2mzPQgtXL6r1Wq1bx5eGpufvfVIScH0BICUbjJNRGRnq7Nyj2V8W9YbvxvAG/ohKPcZSSS5qjLkQE/tKMfTrwY5PB4xPV2yLsfN52eNeWf5vkF4D8O3Xh/e+c4urntxeP0bHF7/5k3BO0cvhPf568I7tCS88+idhTfqVfAGpjucMTENKAYvRR6/oefPnGGZrG4vgHfKHhMjuzU8zLxXvsUqVwoZDAaFRJKblUpJZci167uKBvXTgimils9mB+luegTo1FTyC3hn276gwIWveieSYf4uC+8ctauEd47eLJeb5c4unp72eOB7pKMFBVuzszUEZmbP/lZxS7xIQSZbxdgR8wq5JbHwzslMZtZo1tjY4cPj2evXH96ar2Zp4cFCbym8C27C4fVvcHj9mzcNL6R31fBiZ64Bd1cL7ysr3kCs4p2DV4WcKA9nPnHabLS9HL3DLkuxBwZGJXd3vtcK8JJQGQwJsEYpRLgVZV1x3TE0D5pm5/NT2Gw+a9IlRXlTvgXvi8L3BbM/Dt759PrCO771sEsgEKBaLQtkbDxna76LZmjO2NPegYCnDlFZLBayCnzfCqWc3NpU3lndHzHqiig+fDibxSqdyc8fw+7o7YB3nrM4vG9dcHj9mzcPL4bvG4bXsDK8X/rAqzq7/2TzP6J27qTt3aufcsqCUD0vKq1o18b2ShKCSCC8YpJEgpBDQwoHAmIJAoIzpa6uTsau47snNSjK460A75J5LXhfZvZKmivn02IBiqIaFguugWOx1Pn5AjS5eqAp0YIwKCqJEuBIJqskQoVIJOe2FtZ8kDnq8XimS7bO3K2ruztzeF0xXN2Aw4tnpeDw+jfvLryVJwZ2PY9K1wMOjYGNMh1doGu49WXzIThqRi4Ef6yLSQwqlapScUMOdH6TOpXmlEF4obwsjQYw7Qd4i9dN0Hmohllayq+rg/Sq1VJ1beeBVrLYwg0lk0QKCTmUQqVKFKLdSrnqylc1GUdzRyG8+XfrZHWsw0eOjOPw4llFcHj9m3cXXkrv5x/EDg/raVqaMarRiZr26uzORynhZ9rJiFmhUAjFFEAYRYJYuO01Ac1pBjbb5pWXbaPdRPWLl5etPbwRBSYeT6Pu7y/l2/gsN4tF7OurPdnVHio3i0NDKVaRUkJJSpKAkle0W2RGxOe+2vhZZr+UM1vy8rNLSnB48awmOLz+zZuDdz69q4H31o4V4X1J74+AF1FuuNDNGzbSWCxjlNOOcvYCUQ3JbSevVSItIqEQ/tmuojBIoHJsvXZhV0qazgFQ5bPZgF6bVrAsvCvQOx/fZdf1zoHrc6nN5THReX3MfgAvkajJHh93TSWn3isvqxC3tCjJFApJaZZbN/VKVFSSSCQyy8WKyxfLT1YzeZzpI/+cuXuXtX562vXWrGp4Ke1SFuPw+jc4vP7NOwsvRd5y7nwc8+thHYsVHWXno5ydMlldWmBfdXkw16wEESMqlYVCErXIO4K7OruTeUaHXiCg2ZwAXtZNdIktxGsO7ygGb+RMqVbqKThy5EhEYEr3hWsVZHOLSIlYLGK5XG5NSGDAXoMCnqWBcM8WHuysZXJMeUd+98eP89fvFeDw4llNcHj9mzcJ77yVDa8Bb+PQ0HZfd+ftYXsNeKOdMbPwVlJUDHn8uQ3X276OIvD5DYZklt4YJJPJ0hyBVWHXzpKAvHLEAopIlVwU3yKuKKsJaOOlp6dzTOtpbHZdHezyLgvvquldtK7Xl16f1oNrdGJU2pea2tcnNeWNfPTRR8VTVXEHT1AsZqWChMDvGJErrVYGlJekSFCQJFRK4paaztosuqnkX//+77/L3ul4u+D1WruUxji8/g0Or3/zLsEbuABeZbzoXFdAmsHAtg8NEVmOv7PrZDGNxqjk6usbuPDhiCkULoWCAHjlqtaL18OZgYEA3mmBDcDLZ2lp/oGXmZqanIya8o4fH8kzuZj3Bgo3gTqXRALfqhnCa1aSGFBeKkmRxKCq5OZNFw+ezBzTc6Y/+t//cZhGw+HFs5rg8Po3bxbeOXxXhDf11fDeGlqYVcFrBPAORqHM6gEMXmF8i/VaZ3PKrcbGwSEbq+Ehu0gWM9jg6Ku6cf6KCmAmZnCTuBREKQJ/xldePnCoLTktKr3e5KGxZXVwp/Ar4F31RbZlWg1z4Pq2Hlyjo+rUopRkKXD3konzd2bm7Wut1hY5gkgUIlGLmGyBj5sE6KWo4GU2hqQl/sPLhV8cyuyLSp8+8m+n3ay3aR3vqzDG4fVvcHj9m3cWXqpQaUZO1ARU2R89fdoYpDMM8VMhvKgm5ZuwwsRQuJY3CcIrx7q93BNdGbXNdiPHRAfwsvlEh7/gZfKTk0dHjh83pRsaa8OuhZDlSjn4hyKJRGYxxSJGEIRkJQF4VSpuEoMkijeHJpZ1hdWmBnKmP/1Nv3oMhxfPKoLD69+8eXifPVvFzrXXhHdoBXifYfBGA3h38JjVWKuBKpEgyOVTYdV9t54NOp0NBjuRZWscihZ4plICvmhPhCN2QFQqi4UCFKMmFm7s3NU8xaPTHUFONp+2IryL6dUtM6xs9fN5BQKXupTP1058dPwSJ62oOe58cCUZEUvAPxTcJiymwIeKkBRWK4WsIlMYcDiv0EJp3XKws7YPpY/n5ub/EuDFz1zzf3B4/Zt3Bt6YwHQAb8xLeKlURP7h5a5tubwd9jrnwzR7ssMYHR2915Q+zIw7H6JSScRCsViMCUZSmOWJhTUfdBdNAXgNjXatlL78crI3B69vl1dA9+SoWUTpxEcjnMCU7riDV62ISkWRkITwt4RErBRTVdgFNhKZTLFYxEqFIokhkct7t3T1ZObSpWO5/b8EePGK1//B4fVvflHwLjskZxl4zcrKptv/KTXy77IfpiUHDhuNO6N3currA2MvnACcwWENoHYEsiUk7G4hJZ66AEpeKeowOG3SURNdRyASF509/Mpmg24ZeleGd5ZeAWf603xWMnF0pCDd3hz3RfumeHMoBQ7FUQhBtStvUUpAJQ/7vBay1So2t7QIGbDdoKwo2/P+f45KpWqs1TA3hXc85+2EF694/R8cXv/G7/A+h/C+yHLw7rg11Dg4+DAawHvgcqjvPN6/PW2EZwM1DDU27nB44UWEgCixXBXSldGWZuNHGwnJOx4beTSdMb2+/vH9XV+cqEQgvAorSSgXJySIWuTI5fcuBFT1BTYYgogaKQjK4zlgdEBRIjyD7SfD63sDiwXQFcB4p58LBB61upQpNZnoU1UBNWUdLfFmAC4DwouISXJzUkj7hquXrQgiFgN45WalhMFQiOJbkIr2Pe+H96NSdDJLjZlbXFwc4cpaqupdDbzj4zlbP/1061ZMXLzifQeDw+vf/O1vvuj6QvwjJIaD0F/AWzQLr1L8At5yeAIFBu+t588Hh7bP23mxqPadXV+23WAA8jrT2k56T6CgWuAJFELsBIq2v/4DDvUF2bEjitBcvbGsUmJuMSMUBkW1acOFXfcf/V2/15GcFjjFQ3mOwKjAtL5jn9y5giBCoVChECmVZhIpVCxUJl2+dj2gaHCogaYlJif3SaU8Hi/QaHSgkEwdYRG8i5xd7hLbcvCy+HdZkx4TYJbu8XgipqfXs/j80pn8YlM6j3nv+sUrFuzcDkZSEgl8p0qrHGlt+uJ6zVdXLCqERBIjKgpDQgUqi1rM4t4t58PCmenpxNL+/hl3dkTJkZJpgdatHvOJywXhLcDgzVsaXsH4YQDvunXr4NnFS5K7TFbUFt8y/NYEh9e/WRt4n7wOvHBy+rPZNcDLwfv8USA8+gfAe2g+vJIX8DZEG4Zu7YiKimI3BwB4SS2gCgTwIqJz5z/4xjms36sjpBGmpni8qcBb2+1Mj2nbV70kiUQoEgF45RZyaKhQgajO7r++KzbmoQPV2ex2wC78BDgtTAMq3iXd/anw1s3BK510ZUesd/P5fPfhYo8+MDL8zLUrJLmcJAHwMhgkpRLAK04q+3bbrhvXT4VwLXKhHHYfQDlstZKULWb5h1c/78lk8phM9UypO3u85MiRYs+kW+0r76rgHX8Jb04ODu+7GBxe/2YhvFDZnwzvo7mK97sFrYaF8M62GlYL76PtDQ1Diyvel/AaGmbhtXnhBQUiQqVI5Mpzpy7sinQYdzqIyYGBGLw7bqUla7Pu1VztRRDF7t0KiUQSyg0lS4SIiht8IKw79h9R6XTt0PYdgTsCp9BJl0tDczgIjqkVOr2vgPeFtL5v8m001OMx0aVSDYvlzs5msVjZEdN0o6Goumd/MFcslMslFPDNUhUikRmx9F4+cDv8m29uDOw/C5fBKawkCjeJwQDfplmOhF5purMtk6kendRobmaPY92BfNdk1tsDLz4k5y0KDq9/swbwvqh4/QuvGdSKAN6kE12HwkujH0ZDeIG8U1OBBoPdTqz94Hx7qEoJ4KVSAV+wbyxBECjvrpTAdDr68BH4soY0IsvtZtEcgYGg9H3j8GrAx6ACz6hU2tcHx++yQP07PW3iOJp3Xd8X0oGISWIEwAsemkKkRFQdl09d3xyZEtt87/b+EC5iFonEKkYSA46JJAktqtDWsq6w8KMTqB71bM3PLi2d+eNvxgUuHF48SwSH17/xhXeJvPmK9+WWYQze+ee1bV+a3teH1yynwAVlcvGVpjPb2tiDBuJUmrfknUq75TTYi7rD9ieS5SIArwrASwJ3JwZ/zicFd4W19aVz0o0NhOS0oUYn28bn03QOB2+5yeiLLrG9otngC+/NmxrBZFaWpi85GU4+57vHJ0z19XR1QOf59koLIiRJ4DcpkcuVSjMSCgef19rSdkwd23wG1rzgKaVS4O5hKoNkJVnI3NbC82Gf5PCM+ul//aa0ru7ux78p9nhwePEsERxe/2YN4F254v0Z4IU7ghlUBPwJ3hGy73Z13QMnkdCwI2qKJyUSCWlDQ87tX2aeaQohKZVCCYXCZQjNFjJJFB/fQg4+0BPO5AUaHUQiPLa4EdjL12rRNYEXHq6m0cByN9lms/FZY8UeDsdz9LPbB070InKhkEFVUSVC2N+F7jYd7OwugqsyTH/efPtaCAWRg1qYisGblKQggX/N3qtd72f2T9ELPvp9dp2sbuafJdMROLx4lggOr3+zJhXvs2dzx7sPD/+wZKth9nj3W7eeP3i+NvAi8IAJRKlEQiuaNgY0xzgJBIPBQCBqtERbWprBsP0vkRkHCxPF2DFADIlQTg4Vt+zeHW+uDN7Xk8k0BDl4qFRLYw8+HXTaWFlZKG/ZrWyvpHcBvgvh1U56IjyTWm0fkJdIBLe6XR69ET3232f2tydazfB3AhWe9yPCGrwd7Xt6AqpS95ouHc+jtwUMXExUISASzF4GIwnAi4g3FX6xrZopnfjoX4dZdXWlh6ffALyLFpMtvbhsNfDiYyHfmuDw+jdrUfE+//7RWwCvxMqgSkQiMTm0/SAGbzQGr1ZD1BGCgoJ2/OVWc1z5llaySqxQCAE7oR2h8nggr1wVsr8noDmVYEyneyZpzkEIrztLO7UG8EZEuDTY4WruySyPYHRU6iCk1mZ8uz+kQiU2e4txFZziI5KTO0AlDtx1e6ZHjh/nJBcFDBTCtQ1yuUIxu/JBAneEAHnDqtsmRkZKsktLs7NxePEsHRxe/+Zvf/vhhzcO77NnTyC8332Pwbtr6VYDPN59KXiX1Pe14UVUFCtJIkxIUFpCgw/egPA2GAxps5vRCARd4OOn97s7u9o7yPKW+BazXALgtQiVot0iOTfkwPXqqrTHX6cLPK6bNFuQzUbUvnIT2yrp9b3WpnG5Jvn8ulRmVsTEhMk0MTr1KKW2c+P+4IpQlUUsEQpJDC585pRi2GgYuFeVyjo8LvAUFNCn7FVx5Rfh6XHKhISEuTVncnOLNXFLV1j4qMk0XXL6dH72+vU/vcd72JsF8i69pWIV8L7AF4fXv8Hh9W/WAl4g79sAL4kkIQF4xeTg8zeaGw3RDYa0NIINqkvQ6bQ654M/xHaH7WlPxOCVUMmhoWQqVQG7DZbgA9fj2ojDRh4K6HVrYYXM568BvJOTWn4dgNc1kWcymUZH+2J3dR68GFIBCVRRqRIhgFcslyPkjtam8oxae9DNw9k2UH9reDxmW8b1ayEUi1mUkKDAug0kCK9Z3nuiqyczi2PK++hPpw+vvzmJw4tnieDw+jcQXpg32eN9gFW8T79bPbzbffMG4LV44RVayJcBvLcM0dFBQWy7DRjaEE3QoURZzIPnRdU9B4Its/DCUEkK0e74lt4T+858dpSZvP3ZQ+NkhIuWNtRofxW8q77I5rujQkO0AXjdHpOpnsPj9VXt6iy/eNkKDyWCQSQUCgPuUFO1Nn1xMjOS6Ngb4QZS1/GloDw+dm/gYiIZESoUQuwSG0MiEcNfIr1bDma0EdKBvEeKs91vDN6X1Pq+/brwnsa3DPs/OLz+zRrAO1vx+h1eoVAiAfgi5BMA3qgoDF422wk+tCHagdrqZOyGHanV169dsSrNcgkVQSwUeO6wCNa8HSFNd97fXBv73R+26zwRguihQSefv0bw8vluAZ3DkTKbqwIudF0M6YDbIUC9SyYj4AWJBB5VRWH5yepI9c29e29qUgG8tsm8EROz+cbGphA4J1IuJHlXN1ARuGOvoqy8s6oPNeWVFI9nj+Hw4lkiOLz+jf8q3kdP/vJkzeGlUFQWC4A3cjgKuBsE2G1sNBggvLq6Oq3jcVpz3MbCkA6xxaICpWMSl6xSKUXx8WYV92zZvjOd3bH/8yBN6hHoG4acbNur4V1yaM4r4dVqpFItH8CrRfV6KbN2143rB9pDKi0AQYlEwmCEUhCVimSldCS27zlUHek+nL3+Jqopjbx71yYoGckbTe2OK29KDFUhiEKhwBY3gG9CpETIiRdr4mr7pKbp4vw3sGX4zcOLTyfzf3B4/Rv/Vbw/D7xUlUV8teaGOn24AcDrxOAF7jr0OrZNgxp32LvjNu4PqSCDDxclJCSRVWQxXDYLas3KkKaDnbu+iXXyBHS9A6C9BvB6PHBRA4AXlfZXx10YOBVcyYUrd2FIVi4FmGrhckPK9vRUR/YJig9nuzUatbo/+6ZgOq8gQhvZhv3aUKkU3gtsVJVKQlIIEeTKhprO2n6ppzgnf/wthBeveP0fHF7/Zg7eV9D7s1e8S+wcXhneaF94xdhyLKqKYt1QE5dbP2xwpmHuOoMIOh2qd7Cd0UZ9oKGoKm5jUytZJVSKRAkkOC0nVCyGBzsIQ0O2dF0PqEo2pnM4AhrN5l3XgKLeg98JNsJLcHU6+L75vL766trctTWPCYOX5tCjxzZfP1B4uVeiUlEZSQpFS3yLUkwOtSoRVdLVzy/squqj06ezs7PHXagADh7bu3e6eEytabtR81WiSiUXieCaXwYFfDIDfLJyU2F5xtFRz8TYbMH7YkLveETEj4Z3jlrft/GK9xcYHF7/Zg3g/ckV74+Cd1HFC+AlwbPJLNar51/C64QtAxrA0xE99LDBgU6lfdkdd7CwosMK55TJkdCOjlAyGZ6dLkTIFe37B07WMqf0qECgWeLYYQKWV1W8y9S8cxUvnS4gwnW87v6jGbcPBHeIRXCBAiMpQRQfH98C4RVZKk8Ad78p4tFNgvXZ+ac9xvTpkY+m9+68eXhrDp34zY2aslaKHJ5WDz6PAdVOSIiPRxILz2w7mjs6mvXTh+S8eXjxitf/weH1b/7xwyvhhYy+LsQLKt6vX3Vx7cmt7U8fPH/06JFX15fwLtpP8Wi7oWHw+Sy8cEYtkEJClZDM2CD0v/6jcWiosfFW2o4dD9lFuwawDRSIWAzPy5GLO7YcjOsfjmowNDQYDIagIIxKh8NhHDIE6XRTO/pqT8KNFEqREkEk3EquxWIBJS827jYx+NrBsIDm2MaH6fUmjjE6KEUWcz8mJsWmEZhMHr4Mhs222XQ7dbS9e2m2lyES+UR+UJANG33Dt2Ebgmdf8r3zcMBbNM2khkZIa+S3be7ZUxjc2xIfr7RQKKDiVbbApcVCpVyeuOV82K6qVCYcmO4pzskBFe90SUmEgKYZz4kQoH21GV9cvCIGblrIcEgkmcpQwKnulivXyk+Gq+npdHV/rnpMo/EUFxREuLLUTBZrLGfd1ny1OqtghN6/ubwwSUVWqbARQeDngQThhdPTc3K2AnhBts6Xd5kew0pZgl4cXv8Gh9e/+eHNw7ug4l0e3ls7loMX0IsBjuE7D94Hi+CdPfoHwAuDweuchVeOgAJOolCYxR1lXXGRTx42zCbaG4feEQTKXyKKSvtq42q2VFhFSjIsGBnek3VCKQwGlcq9cvXzmg92fSMz1tdzjA1O4C5IDFvrybs0zY+NiYnB5A3auXMnhNc+G8zXPj4sr+fBW8pPSYFM870Bt4H3EZP5qbUZ5U0hXBVcTwHhpZCEZjhbjaFUSiq3lJ+sVbvG87NZLO1oQYH3pIq5uF15I0czNl68QgG/ZuByuFAy7PImKM1m87kNNWGZo+kcZn9uv1pzc31JSUFEFpOZmgrhze+fcXsKRqRtm88U9mLwkiRU+POwFLw+weF9F4LD69+sAbyrrHjXHF6VCjuUzQvvswXwBgUF6YCTbBmAl5MeVdTdWVPYi5g3JUgAtxIx+KObbLUCeFUqSu/lDeevx9Wm3vrL18NGI09ns8sAt41pejpdgPIc0dE6IhCUzcYK37ldxXDyglYL+77gS0XPdX9pGLY6mg5FaTQin5/K1xmHUoqqMzYeKAuppFCFIpFSSAJVq0WuFClIcCrZpi2fh1UzUc/04RkWnyidmJgE8MLT2bIAu5MQ3ryczLiar0JCEcRi/dAK0CYxSBBuufXKxS+2HZXypKNjOePZ2a6I4uLxsSxmX6p7fN26/JlStydvJKsNVLy9FjJctQa+nmq21YDD++4Hh9e/WQHepQb0rkHF67uo4WeoeAk0PuDSTkTT04fTmnd9ULOFvOnyOTjvC8gHAPrQC6+K3FER3HSnJ+Cb+8+neHAymEmgc8bcfxAT4zBdqgd1MF0qJdrYTplMZkNRVCCAV99mX7gmUWPUwygjT+DxeASoHr158+bevXv1MDqtxp3Fm7I377qwp721g9ubWMmlUEG5SpLAxy0SiYQqVW9hzYV7bX0o3TPuZvH5mtFR14JMAk7H22o/GLgYQlHJRQkJFkpSEgNueROKQzuCm749Wds/KpVGrDt9GlTMpTP5YxpNqTqnuHistJQFKt6stowvwG8cbDGEF16L9T0c3l9DcHj9mzWA90dUvH6ANxqwK5OxbaDiHQbydscNfHVik1DeIlICeSkqsVLhhRc86I7W9mvlF27UStMff/31cD08qscB7JVxgLv1cKevhhhkaIyRBaH0OXhB9HoUnpc5BcpkqWfU46Hz0jkm0/r1N4GgfKKGDj47XXos/NDGa8EdcrPZmsTlcikUoVJpllMpJKWoBSEnFtbEVbf18Tim6fGZUj6/L2sRvK5s11hqd9zGi2fJiHK3SE5KSsIGo5OsYnIFXBCXOcrj0df96T/y+XV1d2fGPVnq/OKJiEkA72RBnrRt8xdbkhDwRMEFbDi8v6Lg8Po3K8K7dPthjSve7b6X1948vEHQXZnMjtLr64eHCX3duzpPVajM8btF8CgzqkQugT1eQJg1NDS0orW98L2eTGbK//xff/26/tLx43k362Jj7elTPJ5UmgV8dQRG7TA45q9mgJkiEqUvgvLoEN6brLtFRUWpTClU++ihM/vbK6xKuIZBruKCmlcOXlcyQilis1nVWrgxrioSuOuFN5XP9IXX5XK7PRF05rGM8sJEeNp7i5LEgN1hEpxZRg69sqHm5DEpnM/7f/+zTiarmzk8UZyTUzzhcQN4XQUF0ioArxXBFjXI5QBeMgavaxweDb9unS+5OLzvTnB4/Zs1gPcNVLw/A7zRQU6ZLEbmdAB469OHeX3JtWHvnbBiBEoYSfD4XuxvdgX4GnIVuaMy5NrGzhvf3P/r34brL5lMAlAwp6Sk2O3JycQph0Ov1wsEmrlrZjbv6gWb3Wknavu0RCJhyoFKs0aLI/bu/Hs0LcvNv/WPR8m//V/vn7lWFtKhgof4wOPlJaDklZhb4kVWLlmFdLRe3HgPlLsop940HZFdejeVxfRtNbgmWW7XNCi6M+EVNhKQVynEBvRCeYUIIj63oXzbsVSeaeRPp1lwMvrWkoKcnIkJT9bMTCmAlxd5r7wQVrxeeBEVhZK0MryvMRodh/dtDQ6vf/N2VLyPfPH9GeBtMDhlMTGNBBQOqOHQpfTRqhsHT3yIyUuCnVIGhYqAh42t77WQKaG9J07VdNYW2bffctoJjvR6Dr+oKCVF1jgEt8IJPMVbs+tg4IU2G/ZanazR6fW3cSiN6B7P/TiybvD/+5qTl0ff/j/3vwm70xScWBlKJpMp1oQEhRLQh8BT4kQQXnJoyMWBuCqmlG4ymaans92ld1msrMXwukuzp/NG8nJr4wYunqXIW1rMQgUJ/MZgwCHDiFh57uKZk7VMqWmkJJt1txTAW5IzOjExMT4zo/bCewb2eIG7ZrMcgefF9763ee8cvMVYy2HlknfFGhiH960LDq9/83ZUvP6ANzqazYbrEwhSD52uhx2Hx7E3ajb0AoLMEF4GhSJB5OYWDF65UChBrJuunjp4IW5XVVGKIWo4Xe8tb4PgXeloWhaLXydje2OzsTGDbTaadzVZUDQBvAH+2h+KSq83rcPdapgAACAASURBVPtteNyFmq+uftgiN8thS5mblGTF1u6CchXU2CQK+cqWg2HVbRqNwOOZno5YDy+tsTRLwDsz4xZM5+VNMKviNl4MCQUPXukdEwnXNoBHr7zS1NVZzeSYpku2fvzHf26djhjH4O3vV49BeDdj8IqVSrgFA1a8L+HdisP7DgeH179ZDO+KBq9RxbsAX1+L1wBeh8NmgyvDnEQi3E6B0jmPn9//ZqCsQwX3gZESkuCBDgAywKFZSEpISEgKpVh7z214b6Az/Bizz55i1wmw3LxJgyvTYmJk7KCgIHjHIIQgwO/N7OzJycns7Gy3Rhs99PSHP3zfqAGS9Wdu+2L/5U27QeLjRQogPNz7oBBhXQ4KhSGxqEJPnP+gOyVr3Xh29vh4tpsFL8ixNHS6J2uBu1ku9QwriOYpWDcK+7xNraGIWbR7d4LQ221QggdPStxy8GQtyjGVfPTv//G7w+tvuiImJorzQcUL4EXbPvsWLicTK0QQXtjjTXoBb3FxznLwLjWf91X44vC+dcHh9W/WAN4fWfH+/PDSiPZGyKWd7TQERaftePLshy+rew6UJcKDHUQKOah3QSEI/gaXC0lwDA0CnzDruS2nDm7syajubibqvdm71yuvM9qh19O9EaA6B239bG5qtERCmmFoMKY5c/O2nuvlB9orVKoWKO9uDF4KmUwhKUSiFqUclL8UBKFsGdj15d/SC1ysUre7FLrLYmkE4H594c1289k2oqvAZJIeyzjTBGpepShBIcTkVQjhbw1575auQ5lZnOmRP/3pdPZNzVhxwURxNtbjHfEc++9vy5JUZDEJygsvrlFweH8dweH1b5aE99Wdh7WoeJ/NrR6b7S0suti2Bj1eo45mczbGyGSw1et03r/fSJRKeczNZ8oqVFYlMBDwq1AoxGJ4oCQ8ZN0sV4V2dHRUJiZeKTtwu7O6qi+Vb0trMBr16E2NRkujoXS6aSIPi8nkoQs4IHv36h3RQXZ+30z/sbbagM6BrsLgs5usYrgx+UPgLhyhBuilqiQSkhV8PxQulyGXq0503WM+SZd69xZj4xxcLg+4ywUb17CrayzwIIgeUx6Ut3x/KxmRiMFvCuxMColQbo6PV1aU3TmZmSUwlZQUZ7vdAN4CbB2vK29kAsIbqiKr4FHGSiHyOvDOk3bFrcQ4vG9dcHj9mzWA98dUvD8/vA2GQIeOAJc2yLCGA/v+fZnWVD/89VRmz4ETrVYxvNgkFpJIFolFQoETF+VmsYpiFWMjDUJDCt+rGegJywiorSpKSSZqmVlZGq0OhfTC0OkoOqXToRqNm29LiYkt6g7f9v7tjTXnP//qhBV8Ppy6HkqmwHYsgsCREhLwaCkMElzDyyAp5aqzhWcy2vrsNqhuHXR3bDxiCXizUK17BsiLTueZ0vvaMs7sDwklg+dGoSDBtXDgt4VIZFZVtu8Jq+6XCsCnZ6vVOQUF4+67d/mukY8Kcj8701QJfw4kXnhVlt7PcXh/DcHh9W/enor3Jb0/D7xDBoID1KJseMkrptFuAwAH6dPT0x/fqoo7WFbREUqRqCwSuJ2LQmEw4HxJUJfKsek1oDLkViZeCQkuO1AedmNX9zfNkTCpgGAbIRAkyuB0pshSUqtgvgHZdeP6nf1ll8+dO7fpQ7hulgoK21A4lQF8E7DaVADgwReSyOFZcQqFEglNbLqzrTuWryF6692xiOLiCM/kooIXRcdy1W4aTRDhQYmpx4CjrR1klXh2Pi8VESsShCpKxZausOpSjR51q9Xq8eJiAG8dgPf4RO4nt/fDQyzA06kUwiYvaROEd8zlwuF9t4PD69+8PRXvzwxvWmNjGsFohKsN2HDZl1arCzIMNTj0j//6h9h7G69tuQJn44KQobgMsVgM4RUqW5RmocRb9qoQcuuJU+drBi5cuBAW1hl3L6C6urYqsjm1KLW5qru7uzogLiMs7AJMzfmL7a0dsNKFC2blYjGJZCWJJWTvkZZAXqzkhcNq4HIyhVCIIBXtdz74hukRwHORpVkTBRMeAaiffeGVSkcjIiY867ELcCzXus8GLgZ3qBAFgBfoTpFIGElJCrm8t72rJ1MNKl61Gm4ZHiutq+OPf3TcJD128uCGTVzwdEqEcrkKh/dXExxe/2ZZeJen901XvNtn3V0e3kePnm9veNM71xpl9ujABqNDZ2M3Nhpok6b69KGYGFkd2/DoedGusIOF57A9tHD/MABMbv2QhHV6hRLvARHgr/iW+BZr0qYrl0FObLl46vzG2z09JzMgvwH34jJOHuq5vvHOvv1bToD3g0o3yaqEsiGIRG5WtojgZTtoOXbOmwSrrAGUZKFod7wItpbloRVNAwG5JpNHykOloxMTJjpK5LN8Ww1jo7z0+ryR0/l36+pK86cv5d6oaUokI0qFkApHrZEkcD7vbtjn/WLbUVA0u0tLx3Jyxkrv3i3N+eg4JzDy3oVTV89yKUB8OTYkxxfeJeRdNB9yxYGROLxvXXB4/Zu1gPc15/EughfQ6wvvo0cQ3gdOw/LwDgI+F8JLVUlIc9PJHj32hdfp9MLrIAQ5DdE0AYC3ISYmto5PNPzl+/tV9wbeu3o5sYNMJoMiFYHX2UjYnjAqVqKCGlWojI9vMSNzT2TluctXm5r2Hzhw8GBNzcGDXQcOXLt2cUs7PFUIC2JuUSrFFnAPEmyNGlw4K8RGQCrN2CQ1eGalmEwSxccrhSQALwK3DH/26aiUiI6Oeuh0umdSayMuBS9neuT3+Xfv3p3Jn67nFd243RTCFYOqGgHocrlwMvpu7ATMO4fCj41JpX3qsZz8mdK7rIiR4/Sp1NobF84XnuWCklcM63hL74GX8I6vBK/PlF4c3l9OcHj9mx+Wz3Lorijx998/e/Lk0QMfeOHG2+VOoPDNdt85kU+f7oDwNt6KhPAivvA+bRwcfD7YOLTj4Sy8EB44cUGolIs72rsyIp89McA0vAy25vZFdDoU6/jabTYdoSHNnswMv9B1ray1g4zANVnYIgFseAN2zUoMala4PdcbCDNspvb2Jp69ghXAoMS9cuXKpk2bEpJIgDMYuAdDKQL0kslwQYNYAsegUalCeNZEPOY3Yo5Xki1iuVhsoUgk4BZu74aN4VUpdmnBOrrRiOZ8mtUQqMGGQs6TN2tSKvBEjI+53e6xMY9HIG27NwDXNpiVQomFUlkJ6nU4ccdshRPVq5l0jpSpzs/9WH1zL306r2AsNTL3k/f3tFeCL08C/zgWCncfhBdeXIPnTwCAl2o2+BC8bIvhFQDj8Po3OLz+zTsD7zMI78PXgPclugQHgUCIhkdTEODWBzjexhH1ta07LuyL/e0hlVZsR5mQRGIwgJYWeECORW7G5tHAMWAKBUko92a28zv71M72c+Wzq9FIDJK1BYOXEjrXXgC1cwuE11pZWcmlKFuU4L0quI2BjL1UWQsH4rqLpBN5dKPBVpo7jvImJxfCi+E7d9PkZJbHRE+9B2teuIdNTIFzd+DQRyWoza1Xz4dl5tClTKY6d+v4+r17PTmf5jKJ9cf/89Ce9goyArdQWChJBzZzVg3vLL84vL+84PD6N68JL6bs2sO7aGrOyvA++vHwAnrnB4PXYXTGNHfHXe/aH1xhgQWraDe85iWUAEYRgCqoTElcLgPr0VqAxhYElLESyfyn1lvpwlYzlQq3BXNB9QvPNYMbhElwNzIoSoXwrAizuKI1ODgkkYFd3qJSJBQxiUSiwA89e3FjXBuPYzJN2mQyvmvdOpdmMbyul8dSTLoiJvtq48qbzsJKXWQNBV+LAa+cQVSvXCw/makelUqzxsbHsyez8//5m1yNLiu3v/rQnuAORGkGvzjgCRSciBfwzgaH950LDq9/sxbwPvtFwLug5vWFF8Tww3cxzbUnb+9pCm6tDDUDeOFAAzNWw0JL4YowLoX8MqEUhrcHPBsJ9cV74YwdQCAXux2eqaYQmpXwIGHw8CjcipCy/Xv27C87y4X/IhKJmKS0Wq1YaY0kFm7M6Odx6OOpspjGyd9/ujS88zI+SYTreZtCGHDMhNiS1Euiqqjw0HdVaGvTF2HhuXQpne6JyJ4B6VdLpTNVRSnHQM3b+6EZfEHlufPhOLy/guDw+jevDe8y/YdfXsW7EN/F8BKiduxIZh4LP3QG0JsIx8/Aa2Leq2KzF9nEMLBhCxsIZDJFwqAwGIzZlQogKkiueC6wV8HwXpyDHeKW+N2wt0uuCGnff+f2obDrXVsSyeBz4MYzuE0ZwouYP7yy/8zmfh6axeTLGok5OZMrwDvmdgtQuIftIjaf1yxhJFEgvAlWsYpc2Vp4vjNTiuo5nuL8mci7d++6PRGRzSkGKdw0sglKr4DwunzhfTW+OLy/wODw+jdrAe8vpeJ9NbwOnSMwKpAH6N12u+vaiZBKrnxuOQKQV4L5aRZ7V+V65cWqWW/m4MWuo4lhoQw+1QzlZcC9x9BdbPBuZWJw2b47t/87M7KqOqyrrDUJbqjAjAfygk9vaRHD8ZC1TGaWC+6lYC3V450fd6nbU18/mpsxcPGy1QyPKsYeCgN2N1Qqcu/VgyeP9ks59ILTH0fW1dWxptf1N/OnppiZh7rKEkNVCA7vryQ4vP7NW1rx+uK7ZvAu2XDwVrw2e1pDYOBUH7OtuvN61/6yVvLswHDYmwW1Kynhww+9M3TkWO9WhTUgvFfSZvdekOEqBTkGKfzDX8FgKISK2YYFgiCh8GCL8p6T4f1Tj76sijuzr/2sBA5twDq/ckRCoQjNSFLIqYG4qj5OXt46loz9qi4DXOPgnsn2mC5d+jM8AfOKGD5UyeyKDBIDPCLrpsLyzzKZPE7BkdMzdTI2q+SjrW61WtvHzOzZE1ypQpQJn/vA+9LfZeH1XdewmmVlOLz+DQ6vf/OWVrxvAby2FJnTmRYYGLgjLaW5Nu4QYDEYdnvJCCIXCoVUBunDDz+0KsXgS0m8K3y9l9OwAhi8lEgs8MBgeFawV+sPP1TAQHcRcmhlRWtr+/4vBjpvdFfxo77+2zN+bcbtA1c3JWGPWqTE4OUyYPl77quauLaJvOMfjbFXhDd7JltgupRnYlbFDVwM4crB/QhJcPswVmsjcvOmwi/CqiNRU17JYVYd3731yEjJ1o9L+VN9me/va68MlS9c1YDD+64Gh9e/WQW8KxK8RhXvfHx/Fnjn66vTwWPcBxvTCFOEtFv25Mi2zM6Bgweagmc3RABXhVYr1uLFjtqBzQWJeG5dGQyJRPKu+4XiYR0HMWBXKMQWnYVWBJddO1DekxGwq6qojmA0/j2a33Ys/PqpEyFwLwM8ZBjIS6FQJEJQKp/7auDebwsu5U1oNK90F/Z482doevrExCizNqO86SwFiC9KSCBhDwMALDdbEwsPdtZK6abp6fHs/MOHS0aOl8yUsoi80cyefcEdiPgahDfL9ULeVcG71JxIHN63OTi8/s1awPuGKl4/w0swDDUOYmf32A3bHz15HFjUfaPz9p6m9iubkpIYFAnw02swVeLt60okJLiZwtuhFSoVCiAvKIXhu7DjilVkuVIoJDGSkhKvtDftKe85ea82MjUlxcmm3bw5eZPFsqUGXPi8EMirIiUkQHjh9Tp4IU557uLGjMzRUVPehOvVJa9rLNtts/E1xQWmPx/ddqYphGIxJ3iPpIAbiMXmFjPSu6WmMzPXZJou+dfvT2evzzteMllaOinlSb01rxfeLBzedzs4vP7NquBdofGwBhUvvJuX8N7a/nzt4F2WXgGd12BwpqSkyFIab+2ICrQXVdXe67wwcP7zrzZcrph7AuFuYjhbAVvkK8aW52KXxuAqBmxrsffoIGTu4yuvnNhw6vOagUMZ4bVto3SU5yDQWG53tptle/io+caFPe2JcMeDAjsQAo7QgdVzUsjFjbDPe+mS58WYnOUus7FYdXV890Re3p+Pes+kEILHNtvn9V7XO3et/GRmlp4zfeRPv8vWTo/kCSbH3G4dQf3J7T3tvT7wgv+Mjb2a3kWTGpad3IDD+9YEh9e/WQt430DF6394g1BTnokX6GyUwVHpdoJWO5VmTy5q7t5144MLNZ8XBif2nj1byaWIMctEcJGvUAX3tIGSV+4d0WNRYuyKRC1mudhCSUqsrEwM2XLt/EDnBwG7qqqYfSjdZKILNFoWq7SUxQ96+F/Pv7nRs6+9Aq7nlWDwYr1jCiiWr3xVc6NbujK8k6hmJrKoju8ZOX5ptC0O1rzYJcEXYyZa4uOtIYXlhzKZDk/Jv36XzXIXT09Pe8ZKWUTp6CeHurYcwOH9NQSH1795iyveeePK1hZeH3xnK14ep56j5wU5G2PgnHQ7n9jw5NEte0pRcxWwt/N6zfnPT20Ale/cDBzEu194bsPavFe9b3WASverU+911VzvvLGru7mIn0wI5NHpJjpd54hmw1nnWhQdut9878y+4FaIpYSqojAUSjjdEXy62HuFrX4esUvCi/KkuW3NdWwUwEvvq834tikRXg6EJ2jCjrPEogT1N7e16WBndak0Yt3WMRaQdyRvepJVqp7kSY+FdZWHC1xZL3u84L9jYy/pfeXQHBzeX05weP2bt7ji9TO8gVHD6TzeVLS31cu22QzPHhkaCMnEvtRmUPfuApVvTc17hcGtlZWVSUlcGDhxgcv1znoMBaFgt3KTkiorQtqvna+50BkXF1AN1E2xBxGwEzalUhR1GBsMTjaf5R7P0T8MasvoOYDtYQOVbqhVJBKCl2QVYrae+6o84xhzbCV406W5f4zks2kR6yYEutJj274ogwPShIoEBdzBJrGQFCQJ4j3EuD8rYnysNDVVfSRvev3N/N+MOwy26kOHjrpweN/94PD6N6uG9xX0LnYXwPvMC+/wj4L3mS+8D55GQXgHV4DX8Obg1aU9//KWPXlqygji0OkcDcBfQ4PRmJ6erucR+ampVd0BcT23v+g6D/L5e6cull29evncpl64UYHKSNp07tzlE4WFF0+99zl4d9ed8p6TAbVVkW39ao3OYTTq9TTaTnZKbIqdgKIoTWez2Yh9GtMlDqF514XzVzd5x/NSlCIRSQJ3nonMoVcKN8ZFTnI8Yy4M3MlJjWZxi1fKo49muVmgjs3WaGmTxUdP1nwVEqqCp8fB+4EHvMFOr3VT4cFtRz10QdbM3aJUdcR0Xl7J1tI6WVHb0f/87fjYYnhfRe+C0ZDz4V1E75y6/wT/9/dP/q88OLz+zZrA+5Mr3kXwrnnFu4hehzPmfmxK8hQvPZ0DDw02PnTKZOxo4G59PYfD0aM63ZRWfSwzPCAAq37Des4cPH/q1FcbrmKD0a9u+OrU5+W3b4d13rhxY1fAvc2fHM3VEAwNPDqdDs/AxA6FZ8fGgi8h9Xg8kzRbUFBa2vTxS3+/H3vjwudXexkQXgsAMwFUqhJFgpUc2vrVQEC/4NUVb5aUzuOhk9kzpSxYQxes6/6gprAVPv3YBTYMXoYyPt58penbbUfHpFnq0tSiVHfxyPGR6dK7zc1q00RO/prDi1e8fg8Or3/zwx/m5xUMLwMv9NH3Ngjv48dPH3z3/bOox394CS+QZA7eFDgI/S9/2e5z2OWctI9evondBN7ePvT86bOh7VWdBy6LvfAiVAnJbN5Udrvtr/8YBHm+/da8QeiIZSG8zwxLZjl4HQ57TEwKked4+NDg8Ex7dEODsjp4pHB6+vCw0YjS9cbh4XS9VMpkphYVFTVXZYZvzujsDLtwfWBjefnGjbevh4Wd3PxJeGZtVXNzaipTnSVFjVEPo0Cpi509DODVsvgpKSl2ohb4qdHqoPaaaQEAvirg9p72VrJKLhLJLSQrXH0LJ/mqOq5sqLnH7OPRJ07ns3R6T8k6jU076fKZzytFUSlcVQaq3skITwSzNm4jXNsgVwrFEioFDuphKETxZmtr4cGTtUyUTkyNjOzPh1fYxmdmSjV0+nj++EJoYV7ZbFhiJvoKWfcpDq9/g8Pr36wJvN/948nXj59h8D75Q2z1C3ipVKEPvI++/34peBcVwU+eDMY8H3wctb258wD4y3kOXjmAt/1M219/wOD98taOx0vDG/cj4HXGyEB56hj87j775rTA0RiT0jcVGMjjOQyDjWzWmAC2C2AcDoeOpnWr1f39QLC2Y8eOwhw79sc/9quzsrImNRotkah7GdpstCC0BdHS+Ck2LZ0zffqT9/eVVYQKd+9WkingtxWc86BUkrgq1ZaBgKop+sTvT/Mb9KaRIxo70Qde30UOroh1xzafAfLKwR2IVdxKLlWSlJAgUpqRTRtqOmuz0nnM/txctfvm+uKSkgmPhpk1Nj62IOO+WXptw3yHfZ1dgPE/t24tKBj5P/7+yf+VB4fXv/GB9w/fL4/vOw7vwgG9Op3zwQMH3YQ23o9ha6dNHB2fTwDuSqVoUOOg0+ZGQdmLonrjbGbvgEAAsKIojQZH+joAy6geBa84jNFwwDoN3k70hkbUekOjwbe88NpS+FkRJo5Rndmzpz1RAmcAM1QSMYkEJ/OQqCpVYuFAXBWPM1HgYtForojZfsMr4J2MKJhsyyhvCoE1r5LE4CYlJYEiGtyh3Lppw8FDx6ampFk5uflqd/ZYBMgkM8u1xvDCgnfd/8Hh9W9weP0bH3hf4e5yPd43Be8Cev0Bb8NCeBu/+y6Qjg0gZ9Po9fUml9ZhdKAej1SX1ugM0ukaHFqNFk4xI8DurMEwNOS020Dgcex8m81ut9uI86pdDFvfmpfmE51Oo1a72U8fFFX37GuvFLfs3q3AzoInKZRmuYrCrawoLL/Xls4xFeTfrZPZIkaKV5hW5hobZ0XWZpyBu4dbWkQkhLFpEwOeAprwobWjtezOyW6mVCod3/q73+S7Wazs/HH4KSvAu+J83pXgPf3pp7/9rb9/8n/lweH1bxZVvDi83maDI0jm5HE4Dtn9WFkQvKJG9whQb28hOghuKXYQILM2AnzBJxIAv1jsQdjNQQBegk77ssewCniJNJQudZfelT347kFqZk9Xe4U4frdIAlc3MEhwXJmYq1JVbNkYx+TU522NLIqVefIiVoB30u0mEqXHPgPykswtIiUiSUoClTOVlJBgVYW2lh3szMxFeWjxp//2MauurvTjnAjP2sO79fTW/H5//+T/yoPD698shBfUu6/ZalgqPxXeJfKzwLtQX1tqqZSuN8TExsYWTQ0PD6fTIzyoMSrKaHRAMnU6ghMmyMZnuWE0GhrB4ZidbeZtJ2DTJQnLwusbIk1AlxLr6upkjQ8b+sIPHWjvEMWLhHC0OpUqwTYiI0ho4sWBe7n1pomZ5qK6mybPSvCW3tUKOKNHt5VfvGJtaWmRSyizA3oVVgk5tHXLwZ5PRgON9CN/+k1pXd3dj7dOT0esDO+r8V0Z3q2HS+/6+yf/Vx4cXv9mDt7vvf97Vcn7K4OXLWOjdFd/7a4bu7pTAx8/fgzIbYh6aEQFKIrqooN0tll4iVrsVAiBFHXwHFigrlotkTh/sPqq4JXSUaes7u5MtiA9KrU27Istm1rM3oG6VIkYO5eChMjPbdiYkTvByVLPlNL0gsmsleB10+svTRzNGDh12Qqv0iHU2WHtJIkFCe29uuf9zNSodNNHv5+5C77yzwPvaRxefweH17/xqXh/RI/3zcH7Cnp/Pnhn6SU4Gr/7PsqT+8m2nusXOndVFaWkgOdmaChNOxYh0OuND4fYNrvd6YRb0ACy8DobD8bxkl6dbhl4l6dXKp1qjJGV/ubfRkzDhuaAkwdPwJFn3mm/FPjdCpNISuWHWw5mHOPQJ9bls4K0r2jveuEtdXsuHc/7c1vAwLUrsM8rJymSZo8gkkgspN72O4dq+emmkSNbZ0pL8w+XFKwS3lfQu0he3x7vv07P4PD6Nzi8/s0CeEG1+7qrGt5VeKOjnYNPHzr6wnu6rl18r+ZC3K5vYlNSUmJiUvhahx7F4LUR4JHwOgcPhaGjsAU8Jy/M/IOEdC96D6+seYnAcv7Y6Y9GptMb7JFVGV3BZyvFZjj+jEGhWpQiRRJs9vZeLY/rN9XnFUyyVhrQOzkzwxKY8vImpM334GR0s9msSEhQYPAyKHD0WUVZV1g105Q3MrL1cPbhwyUl42sP70f/+hiH17/B4fVvfHu8q6h4VzT49eF9uevt7YHXVsqP+sv33WHvBSf1hjR1XfjgRnhmd+z9+7LGh0aBwBHEthN4sLTlzboLt7eBV1/WvYEv1V2cpdiFy8nsRI3H41m/XiDQsvi22kP7ys6SWuLjdyckUVTk/7+9dw1q6lwbv/+1Siw883/x9EmDFoNNK2fdWCoKQQ7BVh0+GO1+P7mVsrU2Ou+zdeMzxRT3jEkchirQGUNmPNaZmMAjysktxHPwEALEIxYNBETl2KIj5BHm8b3vtZKQrJUjxCyq128lIVlZIQH0lyvXfd3XXf/l8vgwqURWf/vQ1AffnjtXu+j0S9fezRw6/VYYxB3cvHkQr4BJrPqeR/bnxSvD4TaR4sSFa3ev27zplz9Q0Iv96AvxOujPay/e/3nL9L/8DxwQL7OMo6rhAxEv6+32io7WsweP3Ea/pqtzj/z8879+nH/r7NnYqJ7w0a052mJ9IxZtaXYjVi0yb35pY8BYogFHvGSk65V401SjtbUplZUNw8PDDc9Lf9hwN3caIV52KBLvijyRNIwjlsmmfbxv9bcRyLxuAl6k3mFhebnQ9Lq29vV//PPH8/NCZChuxiux4XQD2Z932sLrn6/7qPaXTX98vxUZ0g/i/eN7EC/DgHiZhZrj9aCqwW3mYSLidWJff4rXrF6tUNhYUXTj4JED6PN4SMHto0fnnl956atlN7L6wl9vHmUh8UYQ4e2bwMDAN5iKqip+EBnm4pkRZSr7+oaysgDX8lVxhVlZqojacymVXN52vGpl7eC6DWt21dfF1ZVIiZUz5XJRvCCejWLehfse3HuWkZIzpliHcykylSreTINi+QAAIABJREFU/axybf6mf2zaTHRGD5XgBeRFIstK83Fx8sTcu1/8MFqLYt5tr9avf+lOvO7681qnEDsR7/989scf34F4mQXEyyzUiHfAfVXDByLe5OLkyDe6ZUi8KCqU4d9VyP65h346eWl62ouIiJwAXPQQQViXz+fr9TV9fX01NTV4uA2Pt5WVYvV6J14uVygUskpTUiJylLzt24cXjdRm5K+7uWbXtHqZBP88uH2DPB6ZVyaTrFg4deniNxml7sRb2phw70J5ccDIP/5Rm3959Y/IvKEK3LlBRKR52aK4uDpF4vl9u3dsrN20afOr4WG/iPezvzP8D/9DB8TLLJMy4qWr17/iJdyrj2oJD4w5Q4g3Ti0Ti0NDQgoSj+765mZhx7Nn1RV6beZgfmMg+h76tLTiqMeIYrwwMYYfaSlssMwQJtxLy/lSy8lUSlZARQBr+PSrl8Mq1dDWrZVlix/cXLNwL0chYbORedVxcnNjR/m0Q1MfFPLdijf7zekdi8uLK3L++KM2P+HM6ru5+6+G4q5nIjLNK5HnySUh845PXb1u4+aR10M8ntteDfY7vRfvZ5/98f3/+QvT//I/cEC8zEKLeD3K8X4g4n2eEXjm5qGjsjq8dk99vQgvnXb1yp0bA6dOVS9J1ubnZ/Ob9br09MWXLxdeOHv2wuLt6elCrQ5PXyP67BBpB2/Em1Mb0agvTstKz8zMzy9Vbd+uXRK0eN2Gu8S0MzmbE4JzDSJ2PG6IKTuKYt7ChNHRIXObHMfizc8f/Pa0ULukYevW0VIW79vV+xbi/rx5eXJpGCc+KV4jRVGvrP7ooamrd2wc3frq9Gk/iHfzR3/ZwfS//A8cEC+zjKNXA23H+ypefXVKxrqbh/ZK1HL07TTyOPSpnJ2Ye+ls54uMiAZtctmbquaatPTL63bu/Oc/P30wfd0PP/zwl7+fHiZFi8WLm+bYJRtci5cVca5WWR4bGxvFz46ozRfGxpaXLyk7vfPzlceW4ycXXw2R4FXcRGHx05azBYlbHp44jbO8mcNEZ3QHjdFNQ4ODg/mlpXisbpjHGzYtOvPVyYVXFRIsXgWx5DueSiGvq7/49c1193K2brx3z+3gGm23M/FabWsv3v/6bnDwHoiXWUC8zDK+qgYfiDfY2O2VeI19fS3dL1yItw/3433xwkvx8q3QxFucXJmSsePmN3sVMiQpBSFeef3eLQdjg8NTRk3aZH5Vc/Mj4eJ1X9z59927d/+1787nn2/YvfrBgxNntrMayxrLAshuO96I95daZVZs7OO+R9URoyZhcVT5/SXVGRvXbbj+8YG4ujoUdXPEeXl1cil7+XI20avswT2TKWd00auXPJ5p6NUQ1b2moY2v87Ozc0ZfrcerUmSORjSd/epfVy6GyPPkapmIzWbL2fiiTi0+vGbDusGPNt477UGO12PxmvVLFe+izHuXmf6X/4ED4mUWShkvgrbDrYltwdY0tBpI8bb2vnAs3hNprZ3G7q4Oo3GsEbpT+eI2kd3d6MCWju7mwms/HeZg8WqweKXqumm5WLx9PT1IzNHR7b015hUoJFJb8V7o739kxbGCqSGwvlhfnRF4Zv7xo1jyCinOq4pknGkfH0w/9byylKXT8/l6frWqafrDQ7sOH56769gRvMzPyZMnDy4tjHyWksPSOp1A4VC+Kpaq9pfaan1WGj9yyZLk8u2nS6uDyrVlZcP3Fnx+N/eiWCL/Mk8QIsbrGMvlePl3wbRDuD9vyi9//N+35cm8z/53a2OjcoiacMjMzzcR3XKGce/e/IR1X9w9v18jU+OlkWUieV2cnMNOyotbsWvtpx/9sW37fVwabCtdqoi9qS9z0hj9o61vFzP9L/8DB8TLLO7E622DXs/F29vhlXh7XYk3uK8Xi/dRe3tvUazPxFtTXV11Y/4ei3gl+GkVSLwJp54v4QYUFfED9EGVOazpP09TqyUKiWjFgQOHj3388cc/XTpRdupchLA8yFvxjm4aVaUvTg+onNJQXn5/OCIlWyvkcbnat+uweQVIvPUhoQqFWI5CVLVMo1AUfHxy6eX8c5v+93R5Oe/lfy4qpYnXXsIm02jt5h27/5U7TyBG4q2TyVAcX8cRJOV9GSffcmfnX6fcvz/sQ/Ga9UsV7/cfgXgZBsTLLMHBVPXaVzl4MtpGVa978S4gxNthEa8j7dqr1614e6zi9V3ESxUvseK6VbzNRVV8fXJ1adP0tUfxqJtCXC9Iuj3twOHDh/Z9ejqjdlRYrmv0QLy26s0ZvbfjzI2slvCRbbzy4mRVvjJ9eFjFjRQWPrh5feHeeBToihUKjkBQT4a8CsHRQ1OXFr7JqH39alioZZlevjQpXXdGHxodXDx9/nW8JkWdXC2TyuriVggE8fIv40rmrvzvb5fwtq9/9+L9CMTLNCBeZnEjXldtIj8I8Z6xE6/URrx6LN4gJN4Ha4+y0QG4zFahCBUICnKvr75XHdFQXuy1eMuEZ1Zfu7Ysi79o25QlycXapoTtw6YGbqM268Kya2u37EVhap0kDK8aj8yrlmiknJCLW05+dVaXUfvHVl5xlPBvnw25Fu+QSdnUVHhm977zKOZF7xdhYeq6+gJBmDyvjp145cczQcPrfZlqAPFOVkC8zEIVL4VxRLw2g2u+Ei8eXJvs4g1TKDQSCbFcBB7Ma6+MLI7SeylerjbrxPyp++YvyyqtXNXAu19ck9rEUzY0NGj1sWeXHfz5SqI4Lk6NfjCBAC/EJpOJNYqrR4+cvHUh+9wvm4fLi8uH3UW8Q8O8JhYrYd3uu3gOmwSJV6auT4oPE+XJZYL9a6Zr148OvXPx/heIl3FAvMziRrzjWZLigxWvWCZWKCSKkGNrl97/tToyynvx6rKmPzx+fs3BE+nPqxv+9ja5TydklSkbRk1lxVHIvNfPH/0SiTcMr0mhkKnVarlYqhEfOHJy6eXa2trT98vLuQ1uFmFD4uWVZWRk/rDh3+fnoe8ijZfKOIL4MHYJ+tNIFh68/F3tuxcvRLzMA+JlFjfideXdCYoXl5O5Ee+YeielePHgWnVp6vS180jxytCnf4lUIliIxVvJTUvTuWhP5lC9SLxTF16ce333mar2Jd/9jfVIpwsKKB3d+tl6bVTs2Vs37y48UCdCLyOME6aQSPCq73kl6hUHjkz99NvsbNPpt7wlja7WXyPFO5wTkRJxesGG61v2CiRSNluj4eC+6CK1TLJr7affprwD8VLqGiDiZR4QL7O4jXhBvE7FGxCgI8V7uJ6MeOvUEqlImoTF+zwlRyjUeiveAOH0qbtCQnZd33AmvXHoVU4pS8ePrBzd9v22oaDirBsLvri7cFqSVCYTSeNRtCqR4dkUyPaJW6YuLWxKePWfiyor3YnXNDw0+vr1aP69dRvu5l7kyErYHI0knpxFoZ625c4PfhAvRLzMA+JlluDgmTNdidezqWzjFy+eQOHcu1b1TkLx1hS9YWmDKgnxlogkYaGhYhQzSqWEeBc/T4ngCZ2kFpypl8Wtzl4w9Vi9JDF35YZ12orq2s2ZQl1k46qRbdsWcYOS0y+vu7nmyrwkdV1c3vIkpF6JvC4PPbUi5Oihh7cKmyJej4yMDmW6Me+U0aGX371SNiUs+PzruQJ1nSxUIhFh8dbFxa04endnxDsRr101L0S8zAPiZRZ34vVsKhuIF4tXI8alvmE41bD4WUpKqRfeNYs3I2Xnw4+Xq2WJc7++eSYrJmXzYFNqQHVlDhJqDreMxXu78/OV5+etwP15lycJOBqZWiTFxcWhR3GeNz+idtPWITch7+jIqHL727fDrMCEnT9+M6++Th2qkYnYHI44L+7LuJBvvjj90vSuxQsRL/OAeJkFixfj1LwepBqoiYdWD8RLThn2QLykfCeheM2phkqLeJH+NBrcarEAiXc7Em91kKeZBjMsVsq5nXc+Xl6nFguurNx9Rvfs2Zt0YUBjZU7OKBIvgvftzs/vLsSd0fNKUMQbKpPhpSQ4HJn8wJGHDwYzMiJGM63idTTMZjIt+mOEW37//ltldfa3X+Au67JQdglekYKd9+WXdYrcmztO57wj8VrU+x2Il3lAvMziTLwGct1hV20iP3jx8q3iJXO8oaGhuNUiKd6MjPAqL8Vbxkr5ZeedI8vr6tSS/Vfu3jxT9LRZyAoIKCvNQTRg85blr9uw5tgKObFMO4ejkZBr+Kjr1NMO/bjg3ptslWnItXi3/rG5jFjIOCWF6PVbrwktWV4iVYSxl+fF1Sl27XvwdxDvBwCIl1ncRLxe9Il8h+LtnazixVUNLGtVAyneMMGVtUvvoYg3kO+teMtWbdt56chttVwtCU3M/frmjc4+llZbxlIpc0xKlYrL1YafSlhwZ82uo2L8grB62WxpGFGRoJn3zZ0HhVmpppduxPvXj1jFxeVvPxuprbz34OHxowIFEq9EERZfUqKWKQ7/dG1HSg6I970HxMss7sTreZ9I73K876V4Q0JxqkGw6+eli6tTIlip3iR5CbjrFzzckiSRl4ikiv1z11w7mxWg1bKQeBFIvCxh1a/8xQ9ursxNFEhkKOgNERBZgjC8WnDI3vNTl95IzxxyLd5XH21UapO16z/7fqRSe+Pa3Sv7FfLlJej1x7Pj0Y9w+MhBEO+HAIiXWSzidaJebzqjD9iL91ffirenre9Rtyvxtr2TJjnuxFtJiBenGtAHf7EGOVCadOznWxdeVJamei/e5PLpD7ckhpWUlMjU6HXvObjjeaWSJdSmIoQsVVOTUJvMT1j3+corSbK6uDpRSAhbjteSkErZJbL6owv3Lb2Xs2ro5dCQuTE6vUHvkCk/4fQwd8mUbX/9nlsTO/3O+YsKqZxYdzieg946Dhw7uS7jnYmXVC+IdxIA4mUWd+L1pjP6BxvxHq4XjYlXlPTxyVtZHdXZqWmp3ga8xbG3pi7cG488KK+T1+/f/80XJmWCUKtDIPMKmxLevr3f3h247vOvd+HO6HJxqFidl1eCfrFJy/PqZFfP/7jg21WuIt6hIZUudePGnFWrRv7f/6+hJurMzW/mKRSy5QeWox8NiVcw7QCI94MAxMssbsRraZrjtXi7O3pakXhxI/RlExcvId+Wln5jdOG1NYfFEjvx3rk8K7ivrc0Y3dzSYuxtRuJdWIAtaRYvG+dcL/T3PqLgRLzWtuj6qJoKN+INwt3JUm3EKyYiXize7upGXZrWW/Hqi80RL1usVos1iotf774RGxWA129jqYTlQuX2++Xtp54N/kDUNtSpUbQrk5ewORxOfJJcLVEk5u5bfa/pTengxtO8stLRzVtVOhZFvEohK3PRaE7D+v/5P1OCim9s+HouRyHL+3I5npGhCOUkHfh5Qcoosis+lqbciYuXYCOIl3FAvMziJLc75t1xNEY3GPo7OnpQwNva8eyUb8Rr6H8R09Jm6ItevHvNYbmMEK+Yw5HK1Ei8hbMGkHhfPENHtPUGNiHxJmmQKPF66Fi8eELDhd7eZgruYt+aqKiK6hireLFSpbb9eJF4+Xp9ReNYVQMhXrKON/1URmUQXbzUzujU+xtVCy4dSkKvHb94FLUL9h7/6uzjypQpDQ05o9ri5FXc4jRtZWWEad0Xd3P3h0rz8kS4LU887t2ACAvjHJs6vTA1u/aje9qq6to/PmLVBAzZN+hd/3a4tHTw9Pbtb9dPaQgo3L3ySoFEXVdXnyQgvkU9Fu+iVy8puh5fCOzEw682QiN0xgHxMouX4nXZrsxevK0+Fa8Bi7fVuXgfI/GGW8T7sR/FG+BT8eYvuHQEi1eDXjx+VsXhk7curEqZMmXKaIQ2KnlVg07IU66qfs7bseHulb0cORJvmDSeTXpXgV5DEp49nJ/yepFSG1SmfJmZr6RkHE6/HeYi8aanb18/MhpQuPpuLiFetlm84mk/7QTxfgCAeJnFjXipDXo9WpHiXYj33US8rtTLSMSrtIt4pQpF4pFLC0yrcqaszynVFpdPmYLXrBQm16SRtQ24mkLKZoukuCElId6QxEP7ll7OPlf7eri8OEq79a9bKX0iX27nlUYMZgqF67/bNtpYuHSfWbwCQrwSEO8HAoiXWbwUr0f9eUG8vhNvyNE1q5XVqxrW51Rqy8unjLweGk4vLy6uqVm87ub1K4mhKOAVifC685gw/BdNXDh16eXac7WZWbGPixf9sZki3mEeL39wMD9Vu/6//hgpW/xg6hZCvKL4eI5GI5GIb68B8X4IgHiZxa14aRp27l4Qr6/FG6YIuXp+d2T7EtUwFu/9KSO1EUpheXm5vj0yYcHNNVf2h6KXJUI/JUaC/p4SSf20Q1MffHvuXH56bGyxcmQRJdWAxJs5+Do/QLv+f//YVEqKV65Wi+I5YVKxTKJJQuIdfQnifd8B8TKLl+JlLMf7gYqXIwi5srvlt0iukhRvbW1EWfn9+/e51c/CF5+4dH3h3jB0tEguN6/BhhdDlh34+OTqbyMyWOnp6dzKHIp4lcKmwc2v899wvyPFuy9XQIiXg/44uDCigBAv1bsg3vcNEC+zeBvxetKtzNA60NHRbxbvUx+Kt7XP6GvxOlfvuxCvOyjilYSxb1/NvWb4PZKryilllQun1EZkB2iF208vqk15xip8MH/tsXj8ykRyvFS7BP09w+LFdXnTjkx9cC8jZXDj37iRXIpBeaR4s5X/9dc/RriFq+9eCcHiFSPxyvPqZJzElUi8Y7YF8b6ngHiZxduI19XqlyBen4s3PunqlqWtv3G5ZTkRwmJtTkR+dkAAy7R180hKdYWw8My1nw7vRb9cwrwyiUQRyomX4o45Hz9cem+wdtNmpVblULyD+fn/+b8jOWVnNnw9NxSJV2YV714Q7wcBiJdZ6Gp1PJfCYO5X5irktRFvVxcW70wfpRqMvYYBY0xPq+FdiNeZeieBeKVhUsH+Q0vbqtYrA3JGhcXJq0YTEliNlREjIyM5XBT5vl1wcM/CeQUKbF5kT0loSEg8btyw4sCehzjP+ws9WztsFm/mZ5+lVGpP4JlrEhkpXllenUQw7+7OShDv+w+Il1k8Fe+YgD1KNZDiDQbxTlC8ivjEPUujAv6mrCh9zULiNaWnqypTztXWjpp4PBZ31b1lB9eenxeiUEgs4kUvMkwsUx/4+OHqbyPO1W59RemMPizkkeJ9NVQZmT596pbEMfHWqSUFc/8N4v0QAPEyi0PxOp1BjKJdT+p4zeLt9KV4u1+8M/E6lu9kEK9CwZ72ydJi7t9UVaWvVcXJU7B4I1JqkXiHt2/nNaSYLtw6uDJ3fyiKeWUymTg0RKyW4T69shXTjjycnpBx7vXokH1ndCze17UR+UqTslpbeG3tlf0KnGqQclCkjMSbmPvjD5U5IN73HhAvs3gnXtftyt5pxPuhivfAJ0vTAl6VxWQj8QoXmbS6stKIiIgcJRLvcE5KZc3ZEzdXXrlYgJe+lIk1oeI6uZQTwkFB7IEjRJ6XJl7e8Gss3iYUMS+efmnPPAGxOrJZvJp539wE8X4IgHiZxUvxelrV8KcTL129k0O88Sji1VeYGgNTXjelCRflBPEDylQI5fDwsElZWllVXrj6zte5SJ94BoUiVJ6XJw3lcCQSNZHn3ZGfP5ZlsIh3ESne7W/X7V675TYHiVeOe/yEydSy0Llrdu+wiPcliPf9BcTLLN5GvK7WAqKlGlxUNbR29prFi8TaYXmkU/UODHR39yBJ945PvA8u9HZE22NeNz46mipgCy1RLe3VMYXjEu8DJN6MoLSAxgB7LIKl3jZrt6yaNrgWn3h8aU17aWNjRG1TlnA0orIxQFuelqZj5Y8ODqmE2lVTGi5Pn792y15sXo0iVJyXJxKLpQqpSC4+umXf6svDphwb7dqIN/3ejv/+8ZvD9RKN2ixeiUx8dcvUB9/mgHjff0C8zOJUvI7Vi7TreVVD50yreEMldaR41Rbxzuzo6Oro6B8I7u/vstLvmI7+4IGO7v7g4J7edIfiDbY2yTFamuRINKR41Vi809O7uigq7/jNzK9O6GnraX/WbSfeMFK8p5F4K5F4qwjx6pB42VTx8pB4q2r4gRQazVBvm/c2Vq9aRzbJsZSTSZMKtlyr6a6uzBmNSI0tX1VbW1tWHPv4cRQ/G+d5s9K3/eNccuyygz8du43FywnViImS3jBOUhJHkLjl4YnTlWR1WCaKkBH5St76kc21g/np6fd++PxubqJMJpHLZQoOIV7N/kOXTtzLMdmK1wTifR8B8TKLl+L1MOI1dHT0GFrRl1MdM8YiXqkUmZIUb1bUE6Ox19hc09fX12KJPnH86ZDmvjYDvmjtKypE4q2XhIVprOJdeOfy0y7cjzccR7wdgU0nHi4UaCToyTQasUgkiy/IXbv0hr5G54ZUrf2WVlysS01bdnDP0VD8KV6KYUuReOc34YhXq2/m64prxiJe9GwyLF4OXuzyQnR1o1YoZHlL0/RLh25j8aLvJpZIwkRJgvO7q7obSzNrI1hpaSjurWWlkeJNqR3lZd3//h/n2tuweRcmChToQVIFG4lXLY1H4lUokEc//fbl6UwTXqd4dJSMeNePjNTmNy2+vOCLf5+/WF8nE7PlMml8fLxUIhNcXHOt8DSI9wMAxMssNqJ1nWMwR7wDHjToDZ5p6OvrQYbu7u6aMTv2xNRDt+PxoLsM/efWSDjLP566ICErraioKM1DdGmPH8dmZSHhxC6bv2ZXgSJMIiGWmJBI1AcO3bzc0R3d02NsLipqG+iKFp6YmntVjE2Cm8fIJILE3DXzb529UOgVly8XXjiL+OrhkcMhGvR0MvTNSpaLJLdzb6b+Xs1LFwYGvtEWt7Q3Nj3YtytJIuGIZWqRCEXGIYlb1n51NjY2LT0hYbs91NvbT1PIOnvr4Za9oRqpVFSCZ6JJZfUF578IDFfxlBHnIpp0/MacHK5Wm6zTlZWWlipVQuHwelNpI+vegpsrr+xXKGR5IkVI0nKRTC2XoyhcUTDv+J1P111OyM5IOffLL7WjOcPDw1OmjIykZL9ZfGb3v8/PE9TFyUPEarUIrzQsk9++uPJBqk0ns5e0MmDLLjvneiriVyDeSQOIl1m8FK9HndFnzmztq+kbeNr9rDt4NiHeaQL0OVYmY+NlDjjLD/90c/XS6cuWLZt+68H0W9M9YdmyW0vxQ24dPHl8XoGEaAmDxKuQyA4cmX+5u/vXX3t7+oqKevu7jIR4UaCLxEs0MAjZP/fQ2kvXaMx3w7VrX3311cGTPx07istkRXJCvHJJQe6GtKfVwqyswIw3uigk3gQk3gKFgiNGshNJJYqQxIV7Hn51a9n01atXL6WwmspSu2310q8OrszdGxqKno6YAiyR1Sd+szownCdMjThXm5DKD9JyuSoCLoqPuVyWNit9aLR21at1n+MVMEV5cjGnQMBB4q3D/Rfiw/ae33dz6Q30YpF4fxmZ0oDEO5qjKmsqnL7h+vm9HEnclytCQmWiEiTeErn86JUff6i2Fy+9Xw4tAgbx/gkB8TKL5+IlZ67hNK+deB1MqSAi3raBpx3hL8zivW0WLxt9/OWUHFi45vrakzasRbfW2m101l6//q99U9f+dGhuIkdWJ5eJJRwBjqOnbbl0pqPrt1+NPW19RcbeLmMaEm9BCY6u2SV5eSVijiBx7pY113/+icInCMqFzSU6r1mDDjq062hBqEKBItASMTrLJYm5N7Oetutj0wKfxbRERbWXNVnEK5OXlJSwQ0MFe3cd+mTtvn/dXbmWynV71l6nHbHm/Dz0zcSkd5F4S5B4w9u1abqIX2qbUrVallm8XFK83DItS9nALeNd/vTOytx56L1GLUbvRxp2Pc70SjnxBRdz1xy8dTZWn127edPmkZxVDSZVUFTxhemXVhKlEHlfrqjXSNhJSfHoXUV2dM2GHyIcBbgg3vcNEC+zeBvxUvrzOpzJhvYi7wY/7Q6PCZ4zGy92mRRPiFfM1qCnZC+/ffTw4WOIXeSXw3R2UTi2ay7mytx5ews4eIFdsRSJVyCVqW8vvHPm6VNDdHuv4UlfUXP3o7QTD5F41dKwsPgSZF6xRhNScHHu3MMHvOToxYsX5827uD8EeVchjWez2WJ2iUyWuOXm4q6etsdRbzK6e9qiqgKE0/ftSkLi1chEyMxsjkYSejVxHvFy51J+isPz5s07bLtRmUv8fBKNCIfqEgWHQ4g35tfkGn3EplqdjoWEa09pZTZLW55cnnV5wYa7h/YK0HuSNEzBESQtx+qWxAtCrx7+BAfgZy5/++1LU2mj6t7lwhvLvnp4fO5V/IZSgo4TK+LRHwiJl7Pw4YL/Z5PtVDcQ7/sKiJdZvBOvwZGHHZjX0GbA4g2MGcDivbMliUPMS5XhiFfBYbPjk5JuI5Lwl+X4C416u23F7RUrkgQFCIGALZLX1cnFYRKpIF6MxHvlx8szZ/a0x/R3Pulr5sdUZaGIVyDH4g2TErkGiYaDHppU7y0hV6+iJwzRaIhxNQ5CKpLIjh66Wdjb09ral53R3R9VHKRNm37ycBKSpEYiE7HZJWw2nrmLHrl///4C6k8lsCdJkFRgsyUl4Z9PI5WRjRcUYYIktRyJl29MjqoZ/MegXk8VL4ubkpKtLS8vL9Zric7o+2Vxcci88ejXxFajX7gU/YZW7Dry08lL16bfuBBb1NeXfubB6ptTPzl0OFGM3S5ly+tkYVi8UrZm//Frf/njl9Fhk71hQbzvISBeZvE24m2lqZjuXQMmmBTvjNmx6340i5foCICiLDxeL8FPTtT8K8w3XIEfrCaXWZDJcO9ZEScMVzWQ4i2cM7OlKmags9Mi3ishpHjDpHhITGZ5oJdINBqNmC0W4bpYKV5TkiOVSmQHDs0v7Klpw+I91VuDxbvMIl6JVCouKSlRk8tBaMQa7/8cxMsk410Jjlvr5AXnd/Ojk4v1SLzRNTTxlkacK8XiLa96Ht504uaa3NtfIvFMyGVvAAAgAElEQVTGx8fj1gtq9H1k6F2qvuDo3C0/4bD3xo1l0689vHv+ysX99egOopFkXZw8Htc0KBSJuXcWmDaBeD8IQLzM4nWqgRrxOpjKRno3eMAq3kNW8UqRecVsLEXz849dcwnykZr8+C0Ri8UysQZJVxImFanrpmHxtkbxK/pndhY185sfZZ3Yh8Rbx8Zlt1JSuGo1loyXyLC2kO/lchTFEg4NI7qMI/G26KMet2SnPGvXJ+v1sUi89ZIwcq1InCRAD1HjZ6wj5e8NMvQoudy8ko9UE18vX4HEWxVdXpw2+I/a6JoASqKBpaqtLdWVl9/nrap+VnH5wZ2Vu5bXiVB4TrzrsEvy5Gp5nkijCC1I3LXlk59xlnnNmm+uXCwIFdfFfRmnloSGcuri8uJxSzOF4vC+T3eM1qaMZpocqRbE+14B4mWWiYrXUVkD6V0k3vBui3jjFWTMSoqXzSFCMky89ZodHApSZJESosIK3QhFuhgTb+4dLN6giv7gJ0XNzb09aaR4RVJywgM2r7oOfQCnfkt3EiS0hb0rLykhxavgsGWyaYfmXzAkF0fVZKdkBOqSH9VEjYkXPR96OvSQPCRQ9JSieHvoT0I5QBQXR3Q0l6Ank6BPBqK85QXnVxuN5Wlpg5tq9TWRZVTxjo6WBiULh1+NRGRUC8882HD9WJKAgwJ9KZHjXi5XlyTFE29toSH7Ey9e3H91/7xEXKWhjvuSEG9ICBIvG9fwagR7lt77aGRVpQfaBfH+6QHxMosH4nXs4rEGvU7F2/Gi4+mMziwk3tvxOBTEiUusQhn+7C6WktMSUAArpYebUhp4dEsqQa8YeZcTIhDEY/HK1LJELN7OKH2g0dBX1Bw9YCg+MfWKAOtLJlUQAtcgF6KIl/oN3UW8eBFJBFKvSCTWYOET4r29ZX7sTCTeqIyMjEB9TU8LFm+8AolXoonnYNHjBxJr8ahF9B/DNTh7LRcTCeV4FNgjhy+/en51f095eVr+psFUHTXi5bLy8wMqKspGt20bWVWtTV+8bsPKuYmhMiTTEjaHw65Hb0CE7ol0TihBCPr0IZbjiFwuE3NCOfK8PLYUub5g19R1+ZtHuUIQ74cAiJdZxi1eq38dhrxEB8mOblK8d0jxogCSDOW8zrbiiVWWGBH5A3tXEI/2ok/+ksTzdy7P6XxcEx7dV1QU3ft0oBiXk+HZWzKpJIwjwMuWjyfDi757GCFDnO1FL5sTjyTFlkj25yLx6pF4AzMyKmrafmtJm772sIAQr5gdj3+lYWFmjYq8f1L8tEQ8jt5nxOhDgjxp//nVXb8h8Zaei+AJqd7lsoSpusDqlNpt27aauFqtVkjU89ajcDavJD40VKNWi4i4mm1+Lex6Nnqvq19eIiLz0JpQTUleCXoDE3OOrV39H7W1DeXlwyDeDwAQL7N4JF4XGQiH7cqwdw2Gga6OrqfBrVk77hxK4qBoTo7+t+OnNFtQTeQeSMRqe8RUHRHilZIrmYvF7Pok/HFahAM1JN4dTztbe15ERyPxdjzt1+GqhhI8gQBPsUDe5YRi84q9hkN+/GcTY4ESKRv7UEJOoIhMxuINrOpr+61K+GDtXCRejlQi5kiJ3ykRZ+OH0n4Mudh+o96PA1NzmgXXI6BfkACJ99dfheVpbzIiEngOxJumq844VzsysmhYqA16Xp35w+crr9yui4vLY2uIfg8lJSUiEduyAryYLcrLy8O5E/SnQB8GNBoJ+jWiv0j94Z+/2vGfv9SqyrN4o+69C+L9swPiZZaJitfh1DU78abd23Ac9w2QyktIL5nFi91m9a643m6jgcVrXk0XhYFIHHguGRtPFLv4zef/0Y3bQhijm5uNHR3tQlzHy8FDeRIieET6wc+Kvkm9dxuKqkmk5Bgd+lyOvs/e8xtSu5Yg8VYFBja3tbU3Kj/dd6UA2VZC1AhgyJBVkJREF689tJBYQj6aeMU4W6yWhFz8+p/hz4Xl5YEZpUi8lByviiUs1zWmpJzDK1IIhdzKysrsdRvWLFyBR/aweBXi5cvzzO9wEiJNI0fBsEiK8w74VaKPH0QmPOTwnoM3mv76R60qK4sHEe8HAIiXWcYvXusabI6nUBjQ/q6urgFDUfrqT6bh5KeITSZdw3CdFm4CIxZrzNBEq6FAfHI3Z07xgJcIr3UjEksUirkr//ntC0NrcFdvUVGRsftUNevMnfOJColaLpZqFGTNRBgezNOEiEO8OtuM7OGcs4woDwtFz5d/qhKJV/+G39zWUh0xuODOlr1hCtzNFuemkcxCyYcJBNSfAv2cHJuNdrflKck/jUQsl0tC5q78tBK3hsjOyOYJy+jiFQrLSlNSSkuVPB5P2ZBTfSr1zPy1x6ahX42EzRZwNCV5eXW4cwNboyGSvOK8PPTbCyM+CqAnwgUbnIKCed88XJb15qNtoyqhUGm7GjyI9z0FxMssE414Ha8EFBzcisT7FPd9DG6rmX7y2G3sEbGUCAbDLMM8NijsNxpEyGkOeIkchUKDQ1oUqm25dCb/WU+roctY1NfX++JZZUDh7q/nCSQoZrXW0RK1E7TndAd+ZKj5taBwmyw+Ljh08MxoRkpy1GM9X1cTVVNZG7Fj/k+7BIowdZ0ajxpim4092ks4gnji90MiLSmRJB66tDOiUisU5p/L1mqp4sXzh1ksoplvaX6+yTQ8XPb8UdqZa9dz93MkspL6+pBQWR32bkl9Eof8DWiIlDUnKUmAX6m0vl4cWjDvyvkfHyxuKn15eliZX2oC8X4AgHiZxWPxOlGv4zXYkHhbg2c+7eru7gjubF128OMDCixP67NK7WoKHAzvU14lUVcrlhBZUBx84npeQrzS2z/denLqmbGtp7e5qM/Q0f0soz321sljyyUS89wMmZNncAuRXRBLbF4C7loz7edbWbW/pFQ8fhyl19dEPUo5l5Fw6+THSXgiQp2MHIcj3mTMKVvvELOJfDJuhSYhvo1018+3LqdkRJanD26K0BdrqSlebkREqa64uDiNFRFRO6oUZpXzknv0lzesnHtbHRdXVx+CF2HDWXEU/IbixpVqNY6rNWgHrhIhUsn1t4+tubNz47na/PT7izNrzxHdI92pF8T7JwfEyywTFq+TiLeztXNGcFf3i97gGTPOfrXnWAFONlie1Fyp5QK6BcVkilVBjJeFhXGkRBJ32rGTZ2c/PRUdVfOIT4r3WVfn2YN7jpXgcFcjFsktY3hun5IGLsgV20w/w+JNOnbw7BMk3qrHj9v6iqKweE813zi453C8ou7LOLXZvOjFyuV1eNKG6woGGiK5jJy0kUfmwznT9hw8m5XxvD2Zt3VTfo0j8dZW6qNiY2ObImprI1RpsRf+vv3XjjfrPl9zbHlcXJxaHBKi0VhCbxTs4i4X6BfIJkYz5ex4gUJTf+Dwnksn8s/9sullVtaFwV/wzDUQ73sPiJdZbL06LvGam+ZQxUs0Mevv6O1HD489+9XPuRevXr2atKIep2+JaCveK7Buiawk8VXAiccfkUMS5x35+dbj2XO6WmpqoqP7entfhD97MXN27K1LK3P3FghCQvGCDPJ6Nn5SqXdPiMsZ2PX19TYzLkKv7p976OStx50Z5yoroqLQc0ZFVWVknGq+cOvgmtyL+1fUox+LPFSDez3IxRqOl+A8L7teXl+PSxLQzznvm0u3zhZXP3+ULBwaza7Rc+2mDKtUXJU14s2PiIjgasuzFvMqwp8N/rBh6p5dt3H4jF6DIozIkXPCpFK1XITrLdjE+wJeD152e9eatZemXwhPObfpVXoWCqw3DTqPeOlLAbkAxDuZAfEyCz3SpUbAbhv0UkVML3J4fGP33fNz5847fPjAgWm3px04uneiEN3D5uV+/fCrs49nz25t0bf09vf3vgh8E2gM7nx8YcHnd4/vmjsvcf/+xKPoyKOJiAk/58W5uV/fWXojrbf7RfWSJcnJ+mK9nl9RHR7QdHnBzX99c+XixaM2P1jiONl7FP9s6JXvnTd31/E7O39YrHtUo9OyygICK8qUSm7ZWJ53rDEvi8U1X9XqUpWmnNLsywvurLxyMRRF6RwkXPJDBDEjkJhBJxXl5WHxapJW7Fr5+X8vKEzXqjK3LhoymTJfvcokMAt2/fr1tDjXXQj8cmyP2bZUAW8G8TINiJdZxi1e68w1an9eavKhv+vpHEP6pzenrv3555/37DmyZ88nn+yZOD9/8tPaS9dOXHjc2hpsaK941NuDA97AKqOhszNq+w+r5z88ef2T48fJg48j9rjbXHN8D27xdeJCmj7a2N7I5WqTi4v1yUEVFRWBfF36mQfzH679hPwmx/cQzzZeiG9x6PjxNddPPpz/6f/9jqev0WtZqjJ+RWA2XbykcrlEe150lVvGT1Vm5lc+e5OwYMO/ju86fDsE/5VxZZpcjuyLYvIS7GAZMRS4f97CQz/f3PmX7cl6nSrz1aJFo/nDp0/bi9cE4n0vAfEyC92wXka8lJDXwWBbf/CsOcFRZ2/c+urawYMHLx08OP+gL7h2axludNiGAtAXz8Mf4ZXb0LWY6P7gztaorAtnzy67dc38TJcuXTJfsXn8JcqZxiW706WDXy07ezb2cVtLe3hjqQp7N6pYHxQZWBFj7IuKPYue7yvy+1zCB18aH3es1w5eW7rsxtnLf9+u1dfohDweCnkby5Qqcj1im2QDtcZBp2Ox8vPzVemFN746uPaThReJzLgETxHG85Hz8Jw+on9a6NWLV765O3X+gx2Ls9APohraunXIpFQOD9Mj3kx7v4J43wNAvMzic/E6mMnW1fV01pw5nY8v3Dhz5syNwsuXz9ywxXKr0HqB99lv9vei+0+cKYwt6pzxtOvUswzEs+i+6Obo7o6OFzHNfSjmbe3sfBJ7oRA/3w38rBPnxJnYx52tra097YGNpaWsZH1LVBSRa6iIie7taXuMOIsOIo89ceKMdaNwxuZMY926ddarZwqzivp0Qp1er9eaxZvtgXiFOl1QWf6QiZUWe/bG0vn7UNR7+GhiUj3ZpIjsmiavv504b27uN3fvfLHz8uL08jQ9n5W5lRCviqc00SJeEO/7B4iXWSYuXoqGHawE1Fv9rGvWrBkGXVNTanRHR0xgYFRUVBHeatL0acVp6BKTZr1A6Cib3b01+tSEJp2xo8vi3YxqY1tfcwwWb2BgVV/rnNkzul5UsZp46VnEYpk6HV+XmmbZdOYzdaOsOixMFdqetDVtbS3RVRWN2dllAUH6lhZk3pqaqorAwMDwQH4zXrtT6ABeOgmxuGW6EF0zn4Vo49lt29N5w8O8hO3o4Lf37p1+mV8ZWIV+Vj0OeFW4WreUKl46vHShviqg9NWrzIC+vtjCE6sv/fzTJ8cX7jp61VyRjKcHTzu8a8s3X//7xy92/kf+Mz5StVaVv2grzvEqWSyVyXmOl/SpO/GazeuivgHEyzggXmbxuXgdRLy9gYEdT2c97eo+derprFmznp7q+t0dTo/oIs/4e5E8exYe09xsNAwYq2KQebsD3wRU9QbPCEZ3VD9v/5U4vuu3U+jsll/tb9F4EV5dXd3Y2BhQUfWopqXmEX4LqEExb+Cb7Ow3b94Ehrf/2u6U5x6BnuD5c3R0ReOqnJyUlMqqlhq9VitsYhHTJFQeiHd7uq6qgju08VVOoNFYVXbvxNJr8y/tW/NN7pW580gOLzzy08mHN3d/uvM/NkZkPKvWClnKIezdRUOZJhVVvCYQ73sJiJdZ6JadmHgdrQVkaEP09PR2oxAVcepUx+/Bv/9uIE7o4jeDYwvabqQWbczY0R0TiGLPxoroXoOhtbW1M7i3ih/T3d0dHvgmEH34N4ZXh1dUtfcMBP8+0PsCQfcoFefSxDxqr65MqaxsbKx4FG00GqMf8QMCtEFYvVVBjaWluJoru+pRRUXF8yp0ETk+KletqmyMrKiqqojkNjTkTMkJ0Ou0QiGpXZbKKl7n6lUN87RBFWUm9AF/kakUvU+kXijEi/3c2Xd35RrEJ2u++Xrtw/lLpy+7Ubg9wTQ0uihzePjlq61bt75eNDo0lDnMU7qoanABiPfPBYiXWXwm3rH+vNSQtz+4s7O1ta2ll9BuV1d/v8GApxQbWn/Dl22/GdoMPV5iGOgxViH18WvaWjsJgnubq7B4X8SEB8YEBsYgN0Ybe/Br6TU2xyDxtrjjUU1Njf35kd7mXFWdgcQbyX/Ugt5DjNE4zG2M5OOYVx9Qlp2dnZJRXaUPCtIH6Sv0FclBQUGWsw2utRsUyc3JKeU2RhKHEnLValk8XhOrLCAgAItX5V68SiXOSnCV6199t3U0IiXj2bNn2Qk71u389J9f7EZc2/35htUnblzI0un4kWXc4b/97VXmy40o3B0dzRlFrjxNHVyjRbwg3vcCEC+z0DRLh6pY1y52VNUwe/ZsFJQGo+Czp7cPmbIV04Y2AzqjawhDT1uP7dkdbRZaSToHjM3R0d0d3S+6cdj7phm9AeBIu6+vrxmBQmA7ySKvtlA2GnoKVeHhFRX6mpaolpa+6JjA7Ozq6uqKKvN9Ve0vXrTrdcnJ5hS1Ltm6ab0AKZOFG99odToimNaqeMM4v2v2rrkvgyv1luaYTEpWQFAQtwHFsSMjKRkZKRGDG7/9dsdlRGHh5R9+uLedhfPFygYVb/vbt6czhxYtGs0pLc3JWfTq1enTLyce8VLmV4B4JyEgXmbxsXhxhEkfXeuc3Ym9OzDQ04K8i0JU3LvMYKGNMCT60kaeDISGcXbCyUVLW09LVBShXMKtbW2P29p6jcbe3g5CvHiILYYQb19fURHp3V50P3JvdHS0WatI0/Y0U8X7iA7aWxxFjKkFVmdkPCNMnFyMqGlBcfAjPR8rl4/QOSbVDQFv3pSxWE2IVC0y7yM+i4cjWEK3ONxF/nUn3lWrkHlZQXp9snZ4/Xf/ta32XAoiohSnoQMDw8k3jGcZESMjW0cbGnjbtw/nj46O5pcisHhfmst4JxTxgngnPyBeZhmfeF1kIBw0zTGgsLOnvx9ZsbfHgL3bSQuKqfS6pL/XiCJWJOyeHmNzc0xVVRVyq7G3f6CrtzkwprurC1eVEcQQRGMZo8eRgsUijo6hizeGSrPdFoOC22Izen5FOPoMHx5eVWHZicNe/KAKM4EIPgXkVTdkY0pVShzcsljkpTnBiwQcUBFZZodj8aq4LG0yQssb/u67RRE5iFIzERGlpZWVlSmj277/ftvWnFVLlizh5mfmE97NNw29epmppOV4PWlWRkk1UAHxTjpAvMzia/E6qmroj27u7uhCweiL3i70aBSndpmxeLbDW4wo/Iw2GqPb0Sf8F+HhSIHNxn4Ua/c28ytedHR19eI0b0wMkXfoxmNrL6xXSGJe0KCJ144XMVVpONqNIiSLxBv+vLqayD3UkDuTk/nhBFi55KUNb9AW6NiztpSW2tzIH8y05HRVOHdb5pl4uUjTuJANrwTEWz88PIyL0VhcFNHi2Ha0tKwMxbZbt23btmhKziocICPZKpX5ZP2uSUUR7xCI970ExMssM2fOmOHTiNdBqgHPoHiKe0R2468DvVXRpHZdiLXbDeiQ6BgsOCxUXFX2AkW8pHgDmnv7+41YrMj2+Fm6X4Qj5aEjSb+Gm6F6F+0Jtz8TQreewptR4I6zHS19NY8qgiKxBBsjK2paWlp6iKyxnk8I91mgA6yizbA/UcgfHMzPzibEHR5enY0i0bKAxsZGsqCBVRYQGVBW5lq9qgbuksigsqaEhASeEMW9yL1EOTFLy+Jipw5mspCQUfxsMmELj2zbtnUo06Q0z5owoVCbVsfrSZdIEO+fDRAvs/hOvM6KGhBPn86Y8RTnE3BZQ8eLwBf2CYaent4OIhXgOdjNWLwxvaRcO7qNRiMSbk90VXN0T38vnsaG7EzeZ2yvCAiIIcVLhq9Ia67jW/KgwJixDcfUfb296MUaWx5V6ZNxEpUVwK9Cofev7WQGuAorlkwykFRYCSCxlSwSaqO9dhuz0ad+VkBgoNm8eIpcWaNZvESel0X1rqOYF4/RsRIwpHmF5eVCoiRNhfWqJFatIEbyWMrMRdu+34p2qZTDLzOHkX+VpfmUmWtDIN73EhAvs2DxulGvE/E6jnkdNkaficu98Bnd349C1P5WCsQImyvaKFgNbDCQpWi9vTF8frORKDUzGIzNj1AMilyISwMslQw9lnoGYtyspoUCraqBOrJGJIHDY8KRR4P0NcQYGz6mqqKxsbKycUn186pHxGOqrIxVRJgH14IoBNgRFEAUM1QFleG8bmQFP6gMmRCLF+3AA2u4jjfAlXhVKiK/IGQFvHnDys/PHFbiHVout0GF0wkmtGHL8tLTs8rT0tKQepW4BgLBGx4exuFu5hCtO5nJ5G1ndBDv5AfEyyy+Fa/BYaoBO5estg02oOAWr4CJS8o67eXb5mqjgeJbi5L7cAqgH4k3oMrYQ+40NiOv1qCgFIGH4drQtyfL0NxW8zozcUtNlSWQbYwMwlVluKys5VF7RWNpTk7Oqsrq6ipaGZplMK442TP0xONxawYemShQmXDMiw2L0wzIm27Fm6xFj8Vh8xsUP2cO4UXfkXcbGvBKali7eBBtOMFiXi0etkNxNCFeFYqJhzZudJDjBfG+d4B4mYXw7gyX8nWSzHUMUU9mFwKTOwzkvQbDQD+uczC0Bgc7CW57zFErfacNRG0DUf7QR9Lba4zGlQ3oPpy6MBJlu2QJGBHt9vQYPcVa5mBHDVk+QaYPqvR6S1SMZ5lFNjZGRqK9VIKCcC0DGdwmo8iTFu1SI2Dy+ACylAGHwNi4VsmybGauOZQvbhCp1eJ6X9zKrAxHuUQbHZWKCHiVxG18Q8UzZ35VOAGB95BaVpqGXg6ZlCYrntmWuosqYqqJQbzMA+JlFizemb4Qr4F0q8FRZ3TDALqXOBMWdlFGZqkk8668zB5c0Gu5NqZSN5ZFB1geQDGuFXPGwSxVZEjztUf2d1SNZXYjI7Fd8aQ0XIDLLTNfJSHCWMeM2dZyICleFoue5KWIV2XbsMzSIJ20ra16bW5j3dqK1mS7x3vxOoqAQbyTDxAvs8yc0enDiNcQTFuSAqvYsuELgzvxEpadiHjtJfyuxFtlFW+VU/GSg2rkfGAyXeCpeC14JF479dLKHFQU9ToQr41oTV6J1+xXEO+fDxAvs/gs4rUJce1vkpUOZMRLLXnwk3iJvg2+Fq9TbMU71oghYFKL11a1IN4PARAvs8yc5cuI15GHDZZTMHk2uI14neUfJiBetwldq5kd5XfHL15b+fpDvI7wTrwm7yJewrAg3j8fIF5m8X3ESxWvxbdEqsHs3w9TvEtAvCDeyQKIl1neecRriXcHbGJf/4nXrXq9F69b9VLFS+nO65V4Pcele8fs61S8Y7L1UrzOfQzincSAeJnl3UW8tg16iZMl8DWAeEG8IF6GAfEyiy8iXnf9ea3OtVynidetgscvXjfqdSJeR/KNfuSZepkRr8fqpZWXUdUL4v0QAPEyiy8iXpeHWEsaBmwKHEC8IF6m/+V/4IB4mcUXdbyuxTtW0kAGu45SDZNBvDRAvCDe9xcQL7P4JuJ1cZg50TBACthc3UAXr5uM70TE61K+XoiX0jPHA/GOXfeHeN3K17F4aZlet+L1uj8viHfyAeJlFt/keF0dZjHugDm566icDMQL4gX8CoiXWd5hxGspaiCLyQyO5q75TbxO1Tt+8TpVr614Haj3nYqXrl6bXR6J177CwYl4vezPC+KdfIB4mcV3Ea+zAw3m6WqWng2O6ngnoXjpM4f/tOItewfi9apNJIh38gHiZRbfRbxODhywjKiZ+5PZqddevC7Uy4B4jb4Rr+U2dm4Qs+K1Vy+I94MGxMssM4Pd9uN1q1/X4h0gu+ZYIl6D46oGd+KdsH69Fy815WDWbXS0G/GOrSpsJ2KqeDG0RSiYE6/9Dt+J1xEgXuYB8TKLR9Idv5PHxDt228HaQC7Fi7XpTexLGtV7B1NMbLQc6ngem10I7HSgzT4CrrAfYmuM1OnJPuluQmCHhrWu/O5cvtivTofYPI54vaksI8XqNgTevOjtfab/5X/ggHiZ5Z2LN5gqXrskL4gXxAswAYiXWTxMNIxLvGRZA3atrXhpTXndiRfL1ruE76QVr31Z2cTE66pbmY16nYrXpluZG/V6NZsCxPvnAMTLLO9SvGPJBbuI13mmAcQL4gX8A4iXWd61eA00DRtc5BqciNdh9sGNeics3mjb274Sr519AyYoXmLVd9fidQhNvI4yDyY6HokXGxbEO/kB8TLLu494W6nm9XZwDcQL4gV8DYiXWayru09AvW5SDdbY1zyVzdvBtfGpdxKL16reIP4ExesCl+q1k6+z0TaLb5W+6JkD4p1kgHiZxX/i9WXEC+IF8QITAsTLLDNmzJkzUfVS1erKxfYrUDgTr3sH+1m8DuU7qcXrdZtIB0NsVvEqfSBfEO+kAsTLLP4Wb7B9X0gQL4gXYAIQL7Ng8WImIl8H4nW025pp8KCOl5p5oBSU0cXrjYo9FC8VH4rXrN5xiNdLC3ugXq7rORVj5nWqXs9sDOKdVIB4mcXv4vUo4gXxgniBdwqIl1mo4h2Per2NeD0YXKOKt7/XzSQKb9IPk0G8hHzHJd6Jqpfan5eSd3AkX3fJBo8yECDeSQWIl1n8L14X1WQgXhAv4B9AvMxiEe9Ekg1OxOtYvZ41yaHtsNrVhXg9Ve+4xGt01Rl9fOKt4I9PvF6p14F4HXbR8UK9DsXrVYNeEC/jgHiZxe/idRXwfnji5YN4AUYA8TLLDIfYedWtjx3nFJyAdUrb4d7E/fYDbNSxNlfKJYXqUsGkWd2ImOZkhyJ26WCaiZF07RYE0unszerKwXawzHBdytdGtJQhNhvhOhSwbZrBi7Kyl/Q+kdi9rxdtB/EyC4iXWTwW70TWBqKKdnzitZMsE+Kl7nCY9LTh/H0AABCkSURBVPVKvNS1h4N0OjIAHp94kS0dNm+YVOLFgHgZB8TLLI7Fa6fZiS/KZsZhf94Jd0b3IMngVLx26vWNeD1QryPxku41i3fMvB6Ll3CvM/GWueoTSZtC4STlMKZer6ZSgHgnJyBeZvFAvBNfhhhhcxA14vWozIFq2fdDvJQGvRMVLwvEC3gIiJdZ3It3hs8iXjLqpeJR8wa3uBSvizaRNoZlRLx28p24eMfVJ9I78Y7hkXgJ9YJ4Jx0gXmbxQLw+iXhtoDToNbiaU+FH8TrhTyVe90tSgHgBAhAvszgVr1W0vox4DbS26ONbhM1r8bp0so/F61a9DqZSWLrm6Plm8QZ4L15Svk7vcqVeru20YadlZRbhTrxhDoiXcUC8zOKBeH0U8To7bDyLsIF4QbzAhADxMos/I96Z9HA32EeLsIF4QbyAN4B4mcWBcOfYq9cHEa/rQzxZkmLy9Od1Id7ocU9lGxOvnpjMZrWst+J1iYfqpdX1UtVLrXIA8f4JAfEyiwfinXjE6/IQD5ekAPGCeAHfAeJlFkfitW/d4JOI19VhHi5J4TrxQLOply72hXgf2eOFeC3qNYvXYt7GRp+K1618HYuXlnCg1TlQverWxiBexgHxMosH4vVFxOviMI+WpADxgngBXwLiZRa34p3xp414faPe8YvXqXodiZeU77sXL129ZdQGvW7ESx9sc7QkhWv1gngZB8TLLB6IF0e8M99pxOtJjhfEC+IFfAeIl1mcitdGvZ1krmGi4nVyoEe9Gqi3PROvV+plXrwVFXyLeMl2Zf4Sr2P1uhWvVb2OxOtSvSBexgHxMosD8TrgnYp3AHfN+TOKlypgmnidmJdvhSpic1/0oCBrg14QL/BOAPEyy1iE69q8nkD1rIdmxt6dOXZjYMDg5RTiMc+6MvHEHUwRr9FyqIOpFGMmdjrE5lDJlAa9kUGU3g20+jIXhnXRu8HWs06H2DxKM3gm2jHIRShAvIwD4mUWBsVrMDfotRcv3gniBfEC7xYQL7N4KF6v1OtlxBtsJ15DsNcRr/2qQJNMvF6pl0/pz2sRb9B4xEuq18ldNpZ1Jl7P1evVXAoQ76QAxMssk068KAL2vj8viBfEC3gFiJdZJoN4bcHdeb1ekcJZ/uHdijfa9ravxGs3gzgyUjch8bpomkNLMIw72WCDR+JF6gXxMg+Il1kmm3iJ7rw+aIwO4gXxAi4A8TKLx+L1UL2EZSci3vGswTa5xeuFevmUrjlBfH2Q6z6RbsTrApfqtZOvMwtbfEsda3MPiJdxQLzMMunEa3DZrgzEC+IFfAGIl1k8EK9Nw5xxQrWrOxd7EPFOnj6Rzmey2cyoGL94iYlsQVbL+k68nreJtFx1ql7aaBuId9ID4mWWySdeQ7AnK1KAeP0mXi6I9z0ExMssnqQa7NtE+kC8btqVuYh5bcTrJvPgB/FScSFeT+VL6RNpFi+fb9asB70bvHSxB+q1ueFkkI2ae6B6lrYLxMs4IF5mmTTiNVhnsrnKNYB4QbyALwDxMovX4nWgXrc2hojXU/dS+kSOS7wTVS+1ZY55hwd9c5wmG6g7QbyMA+JllkknXjLmBfGCeIF3CYiXWTwWr4tkg9sMhBPxuoh5PRSvN30i37V40T2+Fi9u0Ms3N+j1RrxeqdeBeClddCw7PO6N7lC8Y7tNIF7mAfEyy2QRr12K1+McL4gXxAuMCxAvs9AXnJhD3eEQqngdypfqWecmts01YJ+6jnsdmZgqXd+I2Na2NAOTdrVVr9HlfAqP+0TamDfI0hidXJIiwKayzMazrkzslX0d9YlUURMNDmcU26YZ3JSVgXgnASBeZqF7lnHxBv9pxWt5hO/Ea9+sLCAgiGze4F/xUkUL4n0PAPEyy5hnLab1TLx2mvWheA2WtYDsUhCMidei3mhH5h2feL1KOERG2qvXLF7nTXPGPaPC9+J1ql4Q7yQAxMssvhCveU02R3necUS85jUpzDEvsbkwr9MMr2/FS6jXXbb3HYiXGvNaxWsRrI/FizXrVLwW1TppXjamWxDv5AfEyyw+EO+MTmcR77jES0ygsIoXd4n0SbuyiYoX6dTtMJvtbl+J106+fhCvQ7wS7xgg3skLiJdZfCFeX0e8NhDRrotuZf4ULw0QL4j3TwuIl1kmX8QbHNxqI14D2SgSxGsv3iAQLzAhQLzMYite0raeitcqWlcRL2nZ8Ue85CJsvmjQO17xelPV66F43aqXKt4x9Qbp+UF2Ia/PxOtFg14n4rVt0OtSvSDeSQCIl1l8IV4XEe/Exct0qgHEC+J9HwHxMgtVvLTMgwPG7vEo4nXoYnvcNUZ3n2pgrj+v7brDFBdTvRvt4Rw2V+IlG/RaLetD8XreGZ1aXkZVLyX1AOKdhIB4mcUH4nU+gcJX4vWgqgHEC+IFvADEyyzjEq/d3S7reD0Wr6O9ZKbB5YoUNuJ1k3iYiHidyNey22pZ6mCb01SDG/nSxWtxr1m8FvM2etC8wZfydSxeWsKBNtwG4p10gHiZxTfinXjE60y87kJeEC+IFxgHIF5mIS06ewLiJZRrL16vG/T+CcTrQL1ju8cnXqfqdShewr3vXrx09ZZRG/S6ES99sA3EO/kA8TLLDCRdh9r1SryUiBfE66l4qWr1Wrw084J4AU8A8TILJeKdYbs5tq6DerPgGTMp4vWyQa+z/d6K9x3153UsXpvdDsXrQYNep4p1kGUg4Ov15j6RfhWvbQ8dF+KlT6EA8U5WQLzMMstFjtd8iUPi2Z1jOV165/TZToNjJwJ2J95O8xaMp7Hhzal4DWasVyyMKbeHgNY1x4LlAW7F20eB4uNoahedvj4jJfK1OrmG5JETJY8lHai39WOQ677zLejMBFGwGllrBl9PtcGyX2sRL4tCGb6TutMWarWDczdnEigzF4F4mQbEyywuxEvQicJhBGFgwo1Pn86YjUTbaZ02gbxrTye6G12gDR81UVoJrCp+Qm6GVgpU7yLa7HFwhEvaaNjuReIlLsbApqViFjAG+5Z+QBvldg2VInto9+tratLIjUSvc0sa2sxg8eq09qCdutS0VJ0DNZux1XYTRkihiUYCsTUlEDQlvN4K4mUYEC+zzHJu3pkouJ05hxQv4V4i+/A0mBrM0lbDnNE5q3PWDHTudJtzcJZisKwEZLEgNeXgiTl7XOM8F9FHbEYjOsjYYxx7hFm4VqtSEwc0K0ZHP3oUHW0Ts1If0WLF4lHPSSaw3rS4lGpJGhbhWmBZdGm+n2W9I9VFlGunVR4FmnYtkBFvQubrRdvLmf6X/4ED4mWWWYg5aCOZYX+aZbmcNYuMesnjcNhry5hA8a3ff7fega7+TmC9bSbYbkMMULYuKpQ9v9HocnjAr1bavYCQZHv7r/aM3WUZAqu2J5KK5YAlSxpJqt09YgmFRloCdol1G0vA2uZmGxpW2W00yMPGPv7TDqBmbh0eYJe9XU+BNkl4kR1bt77OF4J4mQXEyyyz3PPkCWHnObNmk8HvjJnIp/iMt9/HbDoBaJ51xW8dHR0OxEvZfnWkTVeEU3F3BNWirqgkQQ6228agGtdqXsq2ygopwcpKLvq+q7wmx4qLu8xMoWB7zyiGesCoGatqR+x5PZifCuJlFhAvsxAB76zZrsSLQlVLBRmZ7yViW3yiBrJOsYTAA08dQw14ByySteQByFsdY1Bt3OGMbjO9Hb/abU4PRLwgiKF494XtnY6gqdvhTpc8p0AVeEUjlepq+9uVnlFqxcFd9gfQzDx2F83RThilMJjflMX0v/wPHBAvszx1MXXNXFSG/Pr7HLzNNA+1zaEW8c5Ed1GLdzuJDZcktKK7rGNlwY4vgukbOYwW/GTAvAWjC3o1g5kntGoHauq2n3qEs8K0J7j+4Ql+ILV8DN/b0TGOyjQnZQ+2OCn8pe0Zy3TwbbApJwuk8IYKPoi81thIu9MRtPoyS543O9t8pZSCSpXvmsFBEC/DgHiZ5elMN2UNJChqRedgosRsths6LZf4ypzZnZ1Ojum0HuTg3GnZxk6IJ+bLJ/TqhyeOtyf4jL/4gSLaZtlN3PIRzdYzH51T03RpfHRGJ3w11W7czDF894fYQa9RSDVvzkmgD6zZMjjKg1QDs4B4mcVD8c7BDcSImRHuxetjnlhUbjU63p442DptzxZXO/eye1wdT+qUeqKcSfuO7aGp2S3FlC1tbDOfzKRazkWUjQalqsGtclObhJSze/FSfGsuJ7Pefj0C4mUYEC+zPJ2Fp63NNm+212eba8Sw7OZ0ds601DfM8sC8pCLnmCVps9sSxnZ22sSx9op0g4Ng18at5Mny1ca3rbTNNY+fPGmlPqKt19DX11dUZEQbhlqUW0Tbxu7BNx2Fr83o1ByDNj7einRF+jS97ZmKbYIhFU+hwKcgHT/ZPF8C76VudiddUJDzqlwCvJNamesQntBx9ZhdfdkwndMvR0C8TAPiZRbSoza2HbuBS8hmW6ZHdI6NtRHpBgdlv2MQ89uIK+QXnCA2z08LdrAeBQ6mW4nLmcRX8gbaZ524Zghu/d1c30uW9g4Yegw9PYY28xmd6BMg8KmtrYc89bTRNgrWXS0tLfjcQj2gBRdHGI14nC26vd34K62O1z36KvutqiocbXhWMD+QH+hgrjC9yoEC7QBqgVpjY4DdZnOoqz5kSxq4DfjsEZTpag3DxN4x01LLzV5t+44HEyiYBcTLLC4mUJghxWtT4vCUMCn2qbmajKhsIM7BlGoFsmbXht/wZsfv9Mowt/f8RisWo/Gb5TRusGAfPbfZ2oldLurSqCUJnuK8qOy5kyKzSrwRkLdXrVpi3eg42mdTluboNi4BnoIuprjaXLGetmfEvG0bGdm29dV9EC+zgHiZxb14zXUMZu2iSNT7IlwXBnWJjUfHqdAxK3r/OJogJ6ZXDwTsrJjXVrkEHpfregDNkE52TwT7Mt5t2zaeBvEyDIgXAADAz4B4AQAA/AyIFwAAwM+AeAEAAPwMiBcAAMDPgHgBAAD8DIgXAADAz4B4AQAA/AyIFwAAwM+AeAEAAPwMiBcAAMDPgHgBAAD8DIgXAADAz4B4AQAA/AyIFwAAwM+AeAEAAPwMiBcAAMDPgHgBAAD8DIgXAADAz4B4AQAA/AyIFwAAwM+AeAEAAPwMiBcAAMDPgHgBAAD8DIgXAADAz4B4AQAA/AyIFwAAwM+AeAEAAPwMiBcAAMDPgHgBAAD8DIgXAADAz4B4AQAA/AyIFwAAwM+AeAEAAPwMiBcAAMDPgHgBAAD8DIgXAADAz4B4AQAA/AyIFwAAwM+AeAEAAPwMiBcAAMDPgHgBAAD8DIgXAADAz4B4AQAA/AyIFwAAwM+AeAEAAPwMiBcAAMDPgHgBAAD8DIgXAADAz4B4AQAA/AyIFwAAwM+AeAEAAPwMiBcAAMDPgHgBAAD8DIgXAADAz4B4AQAA/AyIFwAAwM+AeAEAAPwMiBcAAMDPgHgBAAD8DIgXAADAz4B4AQAA/AyIFwAAwM+AeAEAAPwMiBcAAMDPgHgBAAD8DIgXAADAz4B4AQAA/AyIFwAAwM+AeAEAAPwMiBcAAMDPgHgBAAD8DIgXAADAz4B4AQAA/AyIFwAAwM+AeAEAAPwMiBcAAMDPgHgBAAD8DIgXAADAz4B4AQAA/AyIFwAAwM+AeAEAAPwMiBcAAMDPgHgBAAD8zP8P5EBC73Ud+dcAAAAASUVORK5CYII=;" vertex="1" parent="1">
          <mxGeometry x="426.23" y="383.58" width="63.77" height="36.42" as="geometry" />
        </mxCell>
        <mxCell id="-Fb17HKplbQbY4DAVAYo-40" value="Opensearch" style="text;html=1;align=center;verticalAlign=middle;resizable=0;points=[];autosize=1;strokeColor=none;fillColor=none;" vertex="1" parent="1">
          <mxGeometry x="470" y="386.79" width="90" height="30" as="geometry" />
        </mxCell>
        <mxCell id="-Fb17HKplbQbY4DAVAYo-42" value="" style="sketch=0;points=[[0,0,0],[0.25,0,0],[0.5,0,0],[0.75,0,0],[1,0,0],[0,1,0],[0.25,1,0],[0.5,1,0],[0.75,1,0],[1,1,0],[0,0.25,0],[0,0.5,0],[0,0.75,0],[1,0.25,0],[1,0.5,0],[1,0.75,0]];outlineConnect=0;fontColor=#232F3E;fillColor=#01A88D;strokeColor=#ffffff;dashed=0;verticalLabelPosition=bottom;verticalAlign=top;align=center;html=1;fontSize=12;fontStyle=0;aspect=fixed;shape=mxgraph.aws4.resourceIcon;resIcon=mxgraph.aws4.bedrock;" vertex="1" parent="1">
          <mxGeometry x="439.11" y="438.79" width="38" height="38" as="geometry" />
        </mxCell>
        <mxCell id="-Fb17HKplbQbY4DAVAYo-43" value="Bedrock" style="text;html=1;align=center;verticalAlign=middle;resizable=0;points=[];autosize=1;strokeColor=none;fillColor=none;" vertex="1" parent="1">
          <mxGeometry x="480" y="446.79" width="70" height="30" as="geometry" />
        </mxCell>
        <mxCell id="-Fb17HKplbQbY4DAVAYo-44" style="edgeStyle=orthogonalEdgeStyle;rounded=0;orthogonalLoop=1;jettySize=auto;html=1;exitX=0.5;exitY=1;exitDx=0;exitDy=0;entryX=0.5;entryY=0;entryDx=0;entryDy=0;entryPerimeter=0;" edge="1" parent="1" source="-Fb17HKplbQbY4DAVAYo-39" target="-Fb17HKplbQbY4DAVAYo-42">
          <mxGeometry relative="1" as="geometry" />
        </mxCell>
        <mxCell id="-Fb17HKplbQbY4DAVAYo-46" value="Get AI response" style="text;html=1;align=center;verticalAlign=middle;resizable=0;points=[];autosize=1;strokeColor=none;fillColor=none;" vertex="1" parent="1">
          <mxGeometry x="370" y="340" width="110" height="30" as="geometry" />
        </mxCell>
        <mxCell id="-Fb17HKplbQbY4DAVAYo-48" value="Amazon DynamoDB" style="sketch=0;outlineConnect=0;fontColor=#232F3E;gradientColor=none;strokeColor=#ffffff;fillColor=#232F3E;dashed=0;verticalLabelPosition=middle;verticalAlign=bottom;align=center;html=1;whiteSpace=wrap;fontSize=10;fontStyle=1;spacing=3;shape=mxgraph.aws4.productIcon;prIcon=mxgraph.aws4.dynamodb;" vertex="1" parent="1">
          <mxGeometry x="590" y="376.79" width="80" height="113.21" as="geometry" />
        </mxCell>
        <mxCell id="-Fb17HKplbQbY4DAVAYo-51" value="Get chat conversations" style="text;html=1;align=center;verticalAlign=middle;resizable=0;points=[];autosize=1;strokeColor=none;fillColor=none;" vertex="1" parent="1">
          <mxGeometry x="555" y="270" width="150" height="30" as="geometry" />
        </mxCell>
      </root>
    </mxGraphModel>
  </diagram>
</mxfile>
